<?xml version="1.0" encoding="UTF-8"?>
<svg viewBox="0 0 202.50002 169.48643" xmlns="http://www.w3.org/2000/svg">
 <defs>
  <linearGradient id="b" x1="302.25" x2="302.35" y1="53.551" y2="96.283" gradientUnits="userSpaceOnUse">
   <stop stop-color="#fff" stop-opacity=".48558" offset="0"/>
   <stop stop-color="#e12825" stop-opacity="0" offset="1"/>
  </linearGradient>
  <linearGradient id="e" x1="75.196" x2="14.385" y1="305.91" y2="363.89" gradientUnits="userSpaceOnUse">
   <stop stop-color="#e6e6e6" offset="0"/>
   <stop stop-color="#fff" offset="1"/>
  </linearGradient>
  <linearGradient id="c" x1="302.25" x2="301.92" y1="95.147" y2="54.548" gradientUnits="userSpaceOnUse">
   <stop stop-color="#fff" stop-opacity="0" offset="0"/>
   <stop stop-color="#fe818f" offset="1"/>
  </linearGradient>
  <linearGradient id="d" x1="292.42" x2="292.07" y1="13.344" y2="175.06" gradientUnits="userSpaceOnUse">
   <stop stop-color="#b70b19" offset="0"/>
   <stop stop-color="#fa7681" offset="1"/>
  </linearGradient>
  <linearGradient id="f" x1="289.08" x2="290.49" y1="12.666" y2="175.13" gradientUnits="userSpaceOnUse">
   <stop stop-color="#716c69" offset="0"/>
   <stop stop-color="#faf9f4" offset="1"/>
  </linearGradient>
  <linearGradient id="g" x1="291.25" x2="291.25" y1="174.25" y2="11.488" gradientUnits="userSpaceOnUse">
   <stop stop-color="#999" offset="0"/>
   <stop stop-color="#f9f9f9" offset=".78519"/>
   <stop stop-color="#b3b3b3" offset="1"/>
  </linearGradient>
  <radialGradient id="a" cx="290.62" cy="164.87" r="57.276" gradientTransform="matrix(1 0 0 .09877 0 148.58)" gradientUnits="userSpaceOnUse">
   <stop stop-color="#333" offset="0"/>
   <stop stop-color="#fff" stop-opacity="0" offset="1"/>
  </radialGradient>
 </defs>
 <g transform="translate(55.536 -256.19)">
  <path transform="matrix(1.7678 0 0 1.7678 -468.04 124.23)" d="m347.9 164.87c0 3.1242-25.643 5.6568-57.276 5.6568s-57.276-2.5327-57.276-5.6568 25.643-5.6569 57.276-5.6569 57.276 2.5327 57.276 5.6569z" fill="url(#a)" opacity=".76442"/>
  <path transform="matrix(1.0237 0 0 .97077 -254.95 244.54)" d="m371.35 93.897c0 45.229-34.769 81.895-77.659 81.895s-77.659-36.666-77.659-81.895 34.769-81.895 77.659-81.895 77.659 36.666 77.659 81.895z" fill="url(#g)" fill-rule="evenodd"/>
  <path transform="matrix(.89576 0 0 .84943 -217.36 255.93)" d="m371.35 93.897c0 45.229-34.769 81.895-77.659 81.895s-77.659-36.666-77.659-81.895 34.769-81.895 77.659-81.895 77.659 36.666 77.659 81.895z" fill="none" stroke="url(#f)" stroke-width="5.7321"/>
  <path transform="matrix(.86403 0 0 .81934 -208.05 258.76)" d="m371.35 93.897c0 45.229-34.769 81.895-77.659 81.895s-77.659-36.666-77.659-81.895 34.769-81.895 77.659-81.895 77.659 36.666 77.659 81.895z" fill="url(#d)" fill-rule="evenodd"/>
  <path transform="matrix(1.5041 0 0 1.4717 -410.69 196.98)" d="m335.5 78.5c0 14.083-14.439 25.5-32.25 25.5s-32.25-11.417-32.25-25.5 14.439-25.5 32.25-25.5 32.25 11.417 32.25 25.5z" fill="url(#c)"/>
  <path d="m65.65 296.72-20.153 20.153-20.153-20.153-18.738 18.738 20.153 20.153-20.153 20.153 18.738 18.738 20.153-20.153 20.153 20.153 18.738-18.738-20.153-20.153 20.153-20.153-18.738-18.738z" fill="url(#e)" opacity=".76442" stroke="#800000" stroke-width="2"/>
  <path transform="matrix(1.5041 0 0 1.4717 -410.69 196.98)" d="m335.5 78.5c0 14.083-14.439 25.5-32.25 25.5s-32.25-11.417-32.25-25.5 14.439-25.5 32.25-25.5 32.25 11.417 32.25 25.5z" fill="url(#b)"/>
 </g>
</svg>
