<?xml version="1.0" encoding="UTF-8"?>
<svg viewBox="0 0 684.03253 275.91357" xmlns="http://www.w3.org/2000/svg" xmlns:xlink="http://www.w3.org/1999/xlink">
 <defs>
  <filter id="ci">
   <feGaussianBlur stdDeviation="2.332"/>
  </filter>
  <linearGradient id="c">
   <stop stop-color="#613220" offset="0"/>
   <stop stop-color="#1a1a1a" offset="1"/>
  </linearGradient>
  <linearGradient id="ae">
   <stop stop-color="#782b11" offset="0"/>
   <stop stop-color="#643427" offset="1"/>
  </linearGradient>
  <linearGradient id="cc" x1="196.24" x2="226.18" y1="295.99" y2="309.53" gradientUnits="userSpaceOnUse" spreadMethod="reflect">
   <stop stop-color="#261712" offset="0"/>
   <stop stop-color="#504f4c" offset=".513"/>
   <stop stop-color="#706d68" offset="1"/>
  </linearGradient>
  <linearGradient id="g">
   <stop stop-color="#261712" offset="0"/>
   <stop stop-color="#504f4c" offset=".412"/>
   <stop stop-color="#706d68" offset="1"/>
  </linearGradient>
  <linearGradient id="e">
   <stop stop-color="#8d6729" offset="0"/>
   <stop stop-color="#808000" stop-opacity="0" offset="1"/>
  </linearGradient>
  <linearGradient id="af">
   <stop stop-color="#98908a" offset="0"/>
   <stop stop-color="#885d4d" offset=".403"/>
   <stop stop-color="#782b11" offset="1"/>
  </linearGradient>
  <linearGradient id="f">
   <stop stop-color="#1a1a1a" offset="0"/>
   <stop stop-color="#1a1a1a" stop-opacity="0" offset="1"/>
  </linearGradient>
  <linearGradient id="b">
   <stop stop-color="#673324" offset="0"/>
   <stop stop-color="#4d4d4d" offset="1"/>
  </linearGradient>
  <linearGradient id="a">
   <stop stop-color="#502d16" offset="0"/>
   <stop stop-color="#d38d5f" offset="1"/>
  </linearGradient>
  <linearGradient id="d">
   <stop stop-color="#502d16" offset="0"/>
   <stop stop-color="#502d16" stop-opacity="0" offset="1"/>
  </linearGradient>
  <linearGradient id="ac">
   <stop stop-color="#8c5e47" offset="0"/>
   <stop stop-color="#8d4014" offset=".605"/>
   <stop stop-color="#782b11" offset="1"/>
  </linearGradient>
  <linearGradient id="bu" x1="25.782" x2="22.722" y1="414.55" y2="393.98" gradientUnits="userSpaceOnUse" xlink:href="#d"/>
  <linearGradient id="bv" x1="25.782" x2="22.722" y1="414.55" y2="393.98" gradientTransform="matrix(-.86748 -.23716 -.28171 .7303 516.09 107.54)" gradientUnits="userSpaceOnUse" xlink:href="#d"/>
  <linearGradient id="bw" x1="25.782" x2="22.722" y1="414.55" y2="393.98" gradientTransform="matrix(-.60289 .1035 .11573 .67418 450.97 39.242)" gradientUnits="userSpaceOnUse" xlink:href="#d"/>
  <linearGradient id="ad" x1="183.13" x2="180.07" y1="213.07" y2="192.5" gradientUnits="userSpaceOnUse" xlink:href="#d"/>
  <linearGradient id="bx" x1="217.58" x2="217.31" y1="442.32" y2="421.53" gradientUnits="userSpaceOnUse" xlink:href="#d"/>
  <linearGradient id="l" x1="640" x2="512.78" y1="356.33" y2="288.8" gradientUnits="userSpaceOnUse" xlink:href="#f"/>
  <linearGradient id="m" x1="559.58" x2="586.23" y1="214.67" y2="217.79" gradientTransform="matrix(1.4647 .46741 -.15324 1.1561 -239.62 -205.45)" gradientUnits="userSpaceOnUse" xlink:href="#b"/>
  <linearGradient id="n" x1="557.67" x2="591.6" y1="215.77" y2="218.98" gradientTransform="matrix(.35591 .05638 -.03131 .56595 393.19 166.62)" gradientUnits="userSpaceOnUse" xlink:href="#b"/>
  <linearGradient id="o" x1="557.67" x2="591.6" y1="215.77" y2="218.98" gradientTransform="matrix(.33286 .11774 -.14558 .49942 439.6 150.03)" gradientUnits="userSpaceOnUse" xlink:href="#b"/>
  <linearGradient id="p" x1="557.67" x2="591.6" y1="215.77" y2="218.98" gradientTransform="matrix(.29899 .16382 -.23464 .42191 485.13 145.25)" gradientUnits="userSpaceOnUse" xlink:href="#b"/>
  <linearGradient id="q" x1="557.67" x2="591.6" y1="215.77" y2="218.98" gradientTransform="matrix(.24549 .21247 -.33212 .31057 543.99 147.69)" gradientUnits="userSpaceOnUse" xlink:href="#b"/>
  <linearGradient id="r" x1="557.67" x2="591.6" y1="215.77" y2="218.98" gradientTransform="matrix(.22985 .00842 -.04463 .38812 505.57 10.761)" gradientUnits="userSpaceOnUse" xlink:href="#b"/>
  <linearGradient id="s" x1="557.67" x2="591.6" y1="215.77" y2="218.98" gradientTransform="matrix(.21283 .03461 -.08673 .35584 530.27 4.0411)" gradientUnits="userSpaceOnUse" xlink:href="#b"/>
  <linearGradient id="t" x1="557.67" x2="591.6" y1="215.77" y2="218.98" gradientTransform="matrix(.19507 .04949 -.10959 .3238 550.74 4.0308)" gradientUnits="userSpaceOnUse" xlink:href="#b"/>
  <linearGradient id="u" x1="557.67" x2="591.6" y1="215.77" y2="218.98" gradientTransform="matrix(.17644 .06157 -.12758 .29066 570.32 6.4066)" gradientUnits="userSpaceOnUse" xlink:href="#b"/>
  <linearGradient id="v" x1="557.67" x2="591.6" y1="215.77" y2="218.98" gradientTransform="matrix(.1573 .07081 -.1407 .25702 588.83 11.048)" gradientUnits="userSpaceOnUse" xlink:href="#b"/>
  <linearGradient id="w" x1="557.67" x2="591.6" y1="215.77" y2="218.98" gradientTransform="matrix(.13798 .07723 -.14902 .22346 606.13 17.452)" gradientUnits="userSpaceOnUse" xlink:href="#b"/>
  <linearGradient id="x" x1="557.67" x2="591.6" y1="215.77" y2="218.98" gradientTransform="matrix(.11884 .08088 -.15266 .19057 621.98 26.161)" gradientUnits="userSpaceOnUse" xlink:href="#b"/>
  <linearGradient id="y" x1="557.67" x2="591.6" y1="215.77" y2="218.98" gradientTransform="matrix(.10021 .08183 -.15182 .15888 635.07 35.259)" gradientUnits="userSpaceOnUse" xlink:href="#b"/>
  <linearGradient id="z" x1="557.67" x2="591.6" y1="215.77" y2="218.98" gradientTransform="matrix(.08239 .08023 -.14675 .12893 646.21 45.294)" gradientUnits="userSpaceOnUse" xlink:href="#b"/>
  <linearGradient id="aa" x1="557.67" x2="591.6" y1="215.77" y2="218.98" gradientTransform="matrix(.0657 .07622 -.13775 .10119 655.14 55.785)" gradientUnits="userSpaceOnUse" xlink:href="#b"/>
  <linearGradient id="ab" x1="557.67" x2="591.6" y1="215.77" y2="218.98" gradientTransform="matrix(.05041 .06999 -.12518 .07612 662.01 66.785)" gradientUnits="userSpaceOnUse" xlink:href="#b"/>
  <linearGradient id="by" x1="526.34" x2="453.06" y1="228.84" y2="236.43" gradientUnits="userSpaceOnUse" xlink:href="#f"/>
  <linearGradient id="bz" x1="254.6" x2="238.2" y1="352.44" y2="271.99" gradientUnits="userSpaceOnUse" xlink:href="#e"/>
  <linearGradient id="ca" x1="210.05" x2="236.42" y1="275.07" y2="292.27" gradientUnits="userSpaceOnUse" xlink:href="#g" spreadMethod="reflect"/>
  <linearGradient id="cb" x1="248.84" x2="225.97" y1="350.16" y2="271.31" gradientUnits="userSpaceOnUse" xlink:href="#e"/>
  <linearGradient id="cd" x1="239.73" x2="216.86" y1="375.84" y2="296.99" gradientUnits="userSpaceOnUse" xlink:href="#e"/>
  <linearGradient id="ce" x1="191.27" x2="209.61" y1="330.23" y2="342.66" gradientUnits="userSpaceOnUse" xlink:href="#g" spreadMethod="reflect"/>
  <linearGradient id="cf" x1="291.64" x2="268.77" y1="311.5" y2="232.66" gradientUnits="userSpaceOnUse" xlink:href="#e"/>
  <linearGradient id="cg" x1="240.69" x2="262.63" y1="238.56" y2="255.41" gradientUnits="userSpaceOnUse" xlink:href="#g" spreadMethod="reflect"/>
  <linearGradient id="ch" x1="516.52" x2="512.89" y1="251.99" y2="277.89" gradientUnits="userSpaceOnUse" xlink:href="#f"/>
  <radialGradient id="an" cx="483.4" cy="242.03" r="17.46" gradientTransform="matrix(1 0 0 .52198 0 115.7)" gradientUnits="userSpaceOnUse">
   <stop stop-color="#8d4014" offset="0"/>
   <stop stop-color="#8d4014" stop-opacity="0" offset="1"/>
  </radialGradient>
  <radialGradient id="am" cx="506.36" cy="217.36" r="5.1199" gradientTransform="matrix(.90644 -.30877 .35901 .93808 -31.037 169.27)" gradientUnits="userSpaceOnUse">
   <stop stop-color="#312e2e" stop-opacity=".711" offset="0"/>
   <stop stop-color="#532c1f" stop-opacity=".739" offset=".36"/>
   <stop stop-color="#502c20" stop-opacity=".567" offset=".662"/>
   <stop stop-opacity=".392" offset="1"/>
  </radialGradient>
  <radialGradient id="bm" cx="480.63" cy="237.58" r="42.117" gradientTransform="matrix(-.62169 1.1632 -1.9378 -1.0356 1220 -130.68)" gradientUnits="userSpaceOnUse">
   <stop offset="0"/>
   <stop stop-color="#404040" offset=".39"/>
   <stop stop-color="#606060" stop-opacity=".135" offset=".591"/>
   <stop stop-color="#808080" stop-opacity=".015" offset="1"/>
  </radialGradient>
  <radialGradient id="bo" cx="470.17" cy="209.02" r="8.4903" gradientTransform="matrix(-.57639 .06409 -.08329 -.74907 758.73 338.87)" gradientUnits="userSpaceOnUse">
   <stop stop-color="#ccc" offset="0"/>
   <stop offset="1"/>
  </radialGradient>
  <radialGradient id="bq" cx="386.66" cy="250.32" r="28.954" gradientTransform="matrix(1.7894 -.56374 .03547 .69737 -306.28 259.1)" gradientUnits="userSpaceOnUse">
   <stop stop-color="#98908a" offset="0"/>
   <stop stop-color="#885d4d" offset=".486"/>
   <stop stop-color="#782b11" offset="1"/>
  </radialGradient>
  <radialGradient id="ag" cx="122.56" cy="-57.111" r="40.306" gradientTransform="matrix(1.6735 -2.5088 .28329 .18896 -53.884 617.72)" gradientUnits="userSpaceOnUse" xlink:href="#c"/>
  <radialGradient id="ah" cx="137.21" cy="-59.058" r="40.306" gradientTransform="matrix(-.80551 1.0245 -.15073 -.12489 205.03 198.56)" gradientUnits="userSpaceOnUse" xlink:href="#a"/>
  <radialGradient id="ai" cx="134.55" cy="-57.782" r="40.306" gradientTransform="matrix(-.32242 .23051 -.04066 -.05184 112.31 348.9)" gradientUnits="userSpaceOnUse" xlink:href="#a"/>
  <radialGradient id="aj" cx="132.66" cy="-45.226" r="40.306" gradientTransform="matrix(-.45643 .23651 -.03322 -.05605 112.8 359.61)" gradientUnits="userSpaceOnUse" xlink:href="#a"/>
  <radialGradient id="ak" cx="133.89" cy="-33.725" r="40.306" gradientTransform="matrix(-.47945 .10708 -.03468 -.10707 96.447 381.11)" gradientUnits="userSpaceOnUse" xlink:href="#a"/>
  <radialGradient id="ao" cx="336.61" cy="242.8" r="28.954" gradientTransform="matrix(-.58073 .56256 -.29985 -.41861 662.97 160.05)" gradientUnits="userSpaceOnUse" xlink:href="#ac"/>
  <radialGradient id="ap" cx="336.61" cy="242.8" r="28.954" gradientTransform="matrix(-.18967 .54278 -.3352 -.125 499.97 117.05)" gradientUnits="userSpaceOnUse" xlink:href="#ac"/>
  <radialGradient id="aq" cx="134.55" cy="-57.782" r="40.306" gradientTransform="matrix(.15296 .27574 .05553 -.01935 333.5 330.55)" gradientUnits="userSpaceOnUse" xlink:href="#a"/>
  <radialGradient id="ar" cx="132.66" cy="-45.226" r="40.306" gradientTransform="matrix(.28145 .3157 .04948 -.02771 324.73 338.03)" gradientUnits="userSpaceOnUse" xlink:href="#a"/>
  <radialGradient id="as" cx="133.89" cy="-33.725" r="40.306" gradientTransform="matrix(.38575 .1919 .06025 -.06997 325.06 362.99)" gradientUnits="userSpaceOnUse" xlink:href="#a"/>
  <radialGradient id="at" cx="135.92" cy="-59.92" r="40.306" gradientTransform="matrix(-.0637 .99879 .17823 .00909 369.31 198.04)" gradientUnits="userSpaceOnUse" xlink:href="#a"/>
  <radialGradient id="au" cx="122.56" cy="-57.111" r="40.306" gradientTransform="matrix(.05594 -2.3151 -.31052 -.00532 331.19 574.35)" gradientUnits="userSpaceOnUse" xlink:href="#c"/>
  <radialGradient id="av" cx="126.42" cy="157.27" r="40.306" gradientTransform="matrix(.04987 -1.4089 .50117 .01187 271.94 437.21)" gradientUnits="userSpaceOnUse" xlink:href="#c"/>
  <radialGradient id="aw" cx="133.89" cy="-33.725" r="40.306" gradientTransform="matrix(.30145 .02257 .00852 -.07578 436.93 306.16)" gradientUnits="userSpaceOnUse" xlink:href="#a"/>
  <radialGradient id="ax" cx="132.66" cy="-45.226" r="40.306" gradientTransform="matrix(.30255 .11221 .01354 -.04123 424.58 293.36)" gradientUnits="userSpaceOnUse" xlink:href="#a"/>
  <radialGradient id="ay" cx="134.55" cy="-57.782" r="40.306" gradientTransform="matrix(.24265 .1214 .01856 -.04253 421.06 286.48)" gradientUnits="userSpaceOnUse" xlink:href="#a"/>
  <radialGradient id="az" cx="137.21" cy="-59.058" r="40.306" gradientTransform="matrix(.30518 .68021 .11075 -.05306 402.87 186.06)" gradientUnits="userSpaceOnUse" xlink:href="#a"/>
  <radialGradient id="ba" cx="122.56" cy="-57.111" r="40.306" gradientTransform="matrix(-1.0536 -2.0394 -.19761 .14268 548.11 519.36)" gradientUnits="userSpaceOnUse" xlink:href="#c"/>
  <radialGradient id="bb" cx="124.96" cy="202.66" r="40.306" gradientTransform="matrix(.3358 -1.6249 -.32716 -.08591 404.35 466.83)" gradientUnits="userSpaceOnUse" xlink:href="#c"/>
  <radialGradient id="bc" cx="122.56" cy="-57.111" r="40.306" gradientTransform="matrix(-1.6212 .01657 .04497 .20872 652.35 172.8)" gradientUnits="userSpaceOnUse" xlink:href="#c"/>
  <radialGradient id="h" cx="137.21" cy="-59.058" r="40.306" gradientTransform="matrix(-.80551 1.0245 -.15073 -.12489 362.38 -2.9178)" gradientUnits="userSpaceOnUse" xlink:href="#a"/>
  <radialGradient id="i" cx="134.55" cy="-57.782" r="40.306" gradientTransform="matrix(-.32242 .23051 -.04066 -.05184 269.66 147.42)" gradientUnits="userSpaceOnUse" xlink:href="#a"/>
  <radialGradient id="j" cx="132.66" cy="-45.226" r="40.306" gradientTransform="matrix(-.45643 .23651 -.03322 -.05605 270.16 158.13)" gradientUnits="userSpaceOnUse" xlink:href="#a"/>
  <radialGradient id="k" cx="133.89" cy="-33.725" r="40.306" gradientTransform="matrix(-.47945 .10708 -.03468 -.10707 253.8 179.63)" gradientUnits="userSpaceOnUse" xlink:href="#a"/>
  <radialGradient id="bd" cx="139.14" cy="192.5" r="40.306" gradientTransform="matrix(.69306 -.81615 -.1541 -.30312 359.68 361.04)" gradientUnits="userSpaceOnUse" xlink:href="#c"/>
  <radialGradient id="be" cx="125.05" cy="181.58" r="40.306" gradientTransform="matrix(-.96869 -1.3467 .24713 -.19704 377.29 448.27)" gradientUnits="userSpaceOnUse" xlink:href="#c"/>
  <radialGradient id="bf" cx="135.92" cy="-59.92" r="40.306" gradientTransform="matrix(-.59548 1.1593 -.17177 -.09387 359.09 209.27)" gradientUnits="userSpaceOnUse" xlink:href="#a"/>
  <radialGradient id="bg" cx="134.55" cy="-57.782" r="40.306" gradientTransform="matrix(-.30693 .25076 -.04391 -.04912 302.1 376.61)" gradientUnits="userSpaceOnUse" xlink:href="#a"/>
  <radialGradient id="bh" cx="132.66" cy="-45.226" r="40.306" gradientTransform="matrix(-.45643 .23651 -.03322 -.05605 306.53 389.56)" gradientUnits="userSpaceOnUse" xlink:href="#a"/>
  <radialGradient id="bi" cx="133.89" cy="-33.725" r="40.306" gradientTransform="matrix(-.48949 .04163 -.01997 -.11077 292.1 418.69)" gradientUnits="userSpaceOnUse" xlink:href="#a"/>
  <radialGradient id="bj" cx="122.56" cy="-57.111" r="40.306" gradientTransform="matrix(.66505 -2.9415 .33214 .0751 190.35 657.72)" gradientUnits="userSpaceOnUse" xlink:href="#c"/>
  <radialGradient id="bk" cx="122.56" cy="-57.111" r="40.306" gradientTransform="matrix(1.2356 -1.977 .18801 .14066 150.68 475.63)" gradientUnits="userSpaceOnUse" xlink:href="#c"/>
  <radialGradient id="bl" cx="139.14" cy="192.5" r="40.306" gradientTransform="matrix(-.39518 -.99512 .24306 -.2378 341.25 370.03)" gradientUnits="userSpaceOnUse" xlink:href="#c"/>
  <radialGradient id="al" cx="124.96" cy="202.66" r="40.306" gradientTransform="matrix(-1.5435 -.60881 .10727 -.3208 402.22 380.17)" gradientUnits="userSpaceOnUse" xlink:href="#c"/>
  <radialGradient id="bn" cx="476.8" cy="214.38" r="45.359" gradientTransform="matrix(1.0574 -.06783 .05792 .90297 -39.782 53.439)" gradientUnits="userSpaceOnUse" xlink:href="#ae"/>
  <radialGradient id="bp" cx="347.23" cy="233.76" r="28.954" gradientTransform="matrix(.75952 -.73647 .43501 .44862 -47.443 426.37)" gradientUnits="userSpaceOnUse" xlink:href="#af"/>
  <radialGradient id="br" cx="350.42" cy="242.78" r="28.954" gradientTransform="matrix(.99452 -.82499 .5174 .62373 -122.07 378.29)" gradientUnits="userSpaceOnUse" xlink:href="#af"/>
  <radialGradient id="bs" cx="509.83" cy="324.55" r="45.359" gradientTransform="matrix(.43564 -.20328 .23117 .49541 221.94 213.76)" gradientUnits="userSpaceOnUse" xlink:href="#ae"/>
 </defs>
 <g transform="translate(-34.272 -446.21)">
  <path d="m374.9896,451.8068c-.3629-.0226-.8477.1599-1.5313.625-.2643.1141-.5945.3556-.9375.625-2.2851.9673-4.3534,3.1319-5.125,5.5625-3.2031,4.0244-6.5247,8.8122-7.7188,10.7188-1.4124,2.2552-12.1854,16.8767-21.875,31.375-3.5068-4.6132-7.2255-8.7631-11.0625-12.1875-2.6832-2.3947-10.3577,1.4485-10.375,6.1563-2.2969,4.0463-4.9753,12.0083-6.75,18.0313-9.5337-.0584-18.7873,2.9629-25.875,6.4063-15.6632-8.8342-36.7227-13.6613-49.4375-11.0313-.79.1634-1.4699,1.1276-1.9688,2.4375-.4156-.5012-1.3031-.6443-2.9688-.0625-4.4055.7619-18.1658,12.1811-21.5313,15.3438s-39.1525,31.2608-54.1875,47.6563c-1.5034,1.6394-1.943,3.2692-1.6875,4.7188-12.1298,11.0196-43.775,40.7025-45.0937,42.1563-.0813.1013-.1035.3011-.0937.5313-.0663-.009-.1187-.0255-.1875-.0312-.5883-.2582-17.6863,7.4585-18,8.2188-.0252.0174-.0213.0819 0,.1875-3.1528-.1039-14.9687,2.6005-18.2188,4.375h-.0313c-5.5456-.8748-14.2662-1.4606-19.75.0937-5.0499,1.5553-7.0492,8.1208-5.125,7.0625 1.5287-2.0383 2.5054-2.9961 4.625-2.5 .7213.1688.6651,2.724.7188,5.9375 2.5515.5635 1.8729-5.5957 3.75-6.5938 2.6999-1.4743 6.2506.1834 11.3125.4375 .8443.5099-.5753,1.5689-.75,2.375 .5483.6174 3.1666-1.7465 3.4375-2.1875 .3534.0826 1.0461-.1892 1.625-.375 .1198.0796.2565.1638.4063.2188 1.5574.3359 11.8341-3.095 16.5-4.625 1.2544.0446-.2695.9108-.25,2.125 2.855-2.2994 2.6252-2.5656 3.3438-3.5 .0225-.0369.0184-.0811.0313-.125 .1275.0776.2508.1292.375.125 1.1055-.1108 10.4173-4.2365 15.3437-6.625v.0937c1.0633.4825.008,3.3546.4688,4.5625 1.4784-1.6583 1.2304-5.3329 2.5938-6.3125 .1017-.046.1874-.1059.25-.1875 .4229.0608.8953.0259 1.4375-.125 3.2835-1.4675 35.4324-29.9198 47.0937-40.4063 .7574.1492 1.5401.2231 2.3438.1875 1.693,1.0844 3.0738,4.3882 4.4688,13.125 1.4976-5.3937 1.6691-11.5812.875-15.0313 .3457-.2606.6762-.5551 1-.875 14.4931-14.3206 42.9165-43.3564 46.7813-46.9375 3.9692-3.6779 16.9802-16.5782 18.0313-18.1563 .0324-.0486.0847-.1515.125-.2188-.162,2.6642.2983,5.0667 1.6563,5.0313 10.8392-.2826 22.3191,4.8568 32.1875,11.875-12.0222,9.2797-22.9526,27.2662-21.4688,29.6563-.004.008.004.0229 0,.0312-6.0117,11.3212-11.9584,36.5726-8.0625,38.3438-.2169,1.6892-.2824,3.403-.25,5.125-1.7327.4374-3.3562.9655-4.7188,1.6563-4.8185,2.6001-5.6909,10.6647-3.9375,9.125 1.1806-2.635 2.0237-3.9193 4.25-3.6563 .7576.0895 1.1571,3.1261 1.7813,6.9063 2.674.2769.8771-6.8822 2.5938-8.3438 .161-.1404.3269-.2634.5-.375 3.0273,20.0029 20.1482,39.416 31.75,37.125 0,0 4.7093-2.1867 10.5938-5.125-4.4463,16.0608-8.477,27.6835-8.5625,30-.008.15.1029.4345.25.75-2.393,2.4993-10.3057,12.6362-11.8125,15.25-3.9704,1.8918-13.2458,8.6056-14.9063,11.2813-5.7467.2899-14.0759,1.5824-18.9375,4.5-4.621,2.9368-4.9205,11.0357-3.2813,9.375 .9899-2.7124 1.7294-4.0725 3.9688-3.9688 .762.0353 1.3893,3.0552 2.2813,6.7813 2.6869.0857.3919-6.9198 2-8.5 2.303-2.3178 6.2699-1.1965 11.375-2.0313 .9735.4046-.1614,1.9295-.125,2.9063 .7069.5957 2.6891-2.7077 2.8438-3.2813 .5591.0257 1.6741-1.0591 2.1875-1.1563 .009-.0181.0226-.0432.0312-.0625 1.7563-.3318 9.9957-7.6387 13.7813-10.9688 1.2182-.3956.1337,1.0874.6563,2.4375 1.5448-3.1167 1.4985-3.7065 1.6563-4.6563 1.782-1.7664 7.4892-8.9781 10.5938-13.1875l.0625.125c1.225.0831 1.64,3.6579 2.6563,4.7813 .4847-2.0528-.8993-5.1653-.8438-7.0625 .2064-.1276.4253-.2672.625-.5 2.2899-1.9956 7.707-19.6512 11.625-37 7.1848-3.8213 13.9507-7.8379 15.0625-9.9063-.7038.0149-1.3896.0136-2.0938,0 2.1209-.2362 3.6302-.7897 4.3125-1.6563 1.3231-.0987 12.8141-8.8108 16.2813-13.2188 .0849.0277.165.0662.25.0937 2.7807.0186 11.8591-6.7525 15.9375-14.4063 .0379.0646.0872.1228.125.1875 1.8788-.1402 11.0859-10.9093 14.2813-26.6875 9.2451,6.2234 28.2326,4.9742 33.9375-3.3438 3.8944-5.6782 4.6794-13.3536 3.9375-19.0625 .6449-.0285 1.3117-.0477 1.9688-.0937-.7776,5.0347-1.8979,17.1172 3.125,22.7813 .4467,4.491 1.3506,7.582 2.7813,8.75 .0949.0775.1836.1471.2813.2188-.0833,2.4388-.2069,6.2641-.25,7.25 .007.1521.0188.2903.0312.4375-3.1045-.4548-8.4225,3.8147-13.4063,9.375 11.0548-5.6217 13.655-5.5288 15.125-3.75-4.4719,10.5297-7.0563,41.3658-5.875,50.1875-.8132,1.1957-3.5929,2.3186-4.3125,3.8438 1.3122-.1156 3.4398-2.0132 4.375-1.4063l.0937-.0312c.1213,4.129.6,11.4059 1,13.4063-.3694.6455-.6955.9613-1.1563,3.625 1.0678-.513 1.032-1.9782 1.7188-1.0938 1.0601,3.9629 3.3516,12.6115 4.4688,13.8125-.004.0184.003.0448 0,.0625 .3248.3319.5794,1.5908 1,1.875-.1791.4195-.4121,3.4088.4063,3.4375 .5234-.554.4908-2.0649 1.4063-1.7813 3.2965,3.223 6.7505,4.6875 7.25,7.2813 .3683,1.7886-4.8771,4.6745-2.875,6.0625 2.5458-1.7103 4.5203-3.1372 5.0938-2.75 1.6851,1.1378 1.5334,2.315.875,4.4375 .35,1.8526 4.2805-3.0519 2.4063-7.25-2.0629-4.3229-7.519-9.536-11.5625-12.7813 .152-2.4634-3.1637-11.4045-5.0938-14.625 .1918-2.0295-.2344-9.6325-.6563-13.5625 .6919-.3933 1.2388-.8374 1.3125-1.0625 .9708-2.7691-.0009-26.2751 4.2813-51.125 1.8215-.3791 3.4488-2.1085 3.8125-5.4063 .1472-1.1718.3756-4.5822.6563-8.7813 3.5726-2.1047 6.592-6.0253 7.0938-10.8438 .6274-6.0248 1.3472-15.585 1.4375-26.2813 3.6719-1.6487 6.3858-3.5783 7.4688-5.625 .054-.1021.1035-.2074.1563-.3125 .068.9522.1613,1.9562.25,2.9375-2.5433,8.7365-2.9269,16.7925 3.9375,16.8125 12.5293.0365 30.0017-16.3121 32.4688-28.0625 2.928,5.508 7.3667,13.4337 12.75,21.2813-.9926,2.0606-1.9333,4.5841-2.4375,7.0313 1.5349-2.387 2.7371-4.0374 3.7188-5.2188 1.8823,2.6618 3.8509,5.2804 5.9063,7.75 1.0693,1.2849 2.1342,2.1491 3.125,2.6563 4.1045,10.5021 8.9269,22.4788 9.9063,23.5938 .0517.0411.1044.0908.1563.125 .0492.1635.1509.3073.2813.375 .9792.8118 1.027,4.0094 2.125,5.4063 .2373-1.0593-.6566-3.5217.0312-3.9688v-.0937c3.164,1.766 8.8277,4.6679 10.375,5.2188 .2541.4775.4876.918 1.9063,2.3438-.0236-.9874-1.0024-1.6799-.2188-1.7188 2.965,1.2344 9.5041,3.9951 10.4688,3.7188 .0945-.0461.176-.0891.25-.1563 .369.1499.8112.3808 1.0313.3125 .1826.3581 1.8938,2.2531 2.2188,1.75-.1331-.6551-1.0758-1.5212-.5625-1.9375 3.1602-.217 5.3607-1.5682 7.0938-.375 1.2041.8077.9512,5.8385 2.5313,5.375-.0612-2.6131-.1964-4.705.25-4.8438 1.3118-.4078 1.9832.377 3,2.0313 1.2353.8566-.2315-4.4958-3.4375-5.75-3.4796-1.2534-8.8995-.7548-12.3438-.0312-1.8754-1.3031-8.2366-3.224-10.875-3.5-1.3351-1.0342-8.5296-4.7965-11.2813-6-.4457-1.4763-4.4238-12.8464-8.1875-23.4063 .4624-1.4048.3528-3.443-.7188-5.9063-4.686-10.7725-12.5726-26.1133-18.5625-37.5625 6.3064-5.9557 11.1649-11.8247 15.125-17.9375 .5059,3.9163 2.1707,7.7962 5.7813,11.5 9.1689,16.6031 41.9572,31.8968 56.9063,29.7188 7.4162,13.1781 33.3194,25.7615 40.8438,12.0625 .4202-1.9129-5.7768-.5113-6.375,1.1563s-3.2755-3.1282-5.125-.5c-.9852,1.4-2.0725-3.8268-3.625-1.75-1.3535,1.8105-1.2734-4.565-3.25-2.6875-1.9882,1.8885-.7532-4.5632-2.9063-3.0625-1.3982.9745-.6477-4.6093-2.5625-3.1563-2.1058,1.598-.3751-4.887-2.4375-3.5625-2.3765,1.5263 1.4416-6.6219-1.0938-5.4375-2.0054.9368 1.6049-3.3087 1.5-4.3438-.0434-.4284-.2763-.7442-.625-.9375 2.7921-1.6285 5.4289-2.6612 7.7188-3.5625-.007.0231-.0223.0374-.0312.0625-.7745,2.1747 6.0293-.8991 4.9375,1.125-.9475,1.7566 4.5584.4649 3.375,2.25-1.0761,1.6232 3.741,1.1555 3.0313,2.3438-1.0929,1.8297 4.4826.9839 3.0313,2.6563-1.4429,1.6626 4.1371,1.8172 2.6875,2.9375-1.6628,1.285 3.0337,2.4061 1.9063,3.2188-2.1165,1.5255 2.4035,4.0348 1,4.5s-1.9818,5.8324-.3438,5.5313c10.2876-5.578-.3651-25.3183-11.7188-33.9688 .0906-.0462.1733-.1003.25-.1563 .0789.0473.1588.0596.25.0625 1.3223.3226 2.6915,3.3059 4.375,4.125-.1925-1.0744-2.0018-2.9178-1.625-3.6875 1.0629.4631 2.1267.8717 3.2188,1.25 10.283,3.5618 21.775,8.4511 32.8125,14.625v.0625h.0937c2.1842,1.2236 4.3641,2.4855 6.5,3.8125l.875-2.4688c.4317.1367.8672.3085 1.3125.4688v.0312l.1563.0312c2.6575.9708 5.4879,2.3426 8.0938,4.2813 .0494-.3172.1258-.5759.1875-.8438 2.3239,1.3576 4.7343,3.0758 6.8125,5.25 .1198-.2921.2531-.5104.375-.75 1.8187,1.5446 3.6007,3.3815 5.0625,5.5 .1444-.2036.2988-.362.4375-.5313 .7232.4712 1.6198,1.1857 2.625,2.0938 .8752,1.3274 1.682,2.7413 2.2813,4.25 .3944-.2956.7561-.506 1.0938-.6875 1.242,1.552 2.4084,3.311 3.25,5.2188 .4975-.4127.9355-.6973 1.3438-.9063 1.3032,1.8217 2.5051,3.9494 3.2188,6.25 .6462-.3912 1.2003-.6112 1.6875-.75 1.0724,1.7663 2.0241,3.8143 2.5,5.9688 .6064-.2878 1.1107-.4706 1.5625-.5625 .9291,1.7626 1.7197,3.8133 2,5.9375 .5376-.1929 1.0041-.2894 1.4063-.3438 .8034,1.7553 1.4741,3.8628 1.5625,5.9688 .6413-.163 1.1218-.2218 1.5625-.2188 .6537,1.6991 1.164,3.7356 1.0625,5.75 .3973-.0626.7274-.0621 1.0313-.0625 .2831.7873.4943,1.6971.6563,2.6563l.0312.0625c.1806,1.1016.2599,2.2432.0937,3.375 .3662-.0245.6604.009.9375.0312 .0485.3041.0669.619.0937.9375 .003.008-.003.0234 0,.0312 .0828,1.0112.0651,2.0483-.1875,3.0625 .3387.007.6228.052.875.0937 .006.0929.0279.1869.0312.2813h-.125c.0411.1141.0864.3155.125.4688-.008.8874-.158,1.7917-.4688,2.6563 .184.0191.3161.0653.4688.0937 .0398.1928.1061.3885.125.6563-.0975.6236-.2814,1.2593-.5625,1.8438 .1595.0298.2747.0585.4063.0937-.1251.66-.3146,1.3337-.6875,1.9375 .3779,1.1414 1.3792,1.4972 1.9375,1.0938 .3429-.602.4784-1.3908.5-2.1875 .0633.0376.1169.0888.1875.125 .3268-.7449.4042-1.6823.3438-2.625 .3563-1.1088.272-2.5113-.0312-3.8438 .2194-1.3109-.0147-2.884-.5-4.3438 .1133-1.8794-.6169-4.106-1.5938-5.9688l.125.0312c.0437-2.3017-1.1516-5.1036-2.5625-7.25-.4505-1.8997-1.4954-3.8909-2.6875-5.5938-.6274-2.2734-2.132-4.6234-3.75-6.5625-1.0123-2.3346-2.7602-4.6688-4.5938-6.5-1.1456-1.9267-2.7422-3.7751-4.4063-5.3125-1.0067-1.5104-2.3266-2.9608-3.75-4.25-1.4218-2.4076-3.5677-4.7352-5.8125-6.5938-1.5172-1.7859-3.5231-3.3822-5.625-4.7188 .0787-.0694.1404-.1411.2188-.2188-2.1976-2.1902-5.2129-3.9299-8.25-5.1563 .0836-.1177.1702-.2424.25-.375-3.0744-2.1738-7.0866-3.4762-10.8125-4.0625l.375-1.0625c-7.6548-4.1234-17.5332-8.2281-27.6875-11.7188 4.1245-.367 10.3435-.9822 11.125-1.6563 .0781-.0936.1405-.1779.1875-.2813 .4627-.0433 1.0501-.0704 1.25-.25 .366.2581 3.0792,1.2604 3.1875.5938-.4545-.5773-1.8513-.9455-1.5-1.625 3.2799-1.8667 4.9826-4.3345 7.4063-4.0625 1.6737.1679 3.7791,5.2525 5.25,3.9688-1.3099-2.5482-2.4118-4.5359-2-4.9063 1.2102-1.0885 2.2799-.6643 4.1563.4375 1.7304.1999-2.3767-4.3129-6.4063-3.875-4.3227.5819-9.9073,3.9221-13.25,6.4375h-.0312c-2.9281-.3231-11.9436,1.4126-14,2.5313-.0276-.0787-.0714-.12-.0937-.125-.21-.1969-2.6469-.4002-5.5313-.5313-5.1367-1.636-10.1521-4.1844-14.8438-6.6875-1.3451-4.3742-2.9796-8.1714-4.875-11.5313-.1769-.3557-.3388-.7064-.5313-1.0625 12.8247-4.0019 34.6371-8.3404 57.2813-8.2813l.0312.0625c.0267-.0155.066-.0468.0937-.0625 2.5037.008 5.0196.0653 7.5313.1875l-.4375-2.5313c3.1396-.6391 6.8899-.9784 10.7188-.4688-.1108-.3008-.1739-.58-.25-.8438 2.6903.0577 5.6278.3907 8.5,1.2813-.0368-.3107-.0526-.5771-.0625-.8438 2.3414.4664 4.8166,1.2015 7.125,2.3438 .0284-.258.0527-.4648.0937-.6875 .8671.0595 2.0061.2522 3.3438.5625 1.4129.736 2.8032,1.5954 4.0625,2.625 .2004-.4483.3876-.8031.5938-1.125 1.8396.7532 3.7124,1.7101 5.375,2.9688 .2342-.6021.4948-1.0566.75-1.4375 2.0205.9586 4.1368,2.2141 5.875,3.875 .3791-.6634.7313-1.1091 1.0938-1.4688 1.7917,1.0219 3.6031,2.3517 5.0625,4 .3784-.5296.7532-.9225 1.0938-1.2188 1.6661,1.0887 3.3811,2.5007 4.6563,4.2188 .3762-.4299.7062-.7572 1.0313-1 1.555,1.1439 3.1809,2.671 4.2813,4.4688 .482-.4547.8941-.7572 1.2813-.9688 1.3922,1.1661 2.832,2.6964 3.7188,4.5 .307-.24.5854-.3854.8438-.5313 .6254.5486 1.3042,1.2149 1.9063,1.9688l-.0312.0312c.0213.0134.0404.0481.0625.0625 .6847.8688 1.3181,1.8156 1.7188,2.875 .3134-.2027.5872-.3218.8438-.4375 .1877.2397.3552.4878.5313.75l-.0312.0312c.0249.0185.0675.042.0937.0625 .5435.826 1.0169,1.7687 1.2813,2.75 .294-.1559.5439-.2894.7813-.375 .053.0827.1047.1646.1563.25l-.0937.0625c.0874.0764.2094.2349.3125.3438 .4251.7804.7889,1.6544.9375,2.5625 .181-.0774.3136-.1052.4688-.1563 .1368.161.2824.3187.4375.5625 .202.5689.3385,1.1947.375,1.8125 .1593-.0533.2701-.06.4063-.0937 .2061.6305.3446,1.3323.3125,2.0313 .8848.8146 1.9268.6239 2.2188,0 .007-.6889-.2604-1.4216-.625-2.125h.2188c-.0765-.8125-.4553-1.672-.9688-2.4688h.0312c-.2238-1.1247-.9818-2.2744-1.875-3.2813-.4294-1.2568-1.4287-2.5136-2.5625-3.5625-.8078-1.7087-2.5433-3.3396-4.3125-4.5l.0937-.0312c-1.0821-2.0369-3.4702-3.9034-5.75-5.0938-1.327-1.449-3.214-2.6849-5.0938-3.5938-1.6656-1.6805-4.1111-3.0663-6.4688-3.9688-2.0009-1.5208-4.6346-2.6384-7.0938-3.3438-1.9368-1.1352-4.2289-1.9598-6.4375-2.5-1.6124-.8367-3.4384-1.4672-5.3125-1.9063-2.4316-1.44-5.4746-2.431-8.375-2.9688-2.1896-.8174-4.7094-1.2293-7.1875-1.375 .0359-.1008.0623-.2044.0937-.3125-2.9807-.8455-6.441-.8705-9.6875-.4688 .0174-.1515.0256-.3047.0312-.4688-3.7464-.4068-7.8941.4192-11.4375,1.7188l-.1875-1.1563c-19.2554.2543-49.0357,6.1203-65.9375,12.75-10.6919-15.404-34.3523-29.9153-53.7813-29.6563-4.7922.0639-9.3272,1.0271-13.3438,3.0938-1.0333.5049-2.0156,1.0848-2.9375,1.7188-2.5328-2.1218-4.8268-3.9634-6.5938-5.25l-.0312-.0312c-1.1861-1.348-2.6921-2.2396-4.2813-2.25-.6357-.004-1.2965.1296-1.9375.4375-2.7157,1.3042-7.5587,5.8347-12.8438,11.375-4.227-2.1882-8.8218-3.7885-13.5938-4.1563-18.0303-1.3896-45.881,11.793-46.625,31.125-2.905-.1134-6.1119.0728-9.5938.6563-3.5762-10.9417-14.9232-38.733-20.2188-43.9062-.6953-.6792-1.4884-1.0492-2.3438-1.1875-.1116-.4248-.3373-.7243-.75-.75zm-6.0313,15.75c3.4727,9.639 10.8725,25.3387 16.2813,34.0625-11.0583,6.3373-17.2185,24.3684-16.875,36.1563-.8787.2059-1.7629.4505-2.7188.7813-1.9717.6824-4.0289,1.8837-6.0313,3.4375-3.6054-10.4199-9.0095-21.9099-15.5313-32.2188 8.5954-14.6981 18.2562-31.3789 20-34.125 1-1.5748 2.9141-4.794 4.875-8.0938zm118.5938,3.9375c.5736.5641 1.2843,1.2148 1.9063,1.8125-.2887,1.3298-.6638,2.7403-1.0625,4.2188-.6954,2.0815-1.5176,4.2707-2.3125,6.5-1.3512-1.4197-2.934-3-4.8125-4.6875 2.6284-3.0132 4.8172-5.738 6.2813-7.8438zm-166.0938,32.1875c2.5077,3.9375 4.7921,7.8941 6.9375,11.8125-.3271.5533-.6605,1.1209-.9688,1.6563-2.5934-1.4262-5.2615-2.4755-7.9688-3.1875 .7301-3.6223 1.4191-7.1091 2-10.2813z" fill="#1a1a1a" fill-opacity=".531" filter="url(#ci)" opacity=".97"/>
  <g transform="translate(36.81 284.23)">
   <g transform="matrix(.96931 .12482 -.14586 .82949 38.612 15.257)">
    <path d="m23.7188,398.8438c-4.8185,2.6001-5.6909,10.6647-3.9375,9.125 1.1806-2.635 2.0237-3.9193 4.25-3.6563 .7576.0895 1.1571,3.1261 1.7813,6.9063 2.674.2769.8771-6.8822 2.5938-8.3438 2.4622-2.1479 6.3413-.7428 11.4929-1.2117 .9422.4729-.3034,1.9223-.3367,2.8992 .6627.6446 2.8779-2.5118 3.0729-3.0728 .5558.0655 1.7555-.9261 2.2744-.9864 .5135-.8733.7042-3.2113-.9721-4.7603-5.7354-.2224-14.8689.3885-20.219,3.1008z" fill="url(#ak)" stroke="url(#bu)" stroke-width=".2"/>
    <path d="m61.4967,387.8021c-3.267.1474-18.4909,6.9047-18.5592,8.9166-.1939.1499-.3465,3.7106 1.7188,4.25 1.6307.1596 11.3839-5.4185 15.8196-7.9304 1.2734-.1378-.1069,1.1089.1282,2.5374 2.4723-3.1441 2.191-3.4208 2.7501-4.6314 .2887-.8405-1.2452-2.8391-1.8574-3.1422z" fill="url(#aj)"/>
    <path d="m77.9063,375.1875c-.6393-.2151-16.5059,11.4623-16.6875,12.4063-.1654.1809 1.5662,3.4719 2.5625,3.2813 1.0956-.2985 9.735-6.5927 14.2813-10.1563l.0313.125c1.1583.4074.6022,3.9585 1.2813,5.3125 1.1973-2.1794.2984-6.4819 1.5-7.8438 .9111-.6723-.3478-3.2604-2.9688-3.125z" fill="url(#ai)"/>
    <path d="m120.31 312.16c-1.0953 0.6787-40.879 60.04-42.188 62.375-0.3793 0.7797 1.3059 4.707 4.4063 3.1563 3.0738-2.2443 30.904-41.274 40.625-55.156 2.7044-0.6361 4.8893 1.2239 8.9331 15.019 0.8175-9.7177-1.6091-21.06-4.0267-20.726-0.8648-2.5463-6.5703-3.7059-7.7501-4.6673z" fill="url(#ah)"/>
    <path d="m170.04 256.1c-3.2636 4.8083-26.796 43.37-38.876 62.452-5.7156 9.0282-19.363 2.8247-14.154-6.3586 12.259-21.61 43.374-60.186 46.209-64.425s14.672-19.772 18.982-21.339c5.1551-3.0684 3.3344 4.1759 2.811 5.5306-0.7804 2.0199-11.62 19.202-14.971 24.141z" fill="url(#ag)"/>
   </g>
   <path d="m253.14 248.46c3.4275 5.0046-12.855 21.148-16.071 16.999-10.704-13.812-31.942-30.403-51.175-29.902-2.982 0.0778-1.7107-11.51 1.2287-12.118 18.417-3.8094 54.365 8.0058 66.017 25.02z" fill="url(#al)"/>
   <g transform="translate(2.4976 124.88)">
    <path d="m181.0702,197.3673c-4.8185,2.6001-5.6909,10.6647-3.9375,9.125 1.1806-2.635 2.0237-3.9193 4.25-3.6563 .7576.0895 1.1571,3.1261 1.7813,6.9063 2.674.2769.8771-6.8822 2.5938-8.3438 2.4623-2.1479 6.3413-.7428 11.4929-1.2117 .9422.4729-.3034,1.9223-.3367,2.8992 .6627.6446 2.8779-2.5118 3.073-3.0728 .5558.0655 1.7555-.9261 2.2744-.9864 .5134-.8733.7042-3.2113-.9721-4.7603-5.7354-.2224-14.8689.3885-20.219,3.1008z" fill="url(#k)" stroke="url(#ad)" stroke-width=".2"/>
    <path d="m218.8482,186.3257c-3.267.1474-18.4909,6.9047-18.5592,8.9166-.1939.1499-.3465,3.7106 1.7188,4.25 1.6307.1596 11.3839-5.4185 15.8196-7.9304 1.2734-.1378-.1069,1.1089.1282,2.5374 2.4723-3.1441 2.191-3.4208 2.7501-4.6314 .2887-.8405-1.2452-2.8391-1.8574-3.1422z" fill="url(#j)"/>
    <path d="m235.2577,173.711c-.6393-.2151-16.5059,11.4623-16.6875,12.4063-.1654.1809 1.5662,3.4719 2.5625,3.2813 1.0956-.2985 9.735-6.5927 14.2813-10.1563l.0312.125c1.1583.4074.6022,3.9585 1.2813,5.3125 1.1973-2.1794.2984-6.4819 1.5-7.8438 .9112-.6723-.3478-3.2604-2.9688-3.125z" fill="url(#i)"/>
    <path d="m277.66 110.68c-1.0953 0.6787-40.879 60.04-42.188 62.375-0.3793 0.7797 1.3059 4.707 4.4063 3.1563 3.0738-2.2443 30.904-41.274 40.625-55.156 2.7044-0.6361 4.8893 1.2239 8.9331 15.019 0.8175-9.7177-1.6091-21.06-4.0267-20.726-0.8648-2.5463-6.5703-3.7059-7.7501-4.6673z" fill="url(#h)"/>
   </g>
   <path d="m316.91 191.01c-2.4068 3.7902-19.895 34.133-28.848 49.157-4.236 7.1082-13.393 2.5782-9.4995-4.64 9.1632-16.986 31.859-47.493 33.951-50.833s10.757-15.611 13.77-16.911c3.6456-2.4806 2.1456 3.1673 1.7395 4.2272-0.6055 1.5803-8.641 15.108-11.113 19z" fill="url(#bk)"/>
   <path d="m351.89 215.4c1.3386 4.8185-6.404 11.394-10.86 5.8468-6.3401-7.8917-19.483-36.035-21.031-44.302-1.0464-5.5906 6.8568-11.805 10.926-7.8294 5.7358 5.6033 18.598 37.768 20.965 46.285z" fill="url(#bl)"/>
   <g transform="matrix(.72628 .6874 -.6874 .72628 252.33 -222.1)">
    <g transform="matrix(-.14605 .71298 .73916 .13366 417.43 -53.754)">
     <path d="m181.0702,197.3673c-4.8185,2.6001-5.6909,10.6647-3.9375,9.125 1.1806-2.635 2.0237-3.9193 4.25-3.6563 .7576.0895 1.1571,3.1261 1.7813,6.9063 2.674.2769.8771-6.8822 2.5938-8.3438 2.4623-2.1479 6.3413-.7428 11.4929-1.2117 .9422.4729-.3034,1.9223-.3367,2.8992 .6627.6446 2.8779-2.5118 3.073-3.0728 .5558.0655 1.7555-.9261 2.2744-.9864 .5134-.8733.7042-3.2113-.9721-4.7603-5.7354-.2224-14.8689.3885-20.219,3.1008z" fill="url(#k)" stroke="url(#ad)" stroke-width=".2"/>
     <path d="m218.8482,186.3257c-3.267.1474-18.4909,6.9047-18.5592,8.9166-.1939.1499-.3465,3.7106 1.7188,4.25 1.6307.1596 11.3839-5.4185 15.8196-7.9304 1.2734-.1378-.1069,1.1089.1282,2.5374 2.4723-3.1441 2.191-3.4208 2.7501-4.6314 .2887-.8405-1.2452-2.8391-1.8574-3.1422z" fill="url(#j)"/>
     <path d="m235.2577,173.711c-.6393-.2151-16.5059,11.4623-16.6875,12.4063-.1654.1809 1.5662,3.4719 2.5625,3.2813 1.0956-.2985 9.735-6.5927 14.2813-10.1563l.0312.125c1.1583.4074.6022,3.9585 1.2813,5.3125 1.1973-2.1794.2984-6.4819 1.5-7.8438 .9112-.6723-.3478-3.2604-2.9688-3.125z" fill="url(#i)"/>
     <path d="m277.66 110.68c-1.0953 0.6787-40.879 60.04-42.188 62.375-0.3793 0.7797 1.3059 4.707 4.4063 3.1563 3.0738-2.2443 30.904-41.274 40.625-55.156 2.7044-0.6361 4.8893 1.2239 8.9331 15.019 0.8175-9.7177-1.6091-21.06-4.0267-20.726-0.8648-2.5463-6.5703-3.7059-7.7501-4.6673z" fill="url(#h)"/>
    </g>
    <path d="m461.756,167.331c5.7763.0976 5.1192-8.9846-.6426-9.3938 .2587.3201-52.5376.4308-55.2921,3.027-2.5686,1.6147.1033,5.2264.9071,5.4125 2.5546,2.6989 36.688.6212 55.0275.9543z" fill="url(#bc)"/>
   </g>
   <path d="m399.12 211.14c-2.8112 4.136 2.4178 12.844 8.4157 9.0169 8.5336-5.4456 29.997-27.897 34.111-35.234 2.7817-4.961-2.7151-13.379-7.8435-10.916-7.2282 3.4713-29.714 29.822-34.684 37.133z" fill="url(#bd)"/>
  </g>
  <g transform="translate(36.81 284.23)">
   <path d="m364.02 259.55c5.41 5.6318-4.0076 35.104-14.216 31.248s-6.8496-24.177-6.2267-27.104c4.8521-4.6756 13.638-7.226 20.442-4.1445z" fill="url(#ap)"/>
   <path d="m412.46 241.1c2.4177 11.466-18.297 32.691-32.578 32.649s2.8077-34.879 5.4817-38.217c2.9476-2.0205 20.263-11.598 27.096 5.5682z" fill="url(#ao)"/>
  </g>
  <g transform="translate(36.81 284.23)">
   <path d="m338.72 258.56c3.182 3.2904 4.7381 17.262-1.4119 26.229s-27.733 9.7389-35.91 1.7672 5.78-28.749 17.067-32.655 17.073 1.3684 20.255 4.6587z" fill="url(#bp)"/>
   <path d="m375.28 217.29c4.6972 4.8572 5.3155 27.497 0.266 37.04s-45.747 16.06-52.112 7.4278 1.0288-40.432 17.691-46.199 29.458-3.1265 34.155 1.7308z" fill="url(#br)"/>
   <path transform="matrix(1 0 0 1.383 0 -87.156)" d="m442.79 210.35c-6.317 10.006-15.037 18.558-31.286 27.84-4.9861 2.1959-28.23-7.048-50.76-20.454-0.816-14.617 28.078-24.718 46.61-23.686 17.579 0.9796 32.882 13.967 35.436 16.299z" fill="url(#bq)"/>
  </g>
  <g transform="translate(36.81 284.23)">
   <path d="m254.31 343.82c-2.5091 4.6677-33.786 19.208-33.786 19.208-14.44 2.8515-37.502-27.933-31.201-51.609 9.3225 11.231 37.423 32.986 64.987 32.401z" fill="url(#ce)" stroke="url(#cd)"/>
   <path d="m256.52 342.16c-4.742 6.0221-48.874-3.2706-67.748-26.603-6.042-1.1784 7.8638-50.468 14.323-43.089 6.9764 7.9698 55.607 47.544 70.384 54.045 3.0198 1.3287-15.271 15.52-16.959 15.646z" fill="url(#cc)" stroke="url(#cb)"/>
   <path d="m273.05 329.04c-29.32-9.5056-51.48-27.712-75.667-51.704-5.432 1.2052 13.85-30.421 29.842-34.879 13.11-3.6542 67.306 46.178 63.587 67.126-1.6773 9.4474-14.378 19.479-17.762 19.456z" fill="url(#ca)" stroke="url(#bz)"/>
   <path d="m289.1 314.83c-15.51-26.558-39.21-48.828-65.263-70.78-2.6873-2.4172 43.76-34.555 68.992-0.2923 26.673 36.22-0.3533 70.82-3.729 71.072z" fill="url(#cg)" stroke="url(#cf)"/>
  </g>
  <g transform="translate(36.81 284.23)">
   <g transform="matrix(.97882 -.20474 .20474 .97882 -123.22 46.789)">
    <path d="m217.6465,426.4827c-5.1244,1.9285-7.0734,9.8025-5.1288,8.5126 1.5242-2.4523 2.5324-3.6116 4.7031-3.0515 .7386.1906.7261,3.2533.8363,7.0831 2.6124.634 1.7947-6.7017 3.6922-7.9192 2.7287-1.7972 6.3835.1168 11.5515.3449 .8701.5953-.5591,1.8641-.7235,2.8276 .57.7278 3.1895-2.102 3.4583-2.6317 .542.1397 1.8641-.6816 2.3864-.6716 .6262-.7963 1.1296-3.0874-.3231-4.8478-5.6534-.9917-14.7861-1.6146-20.4524.3536z" fill="url(#bi)" stroke="url(#bx)" stroke-width=".2"/>
    <path d="m255.226,417.7518c-3.267.1474-18.4909,6.9047-18.5592,8.9166-.1939.1499-.3465,3.7106 1.7188,4.25 1.6307.1596 11.3839-5.4185 15.8196-7.9304 1.2734-.1378-.1069,1.1089.1282,2.5374 2.4723-3.1441 2.191-3.4208 2.7501-4.6314 .2887-.8405-1.2452-2.8391-1.8574-3.1422z" fill="url(#bh)"/>
    <path d="m269.4628,405.0543c-.6518-.1735-15.7351,12.4995-15.8556,13.4531-.1534.1911 1.7861,3.3641 2.7681,3.1098 1.0741-.3683 9.2912-7.2047 13.599-11.0531l.0392.1227c1.1821.3321.8553,3.9116 1.62,5.2192 1.0547-2.2518-.1188-6.4877.9928-7.9239 .866-.7294-.5567-3.2313-3.1635-2.9277z" fill="url(#bg)"/>
    <path d="m301.01 337.32c-12.46 33.545-31.426 63.391-32.412 67.366-0.2238 0.8377 1.622 5.8896 4.37 3.7764 4.4186-2.4753 26.303-45.75 29.368-61.888 2.5336-1.1399 5.033 0.2696 11.632 13.041-1.0496-9.6954-3.4063-18.038-6.9109-18.569 0.6889-1.7779-4.7054-3.007-6.0469-3.7259z" fill="url(#bf)"/>
   </g>
   <path d="m270.06 239.91c-1.3272 5.6577-9.5045 50.086-13.958 72.227-2.107 10.476-18.814 9.5657-17.235-0.8736 3.7157-24.566 20.712-71.721 21.842-76.693s6.6267-23.713 10.09-26.718c3.7159-4.7098 4.6078 2.7064 4.6037 4.1587-6e-3 2.1654-3.98 22.089-5.343 27.899z" fill="url(#bj)"/>
   <path d="m314.58 264.06c2.9562 10.516-3.8887 27.816-8.1535 24.756-3.5665-2.5593-12.113-41.226-36.309-76.029-4.0021-5.7566 6.2645-11.772 9.4594-8.9206 15.727 14.036 29.422 40.342 35.003 60.194z" fill="url(#be)"/>
   <path d="m366.62 286.23c-0.9955 9.5596-11.784 15.574-17.487 10.918-5.5476-4.529-3.0764-37.534 2.5948-71.936 0.9985-6.0573 12.54-4.8434 13.346-1.1195 4.664 21.547 2.8562 49.556 1.546 62.138z" fill="url(#av)"/>
   <g transform="matrix(.90981 .41502 -.41502 .90981 181.37 -112.35)">
    <path d="m383.1557,393.1925c3.4475,3.0416 1.9324,9.138.8451,7.5978-.2818-2.2043-.6514-3.3422-2.6568-3.6781-.6824-.1143-1.8844,2.0086-3.4908,4.6212-2.3976-.4319 1.1779-5.234.1005-6.7085-1.5309-2.1525-5.2917-2.0463-9.6285-3.6105-.9506.1219-.2784,1.4758-.5247,2.1971-.7564.3136-1.7889-2.5169-1.8001-2.9729-.5006-.084-1.262-1.0926-1.6952-1.2598-.1994-.7595.2938-2.5122 2.1843-3.2459 5.038,1.1978 12.789,3.81 16.6661,7.0597z" fill="url(#as)" stroke="url(#bv)" stroke-width=".1674"/>
    <path d="m355.7317,374.6307c2.6262,1.1906 12.4614,10.9379 11.7212,12.3524 .1001.1683-1.184,2.6824-3.0945,2.3673-1.4032-.433-7.2097-7.5416-9.8603-10.7573-.9918-.5196-.3511.8027-1.1096,1.7126-.7871-2.9988-.4464-3.0965-.4266-4.1203 .0955-.6776 2.1469-1.5491 2.7699-1.5547z" fill="url(#ar)"/>
    <path d="m349.0588,361.103c.6043.0971 7.9824,13.8899 7.704,14.5898 .0504.1833-2.7992,1.732-3.5055,1.2289-.7369-.6127-4.783-8.08-6.7996-12.1776l-.0808.0718c-1.1028-.1641-2.2511,2.4209-3.397,3.0706 .0246-1.9092 2.6655-4.4484 2.3206-5.8123-.4229-.7932 1.7364-2.0498 3.7583-.9712z" fill="url(#aq)"/>
   </g>
   <path d="m356.21 305.22c-5.5966 26.95-4.3769 54.152-5.426 57.145-0.2086 0.6373-3.98 3.1737-5.1718 0.6731-2.34-3.4198 0.3089-40.564 5.3062-52.331-1.47-1.7788-4.0835-1.8828-15.138 3.739 5.2768-5.8873 10.961-10.359 13.962-9.2714 0.2742-1.4401 5.0824-0.0346 6.4679 0.0456z" fill="url(#at)"/>
   <path d="m349.16 304.64c0.3772 8.1992 8.8268 9.2782 9.717 1.206 0.7996-6.366 4.4405-66.714 1.4519-79.882-2.2576-4.196-6.4367-0.5971-6.7515 0.4861-2.2375 3.968-4.0575 69.962-4.4175 78.189z" fill="url(#au)"/>
   <path d="m482.8273,310.5899c3.206,1.2542 4.6653,6.601 3.43,5.7444-1.0168-1.6543-1.6737-2.4329-2.9855-2.0251-.4464.1387-.3358,2.2273-.2746,4.8404-1.5801.4635-1.3253-4.5491-2.5294-5.3567-1.7331-1.1932-3.9091.1556-7.0692.3726-.5133.4163.4054,1.2646.5385,1.9197-.3249.5031-2.0257-1.3955-2.2083-1.7536-.3275.1017-1.1655-.4426-1.4854-.4296-.4106-.5356-.7962-2.0921.0351-3.31 3.4321-.7435 9.0093-1.277 12.5488-.002z" fill="url(#aw)" stroke="url(#bw)" stroke-width=".1294"/>
   <path d="m458.7733,307.0557c1.9867-.2388 11.9472,2.7412 12.2212,4.0906 .1343.081.6384,2.4658-.5444,3.0432-.9647.2764-7.4904-2.4748-10.4554-3.7092-.7837.0389.1928.7366.2164,1.7239-1.8544-1.8638-1.7168-2.0795-2.194-2.8378-.2713-.5368.4221-2.0429.7561-2.3106z" fill="url(#ax)"/>
   <path d="m447.2012,300.6476c.3811-.2398 12.3721,5.9732 12.6299,6.6235 .1338.107-.4955,2.6926-1.1677,2.6903-.7524-.066-7.272-3.4031-10.7402-5.3388l-.001.0936c-.6879.4471.1999,2.9106-.0374,3.9699-1.098-1.3968-1.1574-4.5933-2.1366-5.4052-.6888-.358-.2604-2.3774 1.4534-2.6332z" fill="url(#ay)"/>
   <path d="m433.98 260.94c0.536 0.518 14.124 39.104 14.506 40.591 0.0933 0.4897-1.5738 2.5246-3.1538 1.2694-1.4467-1.6471-11.375-27.218-14.801-36.292-1.4997-0.6867-3.1135 0.1108-7.8546 7.4838 1.1607-5.6336 4.5251-11.804 5.9055-11.324 0.9455-1.3467 4.5332-1.323 5.3974-1.7291z" fill="url(#az)"/>
   <path d="m409.01 239.26c2.0573 3.9102 11.447 23.065 23.28 37.282 5.2199 6.2721 10.352 2.6566 7.1153-4.7841-7.6166-17.51-24.372-48.586-26.157-52.032s-9.7327-16.432-12.599-17.793c-3.3917-2.5774-2.0433 3.188-2.0756 4.3222-0.0675 2.3719 8.3238 28.989 10.437 33.005z" fill="url(#ba)"/>
   <path d="m376.17 259.34c1.1959 12.287 17.105 8.7169 17.532-1.8399 0.8316-20.58-2.3265-29.496 8.0994-50.863 3.3566-6.8793-7.4943-8.408-11.006-5.6074-12.538 9.999-17.73 26.412-14.625 58.311z" fill="url(#bb)"/>
  </g>
  <g transform="translate(36.81 284.23)">
   <use transform="matrix(.10538 .87392 .87946 .03455 246.42 -214.49)" width="746.6433" height="495.4198" xlink:href="#bt"/>
   <g transform="matrix(.87405 -.48583 .48583 .87405 -85.236 201.34)" stroke="url(#l)" stroke-width=".8503">
    <g transform="matrix(1.0578 .80318 -.64388 .8834 17.106 -250.56)">
     <path d="m662.0967,120.8078c.9653.3189 2.6694,2.2791 2.8352,4.0644-.1608.6029-.9156.9077-1.6519.285-.1127-1.7806-1.1544-3.3529-1.68-3.8537z" fill="url(#ab)"/>
     <path d="m660.7377,118.5619c1.1544.2725 3.3342,2.3774 3.7084,4.4355-.6025.1293-.9685-.0578-1.8909.4992-.312-2.058-1.6827-3.7795-2.3444-4.308z" fill="url(#aa)"/>
     <path d="m658.836,116.2082c1.3414.1952 4.0328,2.3745 4.6638,4.6804-.6731.2072-1.1084.0307-2.1031.7567-.5603-2.3119-2.2922-4.1354-3.0982-4.6712z" fill="url(#z)"/>
     <path d="m656.1708,113.4961c1.5225.0873 4.7525,2.2658 5.6858,4.7882-.7341.2982-1.2392.1431-2.2828,1.0542-.8546-2.5361-2.9744-4.4098-3.9302-4.9313z" fill="url(#y)"/>
     <path d="m652.9172,110.7166c1.6936-.0508 5.4799,2.0477 6.7572,4.7493-.7836.4012-1.3577.2784-2.4247,1.388-1.1915-2.7244-3.7193-4.5931-4.8278-5.0778z" fill="url(#x)"/>
     <path d="m648.1413,107.1433c1.851-.2181 6.2013,1.7186 7.8599,4.5566-.8203.5147-1.4611.4352-2.524,1.7535-1.5669-2.8712-4.516-4.6766-5.7772-5.1015z" fill="url(#w)"/>
     <path d="m643.0147,104.5265c1.9909-.413 6.9027,1.278 8.9751,4.2046-.8425.6374-1.5465.6119-2.5762,2.1455-1.9758-2.9713-5.3525-4.653-6.7635-4.9947z" fill="url(#v)"/>
     <path d="m637.6196,102.1743c2.1096-.6337 7.5701.7275 10.083,3.6902-.849.7674-1.6113.8064-2.5777,2.5587-2.4129-3.0201-6.2158-4.5162-7.7708-4.7518z" fill="url(#u)"/>
     <path d="m631.928,100.4561c2.2038-.8778 8.1897.07 11.1637,3.0126-.8388.903-1.6529,1.0164-2.5252,2.987-2.8721-3.0136-7.0923-4.2617-8.7828-4.3685z" fill="url(#t)"/>
     <path d="m625.93 99.379c2.2702-1.1428 8.7478-0.6901 12.197 2.173-0.811 1.0421-1.6693 1.2392-2.4164 3.424-3.3469-2.9484-7.968-3.8864-9.7822-3.8426z" fill="url(#s)"/>
     <path d="m619.45 98.987c2.2513-1.5104 9.1672-1.8899 13.197 0.6831-0.7202 1.2105-1.6025 1.5328-2.1036 3.9443-3.9332-2.6769-8.9485-3.0572-10.863-2.7703z" fill="url(#r)"/>
    </g>
    <path d="m604.28 328.83c3.5671 0.6432 11.415 6.4647 13.95 12.379-1.6719 0.4507-2.8731-0.0447-5.1816 1.6855-2.3523-5.9221-7.5654-10.735-9.8706-12.183z" fill="url(#q)"/>
    <path d="m595.19 324.27c3.6502-0.2497 12.933 3.9428 17.077 9.6386-1.4973 0.9265-2.8057 0.7105-4.5583 3.1819-3.9688-5.7518-10.404-9.5551-13.056-10.504z" fill="url(#p)"/>
    <path d="m587.07 321c3.5911-0.9813 13.738 1.7133 19.07 7.0278-1.3001 1.2883-2.6513 1.3118-3.8817 4.3111-5.17-5.4088-12.392-8.2412-15.239-8.7434z" fill="url(#o)"/>
    <path d="m577.69 318.97c3.3316-1.8055 13.979-1.0456 20.454 3.533-0.9953 1.6541-2.3271 1.9626-2.8674 5.4361-6.3359-4.7138-14.121-6.235-17.05-6.1762z" fill="url(#n)"/>
    <path d="m515.14 295.85c15.615-0.4664 52.487 10.687 72.568 21.504l-2.8968 8.2128c-25.916-16.101-56.337-24.582-68.37-25.738z" fill="url(#m)"/>
   </g>
   <path d="m501.29 256.85c-13.311 4.7487-49.768-11.436-59.519-29.094-14.204-14.571 1.4499-31.863 1.1938-43.412 11.212-12.804 38.732-10.158 61.903 9.3875 10.248 8.6449 19.775 19.594 22.58 42.412 0.8053 6.5495-15.769 3.6256-26.157 20.706z" fill="url(#bn)" stroke="url(#by)" stroke-width=".8503"/>
   <path transform="matrix(1.3238 .75847 -.79821 1.2579 27.53 -436.85)" d="m500.76 242.03c0 4.9781-7.7722 9.0137-17.36 9.0137s-17.36-4.0356-17.36-9.0137 7.7722-9.0137 17.36-9.0137 17.36 4.0356 17.36 9.0137z" fill="url(#an)"/>
   <g opacity=".63">
    <path d="m444.09 225.55c-6.6995 0.6286-8.514-6.77-7.5049-16.019 0.3935-3.6069 5.9881-18.68 6.3788-25.193 21.138-22.193 69.816 5.9883 78.232 30.094-7.3874 6.9424-33.785-13.245-46.497-10.998s-5.8041 18.52-30.608 22.117z" fill="url(#bm)"/>
   </g>
   <path transform="matrix(.94163 -.5971 .5971 .94163 -99.942 292.24)" d="m478.81 217.34c0 6.4257-3.6695 12.832-8.3586 12.832s-8.622-6.4058-8.622-12.832 2.8059-11.821 7.495-11.821 9.4856 5.395 9.4856 11.821z" fill="url(#bo)"/>
   <path id="bt" d="m539.5 269.54c-7.9683 14.507-36.536-0.4663-41.945-14.401 1.5392-6.6494 15.688-12.8 16.078-8.9559 0.1049 1.0351-3.4963 5.2724-1.4909 4.3356 2.5353-1.1844-1.2996 6.9889 1.0769 5.4626 2.0624-1.3245 0.3535 5.1435 2.4593 3.5455 1.9148-1.4531 1.1458 4.1348 2.544 3.1603 2.153-1.5007 0.9181 4.9621 2.9063 3.0736 1.9766-1.8775 1.9151 4.4856 3.2685 2.6751 1.5525-2.0768 2.623 3.154 3.6082 1.754 1.8495-2.6282 4.5207 2.1713 5.1189 0.5037s6.7958-3.0665 6.3756-1.1535z" fill="url(#bs)" stroke="url(#ch)" stroke-width=".8503"/>
   <path d="m510.2227,215.3331c1.0778,2.704.0526,5.5642-2.2898,6.3885s-5.1151-.6995-6.1929-3.4035-.0526-5.5642 2.2898-6.3885 5.115.6995 6.1928,3.4035z" fill="url(#am)"/>
   <g transform="translate(-10.342 -73.141)" stroke="url(#l)" stroke-width=".8503">
    <g transform="matrix(1.0578 .80318 -.64388 .8834 17.106 -250.56)">
     <path d="m662.0967,120.8078c.9653.3189 2.6694,2.2791 2.8352,4.0644-.1608.6029-.9156.9077-1.6519.285-.1127-1.7806-1.1544-3.3529-1.68-3.8537z" fill="url(#ab)"/>
     <path d="m660.7377,118.5619c1.1544.2725 3.3342,2.3774 3.7084,4.4355-.6025.1293-.9685-.0578-1.8909.4992-.312-2.058-1.6827-3.7795-2.3444-4.308z" fill="url(#aa)"/>
     <path d="m658.836,116.2082c1.3414.1952 4.0328,2.3745 4.6638,4.6804-.6731.2072-1.1084.0307-2.1031.7567-.5603-2.3119-2.2922-4.1354-3.0982-4.6712z" fill="url(#z)"/>
     <path d="m656.1708,113.4961c1.5225.0873 4.7525,2.2658 5.6858,4.7882-.7341.2982-1.2392.1431-2.2828,1.0542-.8546-2.5361-2.9744-4.4098-3.9302-4.9313z" fill="url(#y)"/>
     <path d="m652.9172,110.7166c1.6936-.0508 5.4799,2.0477 6.7572,4.7493-.7836.4012-1.3577.2784-2.4247,1.388-1.1915-2.7244-3.7193-4.5931-4.8278-5.0778z" fill="url(#x)"/>
     <path d="m648.1413,107.1433c1.851-.2181 6.2013,1.7186 7.8599,4.5566-.8203.5147-1.4611.4352-2.524,1.7535-1.5669-2.8712-4.516-4.6766-5.7772-5.1015z" fill="url(#w)"/>
     <path d="m643.0147,104.5265c1.9909-.413 6.9027,1.278 8.9751,4.2046-.8425.6374-1.5465.6119-2.5762,2.1455-1.9758-2.9713-5.3525-4.653-6.7635-4.9947z" fill="url(#v)"/>
     <path d="m637.6196,102.1743c2.1096-.6337 7.5701.7275 10.083,3.6902-.849.7674-1.6113.8064-2.5777,2.5587-2.4129-3.0201-6.2158-4.5162-7.7708-4.7518z" fill="url(#u)"/>
     <path d="m631.928,100.4561c2.2038-.8778 8.1897.07 11.1637,3.0126-.8388.903-1.6529,1.0164-2.5252,2.987-2.8721-3.0136-7.0923-4.2617-8.7828-4.3685z" fill="url(#t)"/>
     <path d="m625.93 99.379c2.2702-1.1428 8.7478-0.6901 12.197 2.173-0.811 1.0421-1.6693 1.2392-2.4164 3.424-3.3469-2.9484-7.968-3.8864-9.7822-3.8426z" fill="url(#s)"/>
     <path d="m619.45 98.987c2.2513-1.5104 9.1672-1.8899 13.197 0.6831-0.7202 1.2105-1.6025 1.5328-2.1036 3.9443-3.9332-2.6769-8.9485-3.0572-10.863-2.7703z" fill="url(#r)"/>
    </g>
    <path d="m604.28 328.83c3.5671 0.6432 11.415 6.4647 13.95 12.379-1.6719 0.4507-2.8731-0.0447-5.1816 1.6855-2.3523-5.9221-7.5654-10.735-9.8706-12.183z" fill="url(#q)"/>
    <path d="m595.19 324.27c3.6502-0.2497 12.933 3.9428 17.077 9.6386-1.4973 0.9265-2.8057 0.7105-4.5583 3.1819-3.9688-5.7518-10.404-9.5551-13.056-10.504z" fill="url(#p)"/>
    <path d="m587.07 321c3.5911-0.9813 13.738 1.7133 19.07 7.0278-1.3001 1.2883-2.6513 1.3118-3.8817 4.3111-5.17-5.4088-12.392-8.2412-15.239-8.7434z" fill="url(#o)"/>
    <path d="m577.69 318.97c3.3316-1.8055 13.979-1.0456 20.454 3.533-0.9953 1.6541-2.3271 1.9626-2.8674 5.4361-6.3359-4.7138-14.121-6.235-17.05-6.1762z" fill="url(#n)"/>
    <path d="m516.66 288.23c7.8077-0.2332 20.55 10.344 33.851 14.331s27.159 9.385 37.2 14.794l-2.8968 8.2128c-12.958-8.0506-27.042-14.196-39.391-18.473s-22.962-14.686-28.979-15.265c-1.6156-1.0898-1.2638-3.1422 0.2168-3.5992z" fill="url(#m)"/>
   </g>
  </g>
 </g>
</svg>
