<?xml version="1.0" encoding="UTF-8"?>
<svg enable-background="new 0 0 739.546 1657.898" version="1.1" viewBox="0 0 739.546 1657.898" xmlns="http://www.w3.org/2000/svg">
 <path d="m148.85 1626.1c-32.805-3.436-61.534 4.087-81.404-6.578-3.053-1.639-4.641-4.913-5.666-7.864-1.71-4.927-14.612-24.887-19.283-43.411-12.946-51.346-2.094-72.381 20.99-139.15 13.588-39.303 5.549-54.566 10.049-88.833 3.318-25.271 11.383-57.398 14.398-82.406 3.965-32.876 10.517-26.682 4.006-44.358-9.504-25.8 9.681-24.975 12.423-64.245 5.781-82.792-4.453-34.061-17.287-153.09-7.478-69.349-10.223-105.12-23.64-143.96-8.852-25.624-10.429-52.297-9.434-79.282 2.375-64.421 49.049-91.259 30.747-125.88-10.22-19.334-5.527-38.772 0.985-70.276 8.022-38.807-18.277-70.09-22.569-143.58-10.165-174.06 77.907-188.9 85.633-210.36 7.571-21.027 27.251-21.848 49.013-16.002 5.964 1.602 7.046 0.512 6.741-5.483-1.074-21.143-15.318-34.471-15.344-57.651-3e-3 -2.476-0.612-4.82-2.654-6.479-10.232-8.308 0.654-31.399 9.862-41.561 11.484-12.674 9.024-14.561 17.28-24.652 10.538-12.881-3.555-15.568 16.106-23.248 15.302-5.977 24.598 4.157 21.715-7.416-0.45-1.808-3.303-6.89 0.838-9.965 6.32-4.693 14.898 2.962 20.265 8.675 7.292 7.762 8.489-1.867 25.525-4.369 11.406-1.676 7.618 5.308 20.472 2.756 38.783-7.699 22.731 5.357 36.427 6.964 11.474 1.346 6.919 10.356 16.45 13.763 23.033 8.234 30.27 26.63 47.188 28.737 4.989 0.621 6.86 3.723 5.358 8.455-2.775 8.743 4.354 7.772 11.945 19.45 4.074 6.267 1.809 14.165-7.859 11.561-7.557-2.035-5.383-1.734 0.37 20.657 0.942 3.665 3.091 15.679-2.563 17.94-7.707 3.081-7.905-9.354-12.75-2.41-2.977 4.266-7.193 3.8-10.112-0.697-4.16-6.407-4.185-6.42-7.714 0.557-8.018 15.851-9.216 29.329 1.605 48.826 2.552 4.598 12.331 5.878 26.072-9.729 19.31-21.93 35.876-16.454 41.84-23.747 5.514-6.742 13.139-8.537 21.086-8.15 33.861 1.647 66.852 16.515 80.322 49.12 12.763 30.893 3.511 32.785 15.894 48.334 7.537 9.463 12.115-6.258 34.214 4.799 22.493 11.255 26.581-15.16 34.102-9.317 2.353 1.827-0.225 3.89-1.235 5.774-9.059 16.899-23.049 12.137-39.001 12.626-2.041 0.063-4.978 0.52-2.675 3.664 5.468 7.465 7.03 16.169 8.532 24.943 0.921 5.377 1.74 6.533 3.002 6.592 1.393 0.065 1.208-1.386 1.608-2.302 2.052-4.709 2.788-9.964 7.3-13.571 9.275-7.415 12.277 2.179 18.526-4.289 0.968-1.002 8.927-11.059 13.123-7.016 1.433 1.381 0.992 3.867-0.489 5.306-11.757 11.421-12.636 52.785-43.221 52.661-14.215-0.058 1.624 26.336 36.409-17.128 1.832-2.289 4.083-4.411 7.505-4.236 5.242 0.268 2.724 3.555-1.654 10.199-3.048 4.626-2.856 7.139 0.897 11.145 6.197 6.613 13.927 9.767 22.869 10.221 4.031 0.205 8.135-0.352 8.655 2.924 0.943 5.948-10.092 7.678-17.352 6.03-1.799-0.408-4.36-1.257-5.471 0.369-1.286 1.882 0.536 3.954 1.591 5.739 7.21 12.204 10.248 19.767 27.423 20.227 2.339 0.063 5.073-0.538 5.876 2.753 0.829 3.397-1.482 4.816-3.96 6.172-7.812 4.275-33-4.511-51.38 6.056-8.176 4.701-11.74 3.261-16.118-5.025-0.542-1.025-1.071-2.533-2.573-1.955-2.029 0.782-0.42 1.891 0.054 2.815 4.185 8.145 1.809 30.173 11.737 30.799 6.291 0.397 8.075-16.458 21.558-23.653 9.452-5.044 19.19 1.975 16.927 6.896-2.808 6.105-9.302-4.642-18.07 10.318-3.901 6.657-5.821 8.09-3.521 10.194 3.523 3.221 13.17-6.562 18.815-6.556 2.865 3e-3 3.657 1.339 2.842 3.563-5.137 14.004-11.174 23.143-27.223 24.368-2.179 0.166-5.501-0.059-5.712 2.077-0.252 2.559 3.236 2.692 5.267 3.157 15.057 3.441 21.453-5.015 32.573-14.326 7.971-6.675 14.046-3.474 8.497 2.507-4.68 5.046-8.611 10.798-14.342 14.862-24.049 17.052-38.805 3.157-65.658-5.942-9.873-3.345 2.103 8.665-14.407 34.871-10.314 16.372 9.571 18.404 7.94 31.259-0.468 3.688-2.838 5.088-5.798 2.941-2.259-1.639-2.283-0.786-2.289 1.215-0.032 11.247-4.778 20.626-11.707 29.096-8.04 9.827-1.957 16.135-8.297 16.841-6.109 0.68-8.409-7.977-5.589-14.462 8.216-18.891 14.404-16.748 3.134-37.084-1.164-2.101-2.703-2.712-3.71 0.626-1.815 6.017 1.578 11.989 2.68 15.232 2.584 7.605-0.595 12.763-8.516 13.816-1.535 0.204-14.808-0.851-12.075 11.648 0.713 3.259 4.209 13.402-5.876 10.882-35.706-8.922-19.873-20.119-36.519-27.973-6.993-3.3-8.601-13.596-11.749-11.925-1.852 0.982-0.769 2.796 0.01 4.305 3.475 6.731 6.804 3.406 5.772 9.21-0.727 4.088-12.272 0.025-14.245-10.325-1.164-6.105 2.568-24.065-1.386-24.263-2.107-0.105-1.571 1.317-9.305 22.024-17.805 47.673-42.064 77.007-42.939 134.59-0.278 18.283 48.644 49.897 60.241 73.214 11.326 22.772 3.276 41.822-3.222 56.8-2.993 6.9-2.111 5.058 16.839 55.65 10.96 29.261 10.064 40.735 25.709 99.547 12.904 48.51 33.531 86.511 39.007 159.88 3.314 44.405 2.062 73.581 30.367 107.87 21.311 25.815 37.099 31.9 21.741 36.176-12.416 3.456-10.246 29.898-47.308 36.581-12.544 2.262-24.095-0.647-35.07-6.755-8.211-4.569-49.221-34.103-41.474-15.326 10.095 24.463 13.457 37.369 26.511 69.301 4.369 10.687 9.334 21.12 13.419 31.935 14.879 39.387 13.438 56.903 33.121 63.824 22.874 8.043 20.668 17.863 26.786 32.305 5.891 13.908 12.35 27.54 22.491 38.992 0.886 1 10.448 9.095 4.201 14.237-4.813 3.962-7.51-0.585-29.144-19.252-2.291-1.977-4.412-4.752-8.073-3.28-3.984 1.602-4.545 5.359-4.893 8.894-1.346 13.665 15.607 23.438 12.599 51.427-0.978 9.1-10.235 25.438-38.177 24.859-14.01-0.291-2.974-14.26-0.859-18.278 5.942-11.29-0.26-15.079-20.419-66.208-20.5-51.992 13.06-7.618-76.617-139.92-13.71-20.227-6.85 9.957-15.498 72.505-8.843 63.964 7.397 48.857 22.823 76.966 7.197 13.114-3.598 15.921 0.258 31.83 9.924 40.94 9.597 37.61 8.941 44.051-0.53 5.199-7.633 9.426-11.229 1.938-4.497-9.363-10.246-18.021-15.024-27.218-7.806-15.025-19.492 5.959-23.313 25.896-4.087 21.327-2.699 34.802-46.902 33.669-6.855-0.176-13.575-1.572-20.041-3.79-5.383-1.846-5.55-9.981-0.868-14.206 14.011-12.643 29.623-13.209 29.03-28.554-1.085-28.05 10.62-93.912 1.182-147.99-28.955-165.89-23.989-162.3-35.94-159.56-9.726 2.229-22.589-2.43-40.196 2.711-10.347 3.021-20.113 1.197-28.908-4.573-8.964-5.882-18.931-6.327-29.005-6.657-3.772-0.124-6.425 2.153-7.277 5.667-7.707 31.772-25.089 33.027-27.259 57.37-5.571 62.511 18.771 94.379-8.975 127.05-9.38 11.045 2.018 21.994 10.688 43.683 6.704 16.77-14.607 23.184-9.995 40.911 2.97 11.417 26.787 11.527 36.331 28.821 2.997 5.431 9.007 7.106 13.194 11.075 13.574 12.863 12.568 39.231-19.322 46.225-31.255 6.857-67.175 5.133-99.173 1.781zm232.97-1281.2h-0.153c0-9.775 0.136-22.587-13.587-30.007-27.934-15.103-20.123-21.717-33.195-20.666-30.537 2.455-37.794-27.667-49.958-0.233-3.8 8.569 4.781 6.271 6.867 19.283 1.183 7.384 8.606 10.284 2.508 19.106-5.391 7.799-0.041 14.921 9.427 16.499 78.803 13.125 78.091 16.123 78.091-3.982zm265.23 52.797c10.455-2.249 19.593-0.814 14.49-6.597-16.202-18.363-24.369 8.722-14.49 6.597zm-125.02 124.61c-0.359-5.197-3.057-13.492-6.634-9.374-5.551 6.39-4.071 22.404 0.961 21.976 2.654-0.225 2.397-1.188 5.673-12.602zm107.66-213.06c-0.581 3.008-0.106 17.772 3.713 13.144 3.397-4.117 5.711-8.766 6.412-14.065 0.812-6.147-8.999-4.911-10.125 0.921zm-279.7-32.75c4.54 0.225 5.064-8.371 0.308-8.16-4.732 0.211-4.231 7.966-0.308 8.16zm256.4 123.58c-0.882 0.271-2.779-0.035-1.775 1.548 1.606 2.529 4.522 3.149 7.329 3.608 2.673 0.437-0.342-4.494-5.554-5.156zm19.568-16.239c1.091-0.114 2.625 0.08 2.682-1.124 0.092-1.943-1.707-1.031-2.705-1.167-1.336-0.182-3.388-0.147-3.354 1.225 0.031 1.258 2.261 0.619 3.377 1.066zm-64.67 162.49c-0.38 0.342-0.373 0.191-0.04 0.585 0.381-0.343 0.372-0.192 0.04-0.585z"/>
</svg>
