<?xml version="1.0" encoding="UTF-8"?>
<!DOCTYPE svg PUBLIC "-//W3C//DTD SVG 1.1//EN" "http://www.w3.org/Graphics/SVG/1.1/DTD/svg11.dtd">
<!-- Creator: CorelDRAW X6 -->
<svg xmlns="http://www.w3.org/2000/svg" xml:space="preserve" width="173.229mm" height="240.985mm" version="1.1" style="shape-rendering:geometricPrecision; text-rendering:geometricPrecision; image-rendering:optimizeQuality; fill-rule:evenodd; clip-rule:evenodd"
viewBox="0 0 17985 25019"
 xmlns:xlink="http://www.w3.org/1999/xlink">
 <defs>
  <style type="text/css">
   <![CDATA[
    .fil11 {fill:#FEFEFE}
    .fil3 {fill:#7F2835}
    .fil9 {fill:#8C1A30}
    .fil2 {fill:#A12736}
    .fil10 {fill:#BF3444}
    .fil0 {fill:#C74D53}
    .fil5 {fill:#CF5F66}
    .fil7 {fill:#CF636B}
    .fil1 {fill:#D36571}
    .fil8 {fill:#D45660}
    .fil6 {fill:#DF7273}
    .fil4 {fill:#FDFDFD}
   ]]>
  </style>
 </defs>
 <g id="Vrstva_x0020_1">
  <metadata id="CorelCorpID_0Corel-Layer"/>
  <g id="_874907552">
   <path class="fil0" d="M6085 22483c1060,-558 4604,-361 5461,247 -37,706 -367,976 -952,1176 -1109,381 -4465,472 -4509,-1423zm9959 -5639c-155,452 -299,656 -546,1021 -410,607 -50,402 -707,800 -274,676 -1733,1661 -2363,2035 -1094,651 -2059,889 -3448,892 -2216,5 -4771,-1243 -5816,-2911 -645,-461 -282,-201 -706,-819 -237,-346 -400,-569 -529,-1020 -373,-716 272,-3341 3061,-3401 4475,-95 3377,2561 3990,2941 316,-224 43,-1676 1186,-2347 1401,-823 3953,-934 5209,447 501,551 988,1730 669,2362zm-14995 -8059c93,-1183 593,-1399 846,-2187 467,-1297 1671,-2155 2798,-2693 3039,-1449 5522,-1503 8577,-5 1148,564 2338,1416 2793,2697 217,706 729,1075 900,2231l288 1467c247,1401 145,3029 -316,4288 -100,344 -139,346 -212,732 -476,-622 -371,-961 -1115,-1570 -657,-538 -951,-459 -1635,-834 -3153,-625 -3956,228 -4993,225 -1316,-3 -1284,-808 -4997,-244 -273,165 -655,254 -946,409 -1332,709 -1235,1257 -1798,2024l-140 -562c-650,-817 -699,-3400 -377,-4459 -12,-433 92,-1242 327,-1519zm2621 -5681c-107,-1102 1250,-2120 1945,-2353 2127,-712 3016,353 3369,363 153,5 990,-465 1567,-549 1784,-260 3874,941 3754,2562 -749,-18 -1830,-477 -2614,-691 -4794,-1309 -6258,715 -8021,668zm2609 -2990c-2412,583 -4319,3086 -5205,5391 -1319,3428 -1210,5898 -793,9732 283,2610 1776,5888 3372,7538 3687,3810 10625,2897 12930,-3723 1559,-4480 2101,-9404 136,-13973 -1021,-2374 -3109,-4863 -5630,-5063 -891,-71 -1719,286 -2430,177 -922,-140 -1423,-311 -2380,-79z"/>
   <path class="fil1" d="M1929 16842c427,17 976,1194 1190,1775l488 61c257,-475 -181,-166 329,-124 198,16 1655,1209 5712,993 1816,-97 3067,-151 4492,-1092 100,-66 211,-134 293,-190 508,-348 195,-422 475,-176 378,-338 712,-1282 1136,-1245 319,-632 -168,-1811 -669,-2362 -1256,-1381 -3808,-1270 -5209,-447 -1143,671 -870,2123 -1186,2347 -613,-380 485,-3036 -3990,-2941 -2789,60 -3434,2685 -3061,3401z"/>
   <path class="fil2" d="M3445 7532c214,173 78,275 702,139l-353 237c-169,110 -198,125 -381,290 -732,656 -1195,951 -1622,2232 -472,1416 -106,3188 -241,3560 -20,54 -326,606 -451,773l140 562c563,-767 466,-1315 1798,-2024 291,-155 673,-244 946,-409l-426 96c-1,-605 21,-225 -84,-358 -124,136 -986,572 -1165,576 -108,-449 -137,-1273 17,-1691 197,-531 -47,-250 278,-309 4,-440 217,-622 418,-865 676,-819 1200,-1287 2661,-1367 712,-39 1665,271 2123,682 763,681 397,1296 499,2512 520,317 1043,592 1480,-113 226,-501 -721,-2962 2395,-3080 973,-37 1710,222 2420,884 194,179 187,160 356,337 251,264 383,466 515,840 214,593 363,1448 216,2211 -288,-58 -1067,-421 -1265,-704l-23 453 -425 -85c684,375 978,296 1635,834 744,609 639,948 1115,1570 73,-386 112,-388 212,-732 -188,19 -48,195 -534,-608 -203,-335 -34,-555 32,-994 225,-1504 -40,-3499 -1225,-4325 -416,-289 -890,-848 -914,-1138 -1119,-37 -397,-422 -1238,-451 -926,-31 -947,-348 -1389,-342 -644,9 -2286,422 -2662,-294 -227,546 -829,379 -1464,383 -1383,9 -979,-225 -1456,-49 -833,307 -511,175 -1346,306 -512,81 -57,74 -490,336 -360,217 -392,156 -804,125z"/>
   <path class="fil3" d="M2603 11206c423,251 826,646 870,1424 105,133 83,-247 84,358l426 -96c3713,-564 3681,241 4997,244 1037,3 1840,-850 4993,-225l425 85 23 -453c225,-997 458,-1098 1049,-1507 -132,-374 -264,-576 -515,-840 -169,-177 -162,-158 -356,-337 -710,-662 -1447,-921 -2420,-884 -3116,118 -2169,2579 -2395,3080 -437,705 -960,430 -1480,113 -102,-1216 264,-1831 -499,-2512 -458,-411 -1411,-721 -2123,-682 -1461,80 -1985,548 -2661,1367 -201,243 -414,425 -418,865z"/>
   <path class="fil4" d="M1895 6598c-253,788 -753,1004 -846,2187l-87 344c193,-78 281,-85 517,-251 292,-205 203,-191 395,-516 1484,-44 1168,-859 1571,-830 412,31 444,92 804,-125 433,-262 -22,-255 490,-336 835,-131 513,1 1346,-306 477,-176 73,58 1456,49 635,-4 1237,163 1464,-383 376,716 2018,303 2662,294 442,-6 463,311 1389,342 841,29 119,414 1238,451l330 -74c246,421 248,538 633,712 450,202 698,37 924,367 689,501 478,235 649,348 156,202 -31,108 133,-43 -171,-1156 -683,-1525 -900,-2231 -541,-211 -465,-209 -1104,-228 -151,-319 -162,-554 -498,-750 -349,-204 -500,-86 -790,-214l-149 -89c-407,-299 -357,-844 -1663,-398 -403,-566 -348,-800 -1241,-914 -911,-116 -1297,295 -1635,288 -356,-8 -683,-423 -1640,-282 -647,96 -942,306 -1126,950 -948,-281 -1402,-345 -1788,577 -909,-323 -1080,324 -1437,786l-1097 275z"/>
   <path class="fil5" d="M3670 3104c1763,47 3227,-1977 8021,-668 784,214 1865,673 2614,691 120,-1621 -1970,-2822 -3754,-2562 -577,84 -1414,554 -1567,549 -353,-10 -1242,-1075 -3369,-363 -695,233 -2052,1251 -1945,2353z"/>
   <path class="fil6" d="M1895 6598l1097 -275c357,-462 528,-1109 1437,-786 386,-922 840,-858 1788,-577 184,-644 479,-854 1126,-950 957,-141 1284,274 1640,282 338,7 724,-404 1635,-288 893,114 838,348 1241,914 1306,-446 1256,99 1663,398l149 89c290,128 441,10 790,214 336,196 347,431 498,750 639,19 563,17 1104,228 -455,-1281 -1645,-2133 -2793,-2697 -3055,-1498 -5538,-1444 -8577,5 -1127,538 -2331,1396 -2798,2693z"/>
   <path class="fil4" d="M14791 18665l26 -51c-665,118 -1026,218 -1136,872l-831 -9c-462,956 -359,-29 -1531,615 -707,389 -496,-77 -1790,122 -783,121 -178,330 -823,81 -720,-278 -1697,-59 -1831,-72 -199,-20 13,29 -192,-65 -1270,-579 -1067,-26 -1494,-435 -146,-140 -62,-486 -987,-230 -62,-533 -153,-655 -595,-815l-488 -61 45 64c1045,1668 3600,2916 5816,2911 1389,-3 2354,-241 3448,-892 630,-374 2089,-1359 2363,-2035z"/>
   <path class="fil7" d="M6085 22483c44,1895 3400,1804 4509,1423 585,-200 915,-470 952,-1176 -857,-608 -4401,-805 -5461,-247z"/>
   <path class="fil8" d="M3607 18678c442,160 533,282 595,815 925,-256 841,90 987,230 427,409 224,-144 1494,435 205,94 -7,45 192,65 134,13 1111,-206 1831,72 645,249 40,40 823,-81 1294,-199 1083,267 1790,-122 1172,-644 1069,341 1531,-615l831 9c110,-654 471,-754 1136,-872l91 -525c-280,-246 33,-172 -475,176 -82,56 -193,124 -293,190 -1425,941 -2676,995 -4492,1092 -4057,216 -5514,-977 -5712,-993 -510,-42 -72,-351 -329,124z"/>
   <path class="fil9" d="M1874 8362c-155,834 -487,1116 -809,1860l-343 82c-322,1059 -273,3642 377,4459 125,-167 431,-719 451,-773 135,-372 -231,-2144 241,-3560 427,-1281 890,-1576 1622,-2232 183,-165 212,-180 381,-290l353 -237c-624,136 -488,34 -702,-139 -403,-29 -87,786 -1571,830z"/>
   <path class="fil9" d="M16935 14583c461,-1259 563,-2887 316,-4288 -430,-233 -374,-227 -612,-735 -177,-378 -340,-477 -458,-1037 -226,-330 -474,-165 -924,-367 -385,-174 -387,-291 -633,-712l-330 74c24,290 498,849 914,1138 1185,826 1450,2821 1225,4325 -66,439 -235,659 -32,994 486,803 346,627 534,608z"/>
   <path class="fil10" d="M14421 12543c198,283 977,646 1265,704 147,-763 -2,-1618 -216,-2211 -591,409 -824,510 -1049,1507z"/>
   <path class="fil10" d="M3473 12630c-44,-778 -447,-1173 -870,-1424 -325,59 -81,-222 -278,309 -154,418 -125,1242 -17,1691 179,-4 1041,-440 1165,-576z"/>
   <path class="fil11" d="M1049 8785c-235,277 -339,1086 -327,1519l343 -82c322,-744 654,-1026 809,-1860 -192,325 -103,311 -395,516 -236,166 -324,173 -517,251l87 -344z"/>
   <path class="fil11" d="M17251 10295l-288 -1467c-164,151 23,245 -133,43 -171,-113 40,153 -649,-348 118,560 281,659 458,1037 238,508 182,502 612,735z"/>
   <path class="fil11" d="M14908 18089l-91 525 -26 51c657,-398 297,-193 707,-800 247,-365 391,-569 546,-1021 -424,-37 -758,907 -1136,1245z"/>
   <path class="fil11" d="M3164 18681l-45 -64c-214,-581 -763,-1758 -1190,-1775 129,451 292,674 529,1020 424,618 61,358 706,819z"/>
  </g>
 </g>
</svg>
