<?xml version="1.0" encoding="UTF-8"?>
<svg width="496.25" height="421.88" version="1.1" viewBox="0 0 496.25 421.875" xmlns="http://www.w3.org/2000/svg">
 <path d="m128.23 227.04c-22.515 15.291-29.891 45.953-12.212 76.049 22.791 38.799 82.302 47.324 127.67 47.183 48.914-0.15151 105.58-5.4979 134.33-39.967 16.241-19.467 16.411-55.834 1.1102-76.049-7.7489-10.237-26.74-12.182-41.077-14.433-27.983-4.3919-60.376 10.254-91.539 7.2303-45.61-4.4256-91.439-18.248-118.29-0.0141z" fill="#88664e" fill-rule="evenodd"/>
 <path d="m365.25 212.6c0 13.612-4.5848 26.354-17.165 36.284-21.136 16.684-59.783 26.442-100.24 26.442-40.408 0-78.029-10.29-98.849-26.94-12.431-9.9405-17.444-22.148-17.444-35.787 0-12.176 5.7033-24.135 15.702-33.188 19.961-18.072 57.04-27.873 100.04-27.873 38.206 0 74.184 9.1701 95.822 23.77 14.91 10.06 22.137 22.408 22.137 37.291z" fill="#9a7863"/>
 <path d="m222.42 68.259c2.4796 8.7787-8.1684 25.5 0.53684 32.985 13.202 11.351 36.666 9.3818 58.015 10.693 19.524 1.1993 37.19 5.3769 45.43 20.177 4.7124 8.4642 6.8124 19.432 3.6907 29.698-2.6212 8.6203-9.5787 16.746-15.348 22.481-20.412 20.289-56.056 23.45-84.375 18.318-22.524-4.0815-46.91-17.019-57.73-37.192-9.9947-18.633-9.0818-44.775 0.87648-63.427 9.3266-17.469 45.544-43.562 48.903-33.733z" fill="#a78674" fill-rule="evenodd"/>
 <circle cx="199" cy="218.99" r="34.139" fill="#fff"/>
 <ellipse cx="208.72" cy="232.59" rx="16.653" ry="17.763"/>
 <circle cx="297" cy="218.99" r="34.139" fill="#fff"/>
 <ellipse cx="288.16" cy="233.26" rx="17.208" ry="17.763"/>
</svg>
