<?xml version='1.0' encoding='utf-8'?>
<svg xmlns="http://www.w3.org/2000/svg" viewBox="0 0 340.5 233.86">
 <defs>
  <filter id="f" x="-.13133" y="-.13131" width="1.2627" height="1.2626" color-interpolation-filters="sRGB">
   <feGaussianBlur stdDeviation="10.133756"/>
  </filter>
  <linearGradient id="g" x1=".27304" x2=".50004" y1=".86209" y2=".10893">
   <stop stop-color="#2e3436" offset="0"/>
   <stop stop-color="#555753" offset="1"/>
  </linearGradient>
  <linearGradient id="h" x1=".47835" x2=".33043" y1="1.6838" y2="-.36977">
   <stop stop-color="#2e3436" stop-opacity=".751" offset="0"/>
   <stop stop-color="#2e3436" stop-opacity="0" offset="1"/>
  </linearGradient>
  <linearGradient id="i" x1=".26212" x2=".87592" y1="-8e-6" y2="1.4465">
   <stop stop-color="#888a85" offset="0"/>
   <stop offset="1"/>
  </linearGradient>
  <linearGradient id="j" x1=".34647" x2=".41982" y1="-1.0173" y2=".70832">
   <stop stop-color="#fff" stop-opacity=".904" offset="0"/>
   <stop stop-color="#fff" stop-opacity="0" offset="1"/>
  </linearGradient>
 </defs>
 <g fill-rule="evenodd">
  <path d="m170.25 18.102c-92.154 0-166.88 74.689-166.88 166.84 0 8.3575 0.62633 16.566 1.8125 24.594h330.12c1.1862-8.0278 1.8125-16.236 1.8125-24.594 0-92.154-74.721-166.84-166.88-166.84z" fill="#382509" stroke="#000" stroke-width=".913"/>
  <path d="m170.25 14.727c-93.978 0-170.25 76.241-170.25 170.22 0 8.3534 0.61713 16.561 1.7812 24.594h7.0625c-1.2103-8.0218-1.875-16.233-1.875-24.594 0-90.217 73.064-163.28 163.28-163.28 90.217 0 163.28 73.064 163.28 163.28 0 8.3607-0.66467 16.572-1.875 24.594h7.0625c1.1641-8.0325 1.7812-16.24 1.7812-24.594 0-93.978-76.272-170.22-170.25-170.22z" fill="url(#i)"/>
  <g stroke-width=".873">
   <path d="m171.12 24.321c-88.193 0-159.69 71.495-159.69 159.69 0 8.6955 0.72499 17.213 2.0625 25.531h315.31c1.337-8.3167 2-16.838 2-25.531 0-88.193-71.495-159.69-159.69-159.69z" fill="url(#g)" stroke="#000"/>
   <path d="m262.81 74.321c-88.082 0-162.95 56.49-190.38 135.22h256.34c1.336-8.3138 2.0312-16.841 2.0312-25.531 0-41.681-15.971-79.626-42.125-108.06-8.4674-1.0845-17.113-1.625-25.875-1.625z" fill="url(#h)"/>
  </g>
 </g>
 <g fill="#fff">
  <g transform="matrix(1.1536 0 0 1.1536 2.4853 192.82)">
   <path d="m127.59-112.35l1.4-1.675h0.050018v12.45h2.95v-16.75h-2.4l-3.625 4.3 1.625 1.675"/>
   <path d="m141.06-113.05c0-1.75 0.875-3.225 2.75-3.225 1.6 0 2.675 1.25 2.675 2.65 0 4.55-7.925 5.5-8.375 12.05h11.225v-2.6h-7.175c1.6-2.55 7.625-5 7.625-9.4 0-3.4-2.625-5.2-5.925-5.2-3.25 0-5.65 1.675-5.85 5.725h3.05"/>
   <path d="m157.92-116.27c2 0 2.925 1.6 2.925 6.325s-0.92499 6.325-2.925 6.325-2.925-1.6-2.925-6.325 0.92499-6.325 2.925-6.325m-6.225 6.325c0 6.125 2.575 8.825 6.225 8.825s6.225-2.7 6.225-8.825-2.575-8.825-6.225-8.825-6.225 2.7-6.225 8.825"/>
  </g>
  <g transform="matrix(1.1536 0 0 1.1536 -54.111 207.41)">
   <path d="m137.05-116.27c1.425 0 2.625 0.925 2.625 2.425 0 1.55-1.25 2.375-2.625 2.375-1.425 0-2.625-0.825-2.625-2.375 0-1.5 1.15-2.425 2.575-2.425h0.049988m0-2.5c-2.625 0-5.675 1.625-5.675 4.45 0 1.95 0.75 3.425 2.75 3.875v0.049988c-1.975 0.425-3.125 1.975-3.125 4.025 0 3.25 2.45 5.25 6.05 5.25s6.05-2 6.05-5.25c0-2.05-1.15-3.6-3.125-4.025v-0.049988c2-0.45001 2.75-1.925 2.75-3.875 0-2.825-3.05-4.45-5.675-4.45m0 9.5c1.5 0 2.85 0.85001 2.85 2.7 0 2-1.15 2.95-2.85 2.95-1.75 0-2.85-0.95-2.85-2.95 0-1.85 1.3-2.7 2.8-2.7h0.049988"/>
   <path d="m150.96-116.27c2 0 2.925 1.6 2.925 6.325s-0.92499 6.325-2.925 6.325-2.925-1.6-2.925-6.325 0.92499-6.325 2.925-6.325m-6.225 6.325c0 6.125 2.575 8.825 6.225 8.825s6.225-2.7 6.225-8.825-2.575-8.825-6.225-8.825-6.225 2.7-6.225 8.825"/>
  </g>
  <g transform="matrix(1.1536 0 0 1.1536 -88.581 246.49)">
   <path d="m141.37-118.32h-3.175l-7.475 9.45v2.675h7.7v4.625h2.95v-4.575h2.125v-2.55h-2.125v-9.625m-2.95 9.625h-4.75l4.7-6.225h0.049988v6.225"/>
   <path d="m150.96-116.27c2 0 2.925 1.6 2.925 6.325s-0.92499 6.325-2.925 6.325-2.925-1.6-2.925-6.325 0.92499-6.325 2.925-6.325m-6.225 6.325c0 6.125 2.575 8.825 6.225 8.825s6.225-2.7 6.225-8.825-2.575-8.825-6.225-8.825-6.225 2.7-6.225 8.825"/>
  </g>
  <g transform="matrix(1.1536 0 0 1.1536 55.488 207.1)">
   <path d="m127.59-112.35l1.4-1.675h0.050018v12.45h2.95v-16.75h-2.4l-3.625 4.3 1.625 1.675"/>
   <path d="m141.48-106.95c0-1.9 0.875-3.575 2.825-3.575s2.825 1.675 2.825 3.575c0 1.825-0.875 3.325-2.825 3.325s-2.825-1.5-2.825-3.325m8.5-7.3c-0.60001-2.95-2.4-4.525-5.425-4.525-5.275 0-6.475 5.15-6.475 9.475 0 7.275 4.225 8.175 6.325 8.175 3.35 0 5.875-2.55 5.875-5.9 0-4.5-3.075-5.75-5.3-5.75-1.675 0-2.8 0.60001-3.85 2.5h-0.049988c-0.125-1.95 0.5-6 3.575-6 1.375 0 1.9 0.8 2.25 2.025h3.075"/>
   <path d="m157.92-116.27c2 0 2.925 1.6 2.925 6.325s-0.92499 6.325-2.925 6.325-2.925-1.6-2.925-6.325 0.92499-6.325 2.925-6.325m-6.225 6.325c0 6.125 2.575 8.825 6.225 8.825s6.225-2.7 6.225-8.825-2.575-8.825-6.225-8.825-6.225 2.7-6.225 8.825"/>
  </g>
  <g transform="matrix(1.1536 0 0 1.1536 95.237 245.36)">
   <path d="m127.14-113.05c0-1.75 0.875-3.225 2.75-3.225 1.6 0 2.675 1.25 2.675 2.65 0 4.55-7.925 5.5-8.375 12.05h11.225v-2.6h-7.175c1.6-2.55 7.625-5 7.625-9.4 0-3.4-2.625-5.2-5.925-5.2-3.25 0-5.65 1.675-5.85 5.725h3.05"/>
   <path d="m144.01-116.27c2 0 2.925 1.6 2.925 6.325s-0.92499 6.325-2.925 6.325-2.925-1.6-2.925-6.325 0.92502-6.325 2.925-6.325m-6.225 6.325c0 6.125 2.575 8.825 6.225 8.825s6.225-2.7 6.225-8.825-2.575-8.825-6.225-8.825-6.225 2.7-6.225 8.825"/>
   <path d="m157.92-116.27c2 0 2.925 1.6 2.925 6.325s-0.92499 6.325-2.925 6.325-2.925-1.6-2.925-6.325 0.92499-6.325 2.925-6.325m-6.225 6.325c0 6.125 2.575 8.825 6.225 8.825s6.225-2.7 6.225-8.825-2.575-8.825-6.225-8.825-6.225 2.7-6.225 8.825"/>
  </g>
 </g>
 <rect x="168.64" y="27.295" width="5" height="20.192" rx="1.1709" ry="1.1709" fill="#fff"/>
 <g transform="matrix(.86602 .5 -.5 .86602 279.46 -118.52)">
  <rect x="54.642" y="159.53" width="5" height="20.192" rx="1.1709" ry="1.1709" fill="#fff"/>
 </g>
 <g transform="matrix(.5 .86602 -.86602 .5 580.74 -81.425)">
  <rect x="22.035" y="331.04" width="5" height="20.192" rx="1.1709" ry="1.1709" fill="#fff"/>
 </g>
 <g transform="matrix(.86602 -.5 .5 .86602 -182.76 242.37)">
  <rect x="333.48" y="-30.223" width="5" height="20.192" rx="1.1709" ry="1.1709" fill="#fff"/>
 </g>
 <g transform="matrix(.5 -.86602 .86602 .5 -219.86 543.65)">
  <rect x="504.99" y="2.384" width="5" height="20.192" rx="1.1709" ry="1.1709" fill="#fff"/>
 </g>
 <g transform="matrix(.49572 -.065263 .13053 .99144 120.4 27.507)">
  <rect x="54.926" y="4.9128" width="5" height="20.192" rx="1.1709" ry="1.1709" fill="#fff"/>
 </g>
 <g transform="matrix(.48296 -.12941 .25882 .96593 65.71 62.452)">
  <rect x="136.16" y="-12.315" width="5" height="20.192" rx="1.1709" ry="1.1709" fill="#fff"/>
 </g>
 <g transform="matrix(.46194 -.19134 .38268 .92388 16.043 104.24)">
  <rect x="221.19" y="-24.094" width="5" height="20.192" rx="1.1709" ry="1.1709" fill="#fff"/>
 </g>
 <g transform="matrix(.39668 -.30438 .60876 .79335 -64.903 205.36)">
  <rect x="396.8" y="-30.597" width="5" height="20.192" rx="1.1709" ry="1.1709" fill="#fff"/>
 </g>
 <g transform="matrix(.35355 -.35355 .70711 .70711 -94.798 262.98)">
  <rect x="484.37" y="-25.21" width="5" height="20.192" rx="1.1709" ry="1.1709" fill="#fff"/>
 </g>
 <g transform="matrix(.30438 -.39668 .79335 .60876 -116.92 324)">
  <rect x="569.79" y="-14.153" width="5" height="20.192" rx="1.1709" ry="1.1709" fill="#fff"/>
 </g>
 <g transform="matrix(.49572 .065263 -.13053 .99144 241.07 -19.598)">
  <rect x="-90.656" y="54.448" width="5" height="20.192" rx="1.1709" ry="1.1709" fill="#fff"/>
 </g>
 <g transform="matrix(.48296 .12941 -.25882 .96593 304.98 -30.952)">
  <rect x="-152.52" y="85.907" width="5" height="20.192" rx="1.1709" ry="1.1709" fill="#fff"/>
 </g>
 <g transform="matrix(.46194 .19134 -.38268 .92388 369.82 -33.868)">
  <rect x="-205.64" y="121.13" width="5" height="20.192" rx="1.1709" ry="1.1709" fill="#fff"/>
 </g>
 <g transform="matrix(.39668 .30438 -.60876 .79335 497.87 -14.33)">
  <rect x="-282.18" y="200.43" width="5" height="20.192" rx="1.1709" ry="1.1709" fill="#fff"/>
 </g>
 <g transform="matrix(.35355 .35355 -.70711 .70711 558.89 7.7896)">
  <rect x="-304.29" y="243.14" width="5" height="20.192" rx="1.1709" ry="1.1709" fill="#fff"/>
 </g>
 <g transform="matrix(.30438 .39668 -.79335 .60876 616.5 37.685)">
  <rect x="-315.07" y="286.92" width="5" height="20.192" rx="1.1709" ry="1.1709" fill="#fff"/>
 </g>
 <g transform="matrix(.19134 .46194 -.92388 .38268 717.63 118.63)">
  <rect x="-302.06" y="374.73" width="5" height="20.192" rx="1.1709" ry="1.1709" fill="#fff"/>
 </g>
 <g transform="matrix(.19134 -.46194 .92388 .38268 -136.46 452.05)">
  <rect x="728.38" y="24.118" width="5" height="20.192" rx="1.1709" ry="1.1709" fill="#fff"/>
 </g>
 <g transform="matrix(.12941 -.48296 .96593 .25882 -133.54 516.89)">
  <rect x="798.83" y="50.678" width="5" height="20.192" rx="1.1709" ry="1.1709" fill="#fff"/>
 </g>
 <g fill="#fff">
  <g transform="matrix(.065263 -.49572 .99144 .13053 -122.19 580.79)">
   <rect x="861.75" y="81.608" width="5" height="20.192" rx="1.1709" ry="1.1709"/>
   <rect x="861.75" y="373.61" width="5" height="20.192" rx="1.1709" ry="1.1709"/>
  </g>
  <g transform="matrix(0 -1 1 0 -102.59 821.86)">
   <rect x="637.22" y="116.38" width="5" height="20.192" rx="1.1709" ry="1.1709"/>
   <rect x="637.22" y="408.38" width="5" height="20.192" rx="1.1709" ry="1.1709"/>
  </g>
 </g>
 <g transform="matrix(.12941 .48296 -.96593 .25882 759.41 168.3)">
  <rect x="-278.5" y="417.25" width="5" height="20.192" rx="1.1709" ry="1.1709" fill="#fff"/>
 </g>
 <g fill="#fff">
  <g transform="matrix(.065263 .49572 -.99144 .13053 794.36 222.99)">
   <rect x="-244.05" y="457.86" width="5" height="20.192" rx="1.1709" ry="1.1709"/>
   <rect x="-244.05" y="749.86" width="5" height="20.192" rx="1.1709" ry="1.1709"/>
  </g>
  <path d="m201.56 64.186l1.3361 0.358-28.987 122.52-5.0865 8.775-3.4028-0.9118-0.0176-10.143 36.158-120.6z"/>
 </g>
 <path d="m204.47 65.284l-35.106 131.02 1.8084 0.4846 5.0811-8.7584 28.992-122.54-0.775-0.2077z"/>
 <path d="m202.47 63.784l-35.106 131.02 1.8084 0.4846 5.0811-8.7584 28.992-122.54-0.775-0.2077z" fill="#babdb6"/>
 <path d="m171.12 24.321c-16.78 0-32.962 2.6072-48.156 7.4062l-31.812 177.81h185.19l-51.469-175.94c-16.797-6.0037-34.889-9.2812-53.75-9.2812z" fill="url(#j)" filter="url(#f)"/>
 <text transform="matrix(1.1346 0 0 1.1536 -31.794 -30.125)" x="175.875893" y="226.681017" font-family="Arial" font-size="24" stroke-width="0" text-anchor="middle">km/h</text>
</svg>