<svg width="15" height="15" viewBox="0 0 15 15" fill="none" xmlns="http://www.w3.org/2000/svg">
<path d="M9.09122 7.50023L13.8989 2.69258L14.8903 1.70115C15.0366 1.55489 15.0366 1.31723 14.8903 1.17097L13.8295 0.11016C13.6832 -0.0360949 13.4456 -0.0360949 13.2993 0.11016L7.50023 5.90925L1.70115 0.109691C1.55489 -0.0365636 1.31723 -0.0365636 1.17097 0.109691L0.109691 1.17051C-0.0365636 1.31676 -0.0365636 1.55442 0.109691 1.70068L5.90925 7.50023L0.109691 13.2993C-0.0365636 13.4456 -0.0365636 13.6832 0.109691 13.8295L1.17051 14.8903C1.31676 15.0366 1.55442 15.0366 1.70068 14.8903L7.50023 9.09122L12.3079 13.8989L13.2993 14.8903C13.4456 15.0366 13.6832 15.0366 13.8295 14.8903L14.8903 13.8295C15.0366 13.6832 15.0366 13.4456 14.8903 13.2993L9.09122 7.50023Z" fill="#333333"/>
</svg>
