<?xml version="1.0" encoding="UTF-8"?>
<svg viewBox="0 0 744.09447 1052.362179" xmlns="http://www.w3.org/2000/svg" xmlns:xlink="http://www.w3.org/1999/xlink">
 <defs>
  <linearGradient id="a">
   <stop stop-color="#fff" offset="0"/>
   <stop stop-color="#fff" stop-opacity="0" offset="1"/>
  </linearGradient>
  <linearGradient id="h" x1="587.28" x2="713.51" y1="205.47" y2="341.23" gradientUnits="userSpaceOnUse">
   <stop offset="0"/>
   <stop stop-opacity="0" offset="1"/>
  </linearGradient>
  <linearGradient id="f" x1="104.44" x2="449.6" y1="312.96" y2="586.43" gradientUnits="userSpaceOnUse">
   <stop stop-color="#b9d4ef" offset="0"/>
   <stop stop-color="#b9d4ef" stop-opacity="0" offset="1"/>
  </linearGradient>
  <linearGradient id="n" x1="333.39" x2="351.52" gradientUnits="userSpaceOnUse" xlink:href="#a"/>
  <linearGradient id="m" x1="295.79" x2="313.92" gradientUnits="userSpaceOnUse" xlink:href="#a"/>
  <linearGradient id="l" x1="401.6" x2="419.73" gradientUnits="userSpaceOnUse" xlink:href="#a"/>
  <linearGradient id="k" x1="379.64" x2="381.61" gradientUnits="userSpaceOnUse" xlink:href="#a"/>
  <linearGradient id="c" x1="364.16" x2="380.78" gradientUnits="userSpaceOnUse" xlink:href="#a"/>
  <linearGradient id="j" x1="441.57" x2="443.54" gradientUnits="userSpaceOnUse" xlink:href="#a"/>
  <linearGradient id="i" x1="317.32" x2="434.82" gradientUnits="userSpaceOnUse" xlink:href="#a"/>
  <linearGradient id="b" x1="788" x2="828" gradientUnits="userSpaceOnUse" xlink:href="#a"/>
  <linearGradient id="g" x1="46.603" x2="242.56" y1="265.84" y2="441.08" gradientUnits="userSpaceOnUse" xlink:href="#a"/>
  <linearGradient id="e" x1="20.33" x2="720.78" y1="264.05" y2="756.75" gradientUnits="userSpaceOnUse" xlink:href="#a"/>
  <linearGradient id="d" x1="377.84" x2="402.73" gradientUnits="userSpaceOnUse" xlink:href="#a"/>
 </defs>
 <path transform="matrix(-1.3176 .38521 .38521 1.3176 -187.76 -173.59)" d="m-347.11 794.05a12.143 7.9609 0 0 1 12.143 7.9609v69.763a12.143 7.9609 0 0 1 -12.143 7.9609 12.143 7.9609 0 0 1 -12.143 -7.9609v-69.763a12.143 7.9609 0 0 1 12.143 -7.9609" fill="#b57c00"/>
 <path transform="matrix(1.3405 -.29594 .38903 1.3165 -187.76 -173.59)" d="m342.45 778.06c5.0218 0 9.0646 3.5436 9.0646 7.9453v55.456c0 4.4017-4.0428 7.9453-9.0646 7.9453s-9.0647-3.5436-9.0647-7.9453v-55.456c0-4.4017 4.0428-7.9453 9.0647-7.9453z" fill="url(#n)"/>
 <path transform="matrix(-1.3176 .38521 .38521 1.3176 -193.25 -185.95)" d="m-309.61 794.02a12.143 7.9609 0 0 1 12.143 7.9609v69.763a12.143 7.9609 0 0 1 -12.143 7.9609 12.143 7.9609 0 0 1 -12.143 -7.9609v-69.763a12.143 7.9609 0 0 1 12.143 -7.9609" fill="#cc7c04"/>
 <path transform="matrix(1.3405 -.29594 .38903 1.3165 -193.25 -185.95)" d="m304.86 780.56c5.0218 0 9.0646 3.5436 9.0646 7.9453v55.456c0 4.4017-4.0428 7.9453-9.0646 7.9453s-9.0647-3.5436-9.0647-7.9453v-55.456c0-4.4017 4.0428-7.9453 9.0647-7.9453z" fill="url(#m)"/>
 <path transform="rotate(16.297)" d="m395.74 657.76c9.2349 0 16.67 4.8741 16.67 10.929v95.768c0 6.0544-7.4346 10.929-16.67 10.929s-16.67-4.8742-16.67-10.929v-95.768c0-6.0544 7.4346-10.929 16.67-10.929z" fill="#b57c00"/>
 <path transform="matrix(.93878,.34451,-.27796,.96059,0,0)" d="m390.28 645.78c6.8938 0 12.444 4.8646 12.444 10.907v76.128c0 6.0425-5.5499 10.907-12.444 10.907s-12.444-4.8646-12.444-10.907v-76.128c0-6.0426 5.5499-10.907 12.444-10.907z" fill="url(#d)"/>
 <path transform="matrix(1.3176 .38521 -.38521 1.3176 -187.76 -173.59)" d="m414.59 573.44a12.143 7.9609 0 0 1 12.143 7.9609v69.763a12.143 7.9609 0 0 1 -12.143 7.9609 12.143 7.9609 0 0 1 -12.143 -7.9609v-69.763a12.143 7.9609 0 0 1 12.143 -7.9609" fill="#cc7c04"/>
 <path transform="matrix(1.2887 .47293 -.38158 1.3187 -187.76 -173.59)" d="m410.66 556.22c5.0218 0 9.0646 3.5436 9.0646 7.9453v55.456c0 4.4017-4.0428 7.9453-9.0646 7.9453s-9.0647-3.5436-9.0647-7.9453v-55.456c0-4.4017 4.0428-7.9453 9.0647-7.9453z" fill="url(#l)"/>
 <g transform="matrix(1.3498 -.2504 .2504 1.3498 -229.26 -58.152)">
  <path d="m381.79 150.93a2.5 7.2845 0 0 1 2.5 7.2845v91.145a2.5 7.2845 0 0 1 -2.5 7.2845 2.5 7.2845 0 0 1 -2.5 -7.2845v-91.145a2.5 7.2845 0 0 1 2.5 -7.2845" fill="#000004"/>
  <path d="m380.63 154.86c0.5441 0 0.98214 3.2489 0.98214 7.2845v84.334c0 4.0356-0.43804 7.2845-0.98214 7.2845s-0.98215-3.2489-0.98215-7.2845v-84.334c0-4.0356 0.43804-7.2845 0.98215-7.2845z" fill="url(#k)"/>
 </g>
 <path transform="matrix(.67178 0 0 .67178 73.994 -59.175)" d="m380.78 163.53a8.3085 7.0711 0 1 1 -16.617 0 8.3085 7.0711 0 1 1 16.617 0z"/>
 <path transform="matrix(.53225 0 0 .53225 124.79 -36.243)" d="m380.78 163.53c0 3.9032-3.7222 7.0711-8.3085 7.0711s-8.3085-3.1678-8.3085-7.0711 3.7222-7.0711 8.3085-7.0711 8.3085 3.1678 8.3085 7.0711z" fill="url(#c)"/>
 <g transform="matrix(1.3728 0 0 1.3728 -176.09 -178.06)">
  <path transform="matrix(-.98322,-.18241,-.18241,.98322,0,0)" d="m-443.14 86.681a2.5 7.2845 0 0 1 2.5 7.2845v91.145a2.5 7.2845 0 0 1 -2.5 7.2845 2.5 7.2845 0 0 1 -2.5 -7.2845v-91.145a2.5 7.2845 0 0 1 2.5 -7.2845" fill="#000004"/>
  <path transform="rotate(10.679)" d="m442.56 88.689c0.5441 0 0.98214 3.2489 0.98214 7.2845v84.334c0 4.0356-0.43804 7.2845-0.98214 7.2845s-0.98215-3.2489-0.98215-7.2845v-84.334c0-4.0356 0.43804-7.2845 0.98215-7.2845z" fill="url(#j)"/>
  <path transform="matrix(.48936 0 0 .48936 237.37 86.55)" d="m380.78 163.53a8.3085 7.0711 0 1 1 -16.617 0 8.3085 7.0711 0 1 1 16.617 0z"/>
  <path transform="matrix(.38771 0 0 .38771 274.37 103.25)" d="m380.78 163.53c0 3.9032-3.7222 7.0711-8.3085 7.0711s-8.3085-3.1678-8.3085-7.0711 3.7222-7.0711 8.3085-7.0711 8.3085 3.1678 8.3085 7.0711z" fill="url(#c)"/>
 </g>
 <path d="m92.101 200.3h562.03c47.486 0 85.714 27.397 85.714 61.429v435.45c0 34.031-38.229 61.429-85.714 61.429h-562.03c-47.486 0-85.714-27.397-85.714-61.429v-435.45c0-34.031 38.229-61.429 85.714-61.429z" fill="#cc7c04"/>
 <path d="m88.571 198.45h562.03c47.486 0 85.714 27.397 85.714 61.429v435.45c0 34.031-38.229 61.429-85.714 61.429h-562.03c-47.486 0-85.714-27.397-85.714-61.429v-435.45c0-34.031 38.229-61.429 85.714-61.429z" fill="url(#e)" opacity=".5"/>
 <path d="m125.44 235.6h397.29c47.486 0 85.714 27.397 85.714 61.429v347.81c0 34.031-38.229 61.429-85.714 61.429h-397.29c-47.486 0-85.714-27.397-85.714-61.429v-347.81c0-34.031 38.229-61.429 85.714-61.429z" fill="#83b5d9"/>
 <path d="m158.78 274.82h205.1c47.486 0 85.714 27.397 85.714 61.429v188.76c0 34.031-38.229 61.429-85.714 61.429h-205.1c-47.486 0-85.714-27.397-85.714-61.429v-188.76c0-34.031 38.229-61.429 85.714-61.429z" fill="url(#f)"/>
 <g transform="matrix(1.3728 0 0 1.3728 -187.76 -173.59)">
  <path d="m320.34 258.79h157.9a6.7642 7.1429 0 0 1 6.7642 7.1429 6.7642 7.1429 0 0 1 -6.7642 7.1429h-157.9a6.7642 7.1429 0 0 1 -6.7642 -7.1429 6.7642 7.1429 0 0 1 6.7642 -7.1429" fill="#000004"/>
  <path d="m324.09 259.68h103.97a6.7642 4.1071 0 0 1 6.7642 4.1071 6.7642 4.1071 0 0 1 -6.7642 4.1071h-103.97a6.7642 4.1071 0 0 1 -6.7642 -4.1071 6.7642 4.1071 0 0 1 6.7642 -4.1071" fill="url(#i)"/>
 </g>
 <path d="m166.55 341.34h41.357c19.198 0 34.654 12.361 34.654 27.714v44.304c0 15.354-15.456 27.714-34.654 27.714h-41.357c-19.198 0-34.654-12.361-34.654-27.714v-44.304c0-15.354 15.456-27.714 34.654-27.714z" fill="url(#g)"/>
 <path transform="matrix(.98493 -.17297 -.0092481 .99996 0 0)" d="m700.06 414.88h29.136c10.379 0 18.734 6.7892 18.734 15.222v179.39c0 8.4332-8.3554 15.222-18.734 15.222h-29.136c-10.379 0-18.734-6.7892-18.734-15.222v-179.39c0-8.4332 8.3555-15.222 18.734-15.222z"/>
 <path d="m91.512 200.64h474.33c47.486 0 85.714 27.397 85.714 61.429v435.45c0 34.031-38.229 61.429-85.714 61.429h-474.33c-47.486 0-85.714-27.397-85.714-61.429v-435.45c0-34.031 38.229-61.429 85.714-61.429z" fill="none" stroke="#000" stroke-linejoin="round" stroke-width="1.2881"/>
 <path transform="matrix(1.0651 0 0 1.0651 -253.2 135.55)" d="m828 541.36a20 19 0 1 1 -40 0 20 19 0 1 1 40 0z" stroke="#000" stroke-linejoin="round"/>
 <path transform="matrix(1.0651 0 0 1.0651 -253.62 135.61)" d="m828 541.36c0 10.488-8.96 19-20 19s-20-8.512-20-19 8.96-19 20-19 20 8.512 20 19z" fill="url(#b)" opacity=".75519"/>
 <path transform="matrix(.73428 0 0 .73428 33.56 184.61)" d="m828 541.36a20 19 0 1 1 -40 0 20 19 0 1 1 40 0z" stroke="#000" stroke-linejoin="round"/>
 <path transform="matrix(.73428 0 0 .73428 33.268 184.65)" d="m828 541.36c0 10.488-8.96 19-20 19s-20-8.512-20-19 8.96-19 20-19 20 8.512 20 19z" fill="url(#b)" opacity=".75519"/>
 <path transform="matrix(.73428 0 0 .73428 33.56 220.3)" d="m828 541.36a20 19 0 1 1 -40 0 20 19 0 1 1 40 0z" stroke="#000" stroke-linejoin="round"/>
 <path transform="matrix(.73428 0 0 .73428 33.268 220.34)" d="m828 541.36c0 10.488-8.96 19-20 19s-20-8.512-20-19 8.96-19 20-19 20 8.512 20 19z" fill="url(#b)" opacity=".75519"/>
 <path transform="matrix(.73428 0 0 .73428 33.56 148.91)" d="m828 541.36a20 19 0 1 1 -40 0 20 19 0 1 1 40 0z" stroke="#000" stroke-linejoin="round"/>
 <path transform="matrix(.73428 0 0 .73428 33.268 148.95)" d="m828 541.36c0 10.488-8.96 19-20 19s-20-8.512-20-19 8.96-19 20-19 20 8.512 20 19z" fill="url(#b)" opacity=".75519"/>
 <path d="m580 202.12 89.393-0.94975s64.151 10.982 69.556 55.071c0.56497 38.743-0.12132 106.26-0.12132 106.26l-85.757-0.14214s-0.59189-75.95-3.6569-118.49c-29.935-44.657-69.414-41.757-69.414-41.757z" fill="url(#h)" fill-rule="evenodd" opacity=".48548"/>
</svg>
