<svg width="490" height="512.34" xmlns="http://www.w3.org/2000/svg" clip-rule="evenodd" fill-rule="evenodd" image-rendering="optimizeQuality" text-rendering="geometricPrecision" shape-rendering="geometricPrecision">

 <g>
  <title>Layer 1</title>
  <path id="svg_1" d="m109.79,58.85c38.55,-24.61 82.86,-37.93 127.61,-38.97c48.03,-1.12 96.61,11.93 139.16,40.34c15.05,10.05 28.64,21.2 40.7,33.21c41.85,41.65 66.03,93.93 71.53,148.22c5.49,54.16 -7.72,110.17 -40.59,159.41c-9.47,14.18 -20.54,27.76 -33.22,40.5c-29.86,30.01 -66.53,51.27 -106.54,62.25c-39.26,10.76 -81.54,11.59 -123.52,1.04c-13.74,-3.45 -27.53,-8.07 -41.17,-13.85c-13.5,-5.72 -26.2,-12.28 -37.84,-19.68c-15.81,-10.02 -20.5,-30.98 -10.47,-46.78s30.98,-20.49 46.78,-10.47c9.19,5.84 18.5,10.72 27.77,14.65c9.81,4.16 20.33,7.63 31.36,10.4c30.67,7.71 61.23,7.18 89.33,-0.52c28.52,-7.82 54.8,-23.1 76.33,-44.74c9.62,-9.68 17.96,-19.88 25,-30.43c23.83,-35.68 33.42,-76.14 29.46,-115.16c-3.95,-38.9 -21.49,-76.59 -51.91,-106.86c-9.09,-9.05 -19.32,-17.44 -30.63,-25c-30.55,-20.39 -65.53,-29.76 -100.2,-28.95c-35.07,0.82 -69.85,12.1 -99.43,32.96l22.38,7.41c18.45,6.07 28.49,25.96 22.41,44.41c-6.07,18.45 -25.96,28.49 -44.41,22.41l-95.85,-31.72c-18.39,-6.05 -28.41,-25.84 -22.46,-44.24l24.38,-92.5c4.93,-18.75 24.15,-29.96 42.91,-25.03c18.75,4.93 29.96,24.15 25.02,42.91l-3.89,14.78zm-27.38,288.46c7.97,16.91 0.74,37.09 -16.17,45.06c-16.9,7.97 -37.08,0.73 -45.05,-16.17c-2.49,-5.28 -4.9,-11.05 -7.22,-17.28c-2.25,-6.05 -4.2,-12.01 -5.83,-17.87a222.07,222.07 0 0 1 -6.12,-29.72c-1.33,-9.76 -2.01,-19.9 -2.02,-30.33c0,-18.66 15.13,-33.79 33.79,-33.79c18.66,0 33.79,15.13 33.79,33.79c0,6.98 0.51,14.12 1.49,21.31c0.95,7 2.39,13.93 4.28,20.71c1.21,4.35 2.53,8.46 3.96,12.31c1.37,3.69 3.08,7.7 5.1,11.98z" fill-rule="nonzero"/>
 </g>
</svg>