<svg width="328" height="157" viewBox="0 0 328 157" fill="none" xmlns="http://www.w3.org/2000/svg">
<path d="M242.257 46.9292C246.236 47.8835 249.88 48.2203 253.467 45.5258C253.467 51.7568 253.467 57.4265 253.467 63.3207C266.639 63.3207 279.53 63.3207 292.646 63.3207C292.646 64.1627 292.646 64.7241 292.646 65.5661C289.171 65.5661 285.752 65.5661 282.053 65.5661C287.546 78.9825 292.926 92.1181 298.532 105.815C304.417 92.1181 310.022 78.9825 315.739 65.6223C312.152 65.6223 308.789 65.6223 305.314 65.6223C305.258 64.8925 305.258 64.275 305.202 63.5453C311.647 63.5453 317.981 63.5453 324.651 63.5453C324.819 63.8821 325.156 64.4996 325.548 65.2854C322.97 65.9029 320.672 65.4539 318.149 65.7345C316.916 68.4852 315.571 71.3481 314.338 74.211C312.432 78.7018 310.582 83.1926 308.677 87.6834C304.977 96.3844 301.222 105.085 297.635 113.842C294.44 121.589 291.469 129.392 288.218 137.083C286.2 141.798 284.463 146.682 281.212 150.836C278.577 154.204 275.439 156.225 271.123 156.169C270.282 156.169 269.441 156.112 268.6 156.169C264.341 156.281 259.128 153.362 258.792 146.85C258.567 141.461 261.706 138.935 267.311 139.945C268.825 140.226 270.058 141.012 270.842 142.415C271.291 144.492 270.955 146.401 269.89 148.31C269.049 149.769 269.161 149.994 269.385 152.913C272.132 154.541 275.27 154.204 277.681 151.846C279.923 149.713 281.436 147.018 282.669 144.268C285.248 138.486 287.546 132.592 289.956 126.697C290.74 124.845 291.469 122.936 292.198 121.028C284.799 102.672 277.344 84.2592 269.946 65.8468C264.565 65.8468 259.184 65.8468 253.691 65.8468C253.635 66.2959 253.579 66.6327 253.579 66.9695C253.579 81.1717 253.579 95.4301 253.579 109.632C253.579 111.934 254.083 114.011 255.148 116.032C256.269 118.053 258.007 118.895 260.081 119.119C265.293 119.681 269.161 116.256 270.899 111.709C271.291 110.699 271.515 109.632 271.851 108.285C272.524 108.622 273.141 108.846 273.813 109.183C272.636 114.067 270.506 118.053 265.798 119.961C262.491 121.308 259.072 121.645 255.485 120.972C253.13 120.523 250.776 120.242 248.59 119.175C244.611 117.267 242.761 113.955 242.313 109.745C242.145 108.453 242.257 107.106 242.257 105.815C242.257 93.4654 242.257 81.1156 242.257 68.7658C242.257 67.8677 242.257 66.9134 242.257 65.9029C238.894 65.9029 235.755 65.9029 232.448 65.9029C232.336 65.1732 232.28 64.5557 232.167 63.7137C235.531 63.7137 238.725 63.7137 242.257 63.7137C242.257 57.8195 242.257 52.4866 242.257 46.9292Z" fill="#E4006A"/>
<path d="M135.2 3.98572C132.117 3.81731 129.202 3.64891 126.231 3.42436C126.063 3.42436 125.951 2.97528 125.783 2.80688C125.951 1.62803 126.736 1.5719 127.633 1.5719C131.556 1.5719 135.48 1.5719 139.403 1.5719C141.085 1.5719 142.766 1.5719 144.672 1.5719C144.896 2.18939 145.121 2.80688 145.401 3.64891C142.822 3.64891 140.636 3.64891 138.282 3.64891C133.182 10.722 128.081 17.7389 122.924 24.8119C129.875 34.9724 136.825 45.0768 143.887 55.4057C146.073 55.4057 148.371 55.4057 150.782 55.4057C150.782 56.0231 150.782 56.4722 150.782 57.0336C148.371 57.8756 145.793 56.9213 143.327 57.4265C140.917 57.8756 138.394 57.5949 135.928 57.5388C133.406 57.4827 130.884 57.2581 128.305 57.1458C125.783 57.0897 123.317 57.1458 120.738 57.1458C120.738 56.4722 120.738 56.0793 120.738 55.4057C123.989 55.4057 127.24 55.4057 130.772 55.4057C125.727 48.0519 120.907 40.9789 115.806 33.6252C110.425 40.8666 105.212 47.7151 100.056 55.0127C103.307 55.7425 106.221 55.0127 109.416 55.5179C109.192 56.2477 109.024 56.8652 108.856 57.4827C102.634 57.4827 96.6927 57.4827 90.415 57.4827C90.1908 56.9774 89.9666 56.36 89.6303 55.4618C92.2086 55.4618 94.3946 55.4618 96.7488 55.4618C102.634 47.6028 108.463 39.7439 114.517 31.6043C108.295 22.4542 101.849 13.1358 95.4596 3.81731C92.9934 3.81731 90.7513 3.81731 88.3972 3.81731C88.2851 3.14369 88.229 2.5262 88.1169 1.62803C98.2061 1.62803 108.183 1.62803 118.328 1.62803C118.384 2.30166 118.44 2.91915 118.552 3.81731C115.302 3.81731 112.163 3.81731 108.856 3.81731C111.939 9.26244 120.178 20.9386 122.028 22.5104C126.4 16.2793 130.772 10.1606 135.2 3.98572Z" fill="#E4006A"/>
<path d="M95.2354 25.261C81.6711 25.261 68.6673 25.261 55.5515 25.261C55.3833 25.9907 55.2152 26.496 55.2152 27.0573C55.2152 29.8641 55.047 32.6708 55.2152 35.4776C55.4954 40.0807 56.0559 44.6838 58.0737 48.8939C60.4839 53.8339 64.4075 56.9774 70.1807 57.1458C72.8711 57.202 75.5616 57.3704 78.196 56.6406C82.1195 55.5741 85.5947 53.8339 88.117 50.5219C89.5743 48.6133 90.6953 46.5363 91.48 44.2347C91.6482 43.6734 91.9845 43.112 92.3768 42.3823C92.9934 42.8313 93.4418 43.1681 93.8902 43.505C91.9845 50.6903 87.7246 55.8547 80.6622 57.9879C76.9629 59.1106 73.0393 59.7281 68.9476 59.0544C66.033 58.5492 63.1183 58.2124 60.3718 57.202C50.7872 53.6655 45.126 46.5924 42.8279 36.8249C42.0993 33.7374 41.9311 30.5938 42.2114 27.3941C42.6037 23.5208 43.7808 19.8159 45.5184 16.3916C48.5451 10.4413 53.1413 5.95044 59.0827 2.97527C62.0534 1.51575 65.2482 0.785992 68.5552 0.33691C74.5527 -0.448985 79.8775 1.1228 84.81 4.21025C89.9666 7.40996 93.0494 12.2937 94.3386 18.2441C94.787 20.3211 94.8991 22.5665 95.2354 25.261ZM81.9514 23.3524C81.9514 20.3772 81.8953 17.6827 81.9514 14.9882C82.0074 12.7989 81.503 10.7781 80.8304 8.75721C79.8214 5.66976 77.9718 3.48049 74.6648 2.63846C71.0215 1.68416 67.4903 1.85256 64.1833 3.48049C61.2126 4.99614 59.0827 7.46609 57.9056 10.6658C57.289 12.406 56.5604 14.1462 56.3362 15.9425C55.9999 18.3563 55.1591 20.7702 55.7757 23.3524C64.5196 23.3524 73.0954 23.3524 81.9514 23.3524Z" fill="#E4006A"/>
<path d="M32.907 2.863C33.4114 2.47005 34.9809 1.79643 35.5414 1.7403C35.5414 6.6802 35.5414 11.564 35.5414 16.56C35.0369 16.6161 34.6446 16.6723 34.3082 16.7284C33.1872 14.0901 32.1783 11.4517 30.9452 8.92561C29.3197 5.5575 26.7414 3.14368 23.0981 2.41392C18.6701 1.51575 14.2421 1.79643 10.3746 4.65933C8.18861 6.28725 7.01154 8.53267 6.89944 11.2833C6.84339 12.2937 6.89944 13.3603 6.89944 14.2023C8.18861 17.7389 10.6548 19.6475 14.0739 20.6579C18.4459 22.0051 22.7057 23.7453 27.0217 25.1487C29.8242 26.0469 32.5146 27.2257 34.9248 28.9098C37.1108 30.4816 39.0726 32.2779 40.1936 34.9163C41.2025 37.3862 41.819 39.8 41.3146 42.6629C40.8101 45.3574 40.3057 47.8835 38.7923 50.1851C35.5414 55.125 30.8892 57.6511 25.172 58.8299C19.8472 59.9526 14.9707 58.4931 10.0383 56.9774C8.97332 56.6406 7.9644 56.3038 6.89944 55.9109C4.88161 55.125 2.97589 54.9566 1.46252 56.9774C1.35042 57.0897 1.12622 57.0897 0.958064 57.1458C0.789911 57.1458 0.565709 57.0897 0.397556 57.0897C-0.0508495 55.125 -0.162951 42.7752 0.285455 39.1825C0.621759 39.1264 0.958064 39.1264 1.29437 39.0703C2.24723 41.428 2.97589 43.7856 4.15296 45.9188C6.00263 49.4553 8.30071 52.7111 12.0001 54.6197C16.4281 56.9213 21.0242 57.8756 25.8446 56.4161C30.0484 55.1811 32.2344 51.0832 32.1223 47.8835C32.0662 46.1433 32.2904 44.4031 31.6739 42.6629C30.4407 39.3509 27.6382 37.9476 24.6675 36.8249C20.0153 35.0847 15.3631 33.4567 10.7109 31.7727C6.05868 30.0886 2.69564 27.0573 1.68672 22.1735C0.453607 16.2793 0.902013 10.4974 5.66633 5.7259C8.74911 2.63846 12.2803 1.01054 16.5402 0.280778C21.0242 -0.505117 25.0599 0.449183 29.1516 2.02097C30.4407 2.52619 31.842 2.63846 32.907 2.863Z" fill="#E4006A"/>
<path d="M208.29 104.299C208.85 104.636 209.355 104.861 209.915 105.198C208.066 112.551 203.581 117.604 196.519 119.793C192.82 120.916 188.896 121.477 184.804 120.747C181.441 120.13 178.078 119.681 174.94 118.333C166.98 114.965 161.712 109.183 159.301 100.763C158.18 96.7773 157.9 92.6795 158.292 88.6377C158.909 82.5751 161.095 77.0177 165.187 72.3585C166.644 70.6744 168.326 69.1588 170.063 67.7554C173.65 64.8925 177.854 63.2646 182.282 62.3664C189.905 60.8508 197.136 61.8612 203.694 66.0713C207.337 68.429 209.467 71.9655 209.299 76.6248C209.187 79.8245 207.225 82.3506 204.086 82.7997C202.18 83.0803 200.218 82.8558 198.425 81.9576C197.024 81.2279 196.239 80.1613 196.351 78.6456C196.463 77.0177 196.911 75.3898 197.248 73.7619C197.472 72.6953 197.808 71.6287 197.976 70.5622C198.313 68.3729 197.304 66.745 195.51 65.6223C193.773 64.5557 191.923 63.7137 189.793 63.7698C187.775 63.8259 185.701 63.8821 183.74 64.2189C178.639 65.0048 175.668 68.3729 173.987 72.976C172.529 76.7932 171.801 80.7788 171.633 84.8767C171.52 87.8518 171.184 90.827 171.24 93.746C171.296 98.7421 171.745 103.682 173.426 108.453C174.547 111.597 176.173 114.516 179.087 116.425C181.273 117.828 183.683 118.67 186.318 118.839C190.746 119.063 194.95 118.614 198.929 116.481C202.797 114.404 205.319 111.316 206.945 107.331C207.393 106.32 207.841 105.31 208.29 104.299Z" fill="#E4006A"/>
<path d="M216.417 65.5661C213.11 65.5661 209.971 65.5661 206.776 65.5661C206.664 65.1732 206.496 64.8925 206.552 64.668C206.664 64.275 206.889 63.8821 207.057 63.433C213.951 63.433 220.733 63.433 227.739 63.433C227.739 81.284 227.739 99.0789 227.739 117.154C231.158 117.154 234.409 117.154 237.716 117.154C237.716 117.828 237.716 118.221 237.716 118.67C237.604 118.782 237.436 118.951 237.324 118.951C229.309 119.119 221.35 119.231 213.334 119.4C211.317 119.456 209.243 119.4 207.057 119.4C206.832 118.782 206.608 118.221 206.272 117.323C209.747 117.098 212.998 117.323 216.193 117.154C216.697 114.685 216.866 74.1548 216.417 65.5661Z" fill="#E4006A"/>
<path d="M103.419 95.5985C103.419 85.6064 103.419 75.1091 103.419 64.4996C102.074 64.3312 100.784 64.2189 99.3831 64.0505C99.6634 63.6575 99.7755 63.3769 99.8876 63.3769C102.578 63.3769 105.268 63.3769 108.239 63.3769C108.239 69.664 108.239 75.9512 108.239 81.9015C109.528 80.8349 110.817 79.7122 112.387 78.365C114.741 78.1404 117.375 77.9159 119.898 77.6914C120.458 78.0843 120.795 78.4211 121.187 78.6457C123.821 79.8806 124.718 82.0138 124.662 84.7644C124.606 89.0868 124.662 93.3531 124.662 97.6755C124.662 98.293 124.662 98.9666 124.662 99.6964C126.063 99.8087 127.296 99.8648 129.034 99.9771C126.848 101.044 118.104 101.044 116.086 100.202C117.319 99.3596 118.721 100.145 120.066 99.528C120.066 93.9706 120.122 88.3009 120.01 82.6313C120.01 81.7331 119.505 80.8911 119.337 80.2174C116.983 77.7475 113.06 78.8702 110.817 81.3402C109.416 82.8558 108.407 84.7083 108.351 86.7853C108.239 91.0516 108.295 95.3178 108.295 99.7525C109.64 99.8648 110.874 99.9209 112.107 99.9771C112.107 100.145 112.163 100.314 112.163 100.482C111.826 100.595 111.434 100.819 111.098 100.819C108.968 100.875 106.782 100.819 104.652 100.819C102.914 100.819 101.177 100.875 99.4392 101.268C97.9258 101.605 96.2443 101.549 94.7309 101.324C92.2647 100.931 90.359 98.7982 90.415 95.9915C90.4711 91.3322 90.415 86.6169 90.415 81.9576C90.415 81.2279 90.415 80.4981 90.415 79.5438C89.5743 79.4877 88.9017 79.4877 88.173 79.3754C87.6125 79.3193 87.052 79.207 86.0991 79.0386C87.6125 77.9159 89.0138 78.7579 90.415 78.0843C90.415 76.1196 90.415 73.9864 90.415 71.8533C92.1526 71.8533 93.6099 71.8533 95.1793 71.8533C95.1793 73.8742 95.1793 75.895 95.1793 78.0282C97.6456 78.8702 100.168 77.8598 103.139 78.8702C100.224 79.8806 97.7577 78.9825 95.2354 79.6C95.2354 81.4524 95.2354 83.1926 95.2354 84.9328C95.2354 88.8623 95.2354 92.7918 95.2354 96.7212C95.2354 98.0685 95.2914 99.3596 97.029 100.37C98.0379 100.819 99.271 100.202 100.392 99.5841C101.457 98.3491 102.298 97.1142 103.419 95.5985ZM103.251 97.7317C102.746 98.5737 102.466 99.0789 102.018 99.8087C102.634 99.7525 102.914 99.7525 103.419 99.7525C103.363 99.0789 103.307 98.5737 103.251 97.7317Z" fill="#0E0E0E"/>
<path d="M168.942 56.6406C164.907 59.279 160.366 58.6054 157.676 54.8443C157.676 53.6655 157.676 52.3743 157.676 51.1394C158.405 49.2869 159.75 48.2203 161.487 47.6028C163.113 47.0415 164.794 46.5363 166.42 45.9188C167.709 45.4697 168.998 44.9083 170.007 44.5154C171.577 42.2139 171.24 39.9123 170.848 37.723C170.512 35.7022 168.326 34.6356 165.972 35.2531C165.187 35.4215 164.458 35.9267 163.729 36.2635C163.729 37.8914 163.729 39.4071 163.729 40.8105C163.001 42.7191 161.544 42.5507 159.862 42.2138C159.526 41.5964 159.133 40.9789 158.853 40.4175C159.245 38.4528 159.75 36.7126 161.544 35.7022C164.738 33.9058 168.045 33.7936 171.408 35.0847C174.155 36.1512 175.5 38.1721 175.5 41.0911C175.556 45.3013 175.5 49.5114 175.556 53.7216C175.556 54.6198 175.724 55.5179 175.836 56.4161C177.574 56.4161 179.031 56.4161 180.601 56.4161C180.601 49.5676 180.601 42.8875 180.601 35.9267C179.536 35.8144 178.415 35.7583 176.901 35.5899C179.087 34.9724 182.787 34.9163 185.477 35.4215C185.477 36.5442 185.477 37.723 185.477 39.3509C186.15 38.5651 186.486 38.116 186.878 37.6669C189.793 34.2426 193.548 33.8497 197.528 34.9163C200.387 35.646 201.844 37.6669 201.9 40.6421C201.956 45.4136 201.956 50.1851 201.956 54.9566C201.956 55.3495 201.956 55.6863 201.956 56.3038C203.245 56.4161 204.478 56.4722 206.104 56.6406C205.655 57.0897 205.431 57.4827 205.207 57.4827C201.676 57.5388 198.089 57.5388 194.557 57.4827C194.221 57.4827 193.941 57.202 193.605 56.6406C194.782 56.5845 195.959 56.4722 197.416 56.4161C197.416 54.9566 197.416 53.6093 197.416 52.2059C197.416 48.1642 197.416 44.1786 197.416 40.1368C197.416 37.1055 196.855 36.3758 193.941 35.2531C188.112 36.3758 185.589 39.4071 185.589 45.4136C185.589 49.0624 185.589 52.655 185.589 56.4161C187.047 56.5284 188.28 56.5845 189.513 56.6406C189.513 56.809 189.569 56.9774 189.569 57.1458C189.233 57.2581 188.84 57.4827 188.504 57.4827C186.15 57.4827 183.852 57.4265 181.498 57.4827C180.208 57.5388 178.919 57.6511 177.63 57.9879C176.005 58.3808 174.491 57.9879 172.866 57.3142C172.305 56.5284 171.633 55.6863 170.96 54.7882C170.624 55.0127 170.343 55.2372 170.063 55.4618L169.895 55.2934C171.016 52.0937 171.464 48.7817 170.96 45.4136C168.998 46.1995 167.149 46.8169 165.411 47.6028C163.169 48.5571 161.992 50.0728 162.16 53.1602C162.272 55.5741 163.673 56.5845 165.747 56.9774C166.756 56.7529 167.765 56.5845 168.774 56.36C168.83 56.4722 168.886 56.5845 168.942 56.6406Z" fill="#0E0E0E"/>
<path d="M221.238 56.1915C219.5 58.6615 216.922 58.4931 214.511 57.8756C209.467 56.6406 206.552 53.1041 205.599 48.2203C204.703 43.505 206.384 39.3509 210.252 36.3758C213.054 34.2426 216.249 33.4567 219.612 34.9162C221.013 35.4776 222.078 36.7687 223.423 37.7792C223.423 32.2779 223.423 26.6644 223.423 20.8824C221.91 20.714 220.733 20.6017 219.052 20.4333C220.957 19.6474 222.415 20.0404 223.816 19.9843C225.217 19.9281 226.618 19.9843 228.188 19.9843C228.188 32.1656 228.188 44.1786 228.188 56.0793C229.477 57.0897 231.102 55.8547 232.279 57.0336C230.206 57.7072 225.385 57.651 223.648 56.9213C223.704 55.967 223.816 55.0127 223.872 53.7216C223.087 54.4513 222.471 55.0127 221.91 55.574C221.798 55.5179 221.742 55.4056 221.63 55.3495C222.19 53.8338 223.143 52.3182 223.255 50.6903C223.536 47.659 223.536 44.5154 223.255 41.4841C222.919 38.3405 221.181 35.9267 217.818 35.4215C216.529 35.1969 215.128 35.5337 214.231 35.5899C211.821 37.3862 211.092 39.5755 210.98 41.9332C210.868 44.4592 210.868 46.9853 210.98 49.4553C211.036 50.8025 211.26 52.2059 211.597 53.5532C212.157 55.7424 213.727 56.8652 216.025 57.0897C217.874 57.2581 219.444 56.6406 221.013 55.8547C221.013 56.0231 221.125 56.1354 221.238 56.1915Z" fill="#0E0E0E"/>
<path d="M149.268 88.0203C143.663 88.0203 138.563 88.0203 133.462 88.0203C132.677 89.3675 132.902 90.7148 133.07 91.9497C133.294 93.8583 133.686 95.7669 134.359 97.5633C135.088 99.4719 136.657 100.482 138.731 100.426C140.524 100.37 142.374 100.089 144.28 99.9209C145.457 98.2369 146.522 96.6651 147.699 94.8688C147.643 94.8688 147.979 94.8688 148.316 94.8688C148.372 95.0933 148.54 95.3179 148.484 95.4301C147.755 97.3949 146.858 99.2473 144.84 100.37C143.775 100.988 142.71 101.38 141.477 101.437C139.516 101.493 137.554 101.437 135.984 101.437C133.35 100.202 131.22 99.0789 129.707 96.8896C126.736 92.5672 126.736 87.066 129.875 82.5751C132.902 78.2527 138.114 76.6809 143.215 78.5334C145.905 79.4877 147.475 81.6208 148.428 84.2031C148.932 85.3258 148.988 86.5046 149.268 88.0203ZM139.123 78.5334C134.359 79.207 133.294 82.7997 133.35 86.8414C136.713 86.8414 140.132 86.8414 143.439 86.8414C144.112 82.0699 143.103 78.9825 139.123 78.5334Z" fill="#0E0E0E"/>
<path d="M322.465 70.6183C322.353 69.1588 323.754 69.4395 324.595 68.6536C325.268 69.3833 325.828 70.0008 326.389 70.6183C326.052 70.6744 325.772 70.6744 325.212 70.7306C325.212 71.5165 325.212 72.1901 325.212 72.9198L325.268 72.8637C324.931 72.583 324.651 72.2462 324.371 72.0217C324.091 72.3024 323.81 72.583 323.53 72.8637L323.586 72.9198C323.586 72.0217 323.586 71.1235 323.586 70.1692C323.082 70.2815 322.801 70.4499 322.465 70.6183ZM324.539 70.7867C324.483 70.7867 324.427 70.6744 324.371 70.7306C324.315 70.7306 324.259 70.8428 324.203 70.899C324.315 70.9551 324.427 70.9551 324.539 71.0112C324.539 70.899 324.539 70.8428 324.539 70.7867Z" fill="#E4006A"/>
<path d="M326.389 72.2462C326.557 73.1444 326.052 73.7619 325.268 73.8741C324.203 73.9864 322.97 74.2671 322.465 72.8076C322.857 72.8076 323.25 72.8076 323.642 72.8076L323.586 72.7514C324.259 73.5935 324.651 73.5935 325.324 72.7514L325.268 72.8076C325.604 72.6953 325.996 72.4708 326.389 72.2462Z" fill="#E4006A"/>
<path d="M170.063 55.5179C170.063 56.2477 169.671 56.5845 168.942 56.6406C168.886 56.5845 168.83 56.4722 168.718 56.4161C169.11 56.0231 169.503 55.6863 169.839 55.2934C169.895 55.2934 170.063 55.5179 170.063 55.5179Z" fill="#0E0E0E"/>
<path d="M322.465 72.8076C321.736 71.9656 321.736 71.3481 322.465 70.5622C322.465 71.3481 322.465 72.0778 322.465 72.8076Z" fill="#E4006A"/>
<path d="M326.389 70.6183C327.229 71.1796 327.342 71.741 326.389 72.3024L326.445 72.3585C326.389 71.741 326.389 71.1235 326.389 70.6183Z" fill="#E4006A"/>
<path d="M221.798 55.6302C221.63 55.7986 221.406 56.0231 221.238 56.1915C221.125 56.0793 221.069 56.0231 220.957 55.9109C221.125 55.7425 221.35 55.5179 221.518 55.3495C221.574 55.4618 221.686 55.5179 221.798 55.6302Z" fill="#0E0E0E"/>
</svg>
