<svg id="Layer_1" data-name="Layer 1" xmlns="http://www.w3.org/2000/svg" viewBox="0 0 1568 260"><defs><style>.cls-1{fill:#ee3e93;}</style></defs><path d="M517,122.1l-7.54-1.38c-.16-2.41-.94-5-.36-7.32,1.73-6.91,3.95-13.7,6-20.5.92-3,2-5.87,3-8.64h30.68c3.77,11.82,7.44,23.3,11.07,34.66L557,123.46H620.8l.06-1c-11.24-3.79-11.25-3.79-12.1-16.67,0-.34,0-.67,0-1Q608.13,73.9,607.59,43a23.67,23.67,0,0,1,.66-3.73c1.52,1.89,2.54,3.18,3.58,4.44q32.42,39.16,64.87,78.3c1.16,1.39,2.75,2.42,5.12,4.45.33-3.24.67-5.12.7-7q.65-43.56,1.25-87.13c.07-4.47.4-9,.7-13.41.29-4.27,2.21-7.23,6.76-8a21.57,21.57,0,0,0,3-1c-5.11-1.71-29.9-1.35-32.37.31a7.54,7.54,0,0,0,1.39.55c9,1.33,10.2,2.22,10.5,11.24.76,23.06,1.2,46.12,1.73,69.18,0,.83-.45,1.67-1,3.47-24.56-30-48.56-59.3-72.55-88.59l-1.51.42a60.52,60.52,0,0,0-.75,6.55c-.36,30.87-.64,61.74-1,92.61a41.68,41.68,0,0,1-1.24,10.83,7.78,7.78,0,0,1-4.44,4.58c-7,2.22-13-.21-16.41-6.78a119.14,119.14,0,0,1-6.71-16c-10.09-29.33-20-58.72-30.05-88.06-.57-1.68-1.71-3.16-3.12-5.71A52.05,52.05,0,0,0,533.84,10c-2.15,6.1-4.19,12.24-6.25,18.37q-13.5,40.08-27,80.16c-2.39,7.09-5.62,13.3-14.55,13.34-.16,0-.31.49-.8,1.29h31.64Zm15.67-84.6,1.68.08c3.89,12.71,7.79,25.42,11.89,38.81H520.52Z"/><path d="M690.56,243.54a119.7,119.7,0,0,1-.83-12.4q-.12-38.07,0-76.16a46.29,46.29,0,0,1,.89-8.38,5.83,5.83,0,0,1,5.8-5.19,40.12,40.12,0,0,0,4.44-.79l-.12-1.41c-4.43-1.31-9-.13-13.48-.05-4.66.07-9.32.08-14-.1-4.36-.16-8.76-1.05-13,.78a3.24,3.24,0,0,0,2.2,1.44c8.9,1.18,10,2.34,10.24,11.15.23,9.46.43,18.91.53,28.36a47.27,47.27,0,0,1-.68,6.09H619c-.17-1.86-.41-3.3-.41-4.75,0-9.46,0-18.92.14-28.37a50.33,50.33,0,0,1,.82-6.9c.53-3.41,2.51-5.23,6-5.46a26.24,26.24,0,0,0,4.2-1c-.09-.43-.17-.86-.26-1.29H588.89l-.13,1.68c1.72.2,3.43.43,5.15.59,4.61.41,6.93,2.52,7.57,7.05a29.23,29.23,0,0,1,.16,4q0,41.07,0,82.13a90.52,90.52,0,0,1-.91,10.89c-.4,3.29-2.09,5.47-5.72,5.82a17,17,0,0,0-3.72,1.27l.33.77h41c0-.38.09-.76.14-1.14-1.57-.33-3.12-.79-4.7-1-7.1-.85-8.25-1.8-8.49-8.89-.46-14.08-.7-28.17-1-42.26a32.22,32.22,0,0,1,.53-4.49h53.29a16.54,16.54,0,0,1,.79,3.59c-.19,14.1-.33,28.2-.81,42.29-.1,3.12-1.49,6.2-2.21,9-2.16.37-3.31.5-4.43.79s-2.3.75-4,1.33c5.07,1.92,39,1.71,42.51-.3-2.24-.45-4-.91-5.75-1.12C692.79,250.48,691.15,249.05,690.56,243.54Z"/><path d="M814.26,59.16C812.15,31.42,796.56,9.78,763.2,9c-16.15-.35-32.3-.21-48.45-.24a32.64,32.64,0,0,0-4.26.54l.12,1.1c.79.17,1.57.36,2.36.49,7.33,1.29,8,2,8.94,9.49a68,68,0,0,1,.49,7.94c.05,15.94.16,31.88,0,47.81-.11,12.28-.38,24.56-1,36.82-.14,2.63-1.85,5.5-3.62,7.59-1,1.2-3.63,1-5.53,1.49l.06,1.37c1.72.08,3.43.2,5.15.25,8.3.25,16.64.13,24.91.82,10.33.86,20.56,1.63,30.77-1,13.65-3.46,24.65-10.47,32-22.77C812.8,87.89,815.37,73.83,814.26,59.16ZM795.07,91.91c-5.53,20.31-22.43,28.35-42.89,26.29-.83-.08-1.64-.32-2.45-.48-8.35-1.62-11-4.58-11.25-13.13-.32-12.28-.54-24.56-.56-36.84,0-14.44.17-28.88.31-43.32,0-2.14.23-4.28.4-7.26a42.11,42.11,0,0,1,5.48-1.27c29.34-2.72,48,14.61,52.44,40.46A81.73,81.73,0,0,1,795.07,91.91Z"/><path d="M778.44,238.4c-1.16,3.81-3.64,6.78-7.57,7.06a171.16,171.16,0,0,1-20.26.14c-3.27-.15-5.31-2.64-6-5.84a30.76,30.76,0,0,1-.9-6.38c-.11-10.61-.1-21.23-.07-31.85a44.2,44.2,0,0,1,.55-5c7.24,0,14-.39,20.77.12,4.82.37,6.71,2.94,7.58,7.88.22,1.25.46,2.49.7,3.74l1.35-.18c.51-7.71,1-15.42,1.54-23.23-10.6,6.1-21.28,2.57-32,4v-42.8c7.68.45,14.79.67,21.85,1.34,5.43.51,7.44,2.74,8.46,8.16.23,1.27.51,2.53.76,3.8l1.66-.11c.46-7.07.92-14.15,1.39-21.36-21.69,2.94-42.86.7-64,.85v1.36c.2.24.38.66.63.7,1.29.24,2.59.44,3.9.56,4.59.44,6.62,2.12,7.5,6.53a24.8,24.8,0,0,1,.37,4.95q0,42-.07,84.1a42.13,42.13,0,0,1-1.11,8.86,22.23,22.23,0,0,1-2.06,4.63l-7.26,1.71c.05.41.11.82.16,1.24a35.15,35.15,0,0,0,3.66.45q25.95.41,51.9.7a52.07,52.07,0,0,0,6.83-.81c2.95-7.28,3.06-14.33,2.09-21.55A27,27,0,0,0,778.44,238.4Z"/><path d="M498,137.77c-2.22,3.75-4.41,17.07-3.13,20.53a2.52,2.52,0,0,0,.84-.4,3.28,3.28,0,0,0,.78-1.26c2-7.29,7.48-9.14,14.17-9.21,6-.06,12-.18,18-.18a23.19,23.19,0,0,1,3.84.65c.1,1.9.23,3.38.24,4.86,0,24.9.09,49.79,0,74.69,0,5.63-.72,11.25-1,16.87-.21,4-1.81,6.6-6.18,7a16.5,16.5,0,0,0-3.73,1.24l.33.73h41.42l.09-1.15c-1.9-.34-3.8-.76-5.72-1-5.25-.6-6.58-1.64-7.45-6.93a62,62,0,0,1-.81-9.9q-.09-40.59,0-81.17v-6.27c8.89.49,17,.53,25,1.52,5.15.63,8.82,3.83,9,9.66,0,.52.48,1,.74,1.52l1-.15V138.54C556,139.53,527.18,140.48,498,137.77Z"/><path class="cls-1" d="M1566.76,12.58C1563,6.5,1555,3.85,1548,6.33s-11,9-10.14,16.85c.71,6.72,6.43,12.22,13.56,13,8.19.93,13.3-2.35,17.59-11.32v-8C1568.26,15.48,1567.61,14,1566.76,12.58Zm-13.2,21.08c-6.87.08-12.33-5.57-12.34-12.75a12.42,12.42,0,0,1,12.37-12.73,12.61,12.61,0,0,1,12.2,12.51A12.56,12.56,0,0,1,1553.56,33.66Z"/><path class="cls-1" d="M501.91,249.42c-1.3-.23-2.62-.4-3.93-.55-8.47-1-16.48-3.35-22.43-9.72a73,73,0,0,1-9.39-12.81c-12.25-20.92-24.3-42-36.36-63-8.59-15-17.09-30-25.92-45.52,6-9.3,11.82-18.37,17.68-27.42,13.56-20.91,27.18-41.77,40.66-62.73,5.69-8.84,13.28-14.17,24.09-14.54,1.76-.07,3.49-1,5.33-1.58-1.19-4.14-4-3.62-6.35-3.62q-29.44-.06-58.91,0a7.29,7.29,0,0,0-2.48.09,38.15,38.15,0,0,0-4,2.06l.05,1.32a23.28,23.28,0,0,0,4.17,1.64c2.44.47,5,.48,7.43.89,5,.84,7.45,3.87,6.54,8.72-.67,3.54-1.48,7.29-3.27,10.33-12.85,21.92-26,43.68-39,65.48a21.11,21.11,0,0,1-2.22,2.48c-.95-1.39-1.77-2.36-2.36-3.46C381.42,79.25,371.53,61,361.79,42.67a194,194,0,0,1-8.63-17.92c-2.81-6.9-.8-9.87,6.52-11,2.44-.37,4.88-.8,7.68-1.25V8.31c-2.38-.13-4.5-.37-6.61-.33-13.15.2-26.3.65-39.45.66-11.32,0-22.64-.35-33.95-.78-3-.12-5.87-1.08-8-1.49-10.05.72-19.46,1.91-28.89,2-26,.2-51.94,0-77.91-.16-10.66,0-21.32-.19-32-.24-2.55,0-5.24.09-4.13,4.63,4.16.43,8.41.93,12.67,1.29,9.49.8,14.45,5.08,15.76,14.22a95.16,95.16,0,0,1,.95,13.39q.08,83.69-.1,167.35a210.25,210.25,0,0,1-2.06,25.78c-1.25,9.81-4.19,12.46-13.91,13.89-2.13.31-4.34.17-6.45.56a14.12,14.12,0,0,0-3.47,1.7l.12,1.77c2.21.51,4.43,1.47,6.64,1.44,11.32-.13,22.64-.91,33.95-.75,28.63.41,57.25,1.23,85.88,1.82,4.15.08,8.31-.2,12.47-.31,13.62-.38,27.24-.88,40.86-1.08,7.49-.11,15,.35,22.48.4,2.19,0,4.84.23,5.29-3-.38-.51-.62-1.17-1-1.25-2.74-.58-5.52-1-8.26-1.58-5.38-1.12-7.35-3.34-6.5-8.67a30.93,30.93,0,0,1,3.52-10.23c13.93-24.56,28.05-49,42.13-73.47.86-1.5,1.91-2.89,3.12-4.7a23.65,23.65,0,0,1,1.92,2.45q23.19,42.94,46.26,86c1,1.82.72,4.3.94,5.81l-5.95,4.74c.06.51.12,1,.17,1.52,1.92.5,3.82,1.36,5.75,1.44,11,.42,22,.77,33,.92,11.65.16,23.31.1,35,.07,2.61,0,5.49,0,5.32-3.77C502.4,249.83,502.19,249.47,501.91,249.42Zm-146-92.69q-24,36.71-48,73.36c-4.13,6.26-8.88,12.1-15.91,15.43a64.46,64.46,0,0,1-7.4,2.39c1-14.8,4.49-28.27,2.92-41.88-3.25-1.48-4,.53-4.45,2.53-.84,3.37-1.31,6.85-2.33,10.17-3.57,11.71-11,17.8-23.27,18.28a310.09,310.09,0,0,1-34.36-.07c-11.16-.81-17-5.65-18.42-16.64a90.42,90.42,0,0,1-.84-10.9q-.1-36.09,0-72.2c0-1.93.25-3.87.41-6.23a49.37,49.37,0,0,1,5.18-.49c13.31.31,26.63.5,39.93,1.08,10.62.47,16.6,6.87,17.55,18,.24,2.9.64,5.78.95,8.56,4.1.64,4.05-1.85,4.22-3.93.59-7.27,1-14.55,1.63-21.82s1.34-14.52,2-21.78c.14-1.71,0-3.44,0-5.17l-1.33-.61c-1.33,1-2.95,1.73-4,3a14.77,14.77,0,0,1-11.3,5.61c-17.13.6-34.27.87-51.41,1.21a14.94,14.94,0,0,1-3.33-.82V25.87c.69-.33,1.27-.88,1.84-.86,15.46.46,31,.06,46.33,1.74,14.41,1.59,18.15,7,19.16,21.47.11,1.62.29,3.23.44,4.77,2.88,1.28,4.17.12,4.53-2.24.49-3.27.84-6.57,1.1-9.87.23-2.81.13-5.64.37-8.45.53-6.09,1.19-12.17,1.83-18.67,6.45-.81,12.08.88,17.48,3.39,8.82,4.1,14.74,11.24,19.41,19.45,9.78,17.16,19.4,34.41,29.08,51.63q11.32,20.19,22.63,40.4c.8,1.44,1.54,2.91,2.51,4.76C366,141.17,361,149,355.94,156.73Z"/><path class="cls-1" d="M1520.15,9.16c-9.15.13-18.3.77-27.45.76-10,0-20-.61-29.94-.78-1.9,0-3.82.7-5.72,1.08-.08.65-.17,1.3-.25,1.95,1.74.88,3.43,1.87,5.23,2.61,4.73,2,6.74,4.06,6,9-.8,5.67-1.9,11.58-4.35,16.69-8.82,18.4-18.26,36.51-27.47,54.73-5.38,10.63-10.78,21.26-16.76,33-1.38-2.3-2.26-3.64-3-5-11.54-21.69-23.19-43.33-34.53-65.13q-8.39-16.1-15.75-32.71c-2.62-5.88-.79-8.75,5.33-11a38.47,38.47,0,0,0,4.38-2.24l-.15-1.79c-2.08-.42-4.16-1.2-6.24-1.19-15,.14-30,.56-44.93.6-3.29,0-6.57-1.16-9.86-1.79-7.94.29-16,1.85-24.11,1.89q-64.21.38-128.41,0a200.81,200.81,0,0,1-23.36-1.79c-4.36-.53-8.59-2.06-13.31-3.25-.73,1.39-1.82,2.6-2,3.93-1.71,12.81-3.34,25.64-4.78,38.48-.18,1.66.91,3.46,1.41,5.19l1.85.24a67.24,67.24,0,0,0,3-6.72c3.42-10.25,9.75-16.8,21.19-17.25,3.82-.15,7.63-.62,11.45-.78,8.65-.34,17.3-.64,26-.83,5.58-.12,11.17,0,17,0,.17,2,.41,3.48.4,4.93-.24,61.42-.42,122.84-.9,184.26-.05,7.22-1.49,14.48-2.73,21.64-.82,4.7-4.08,7.5-8.9,8.19-3,.42-6,.52-8.91,1a26.28,26.28,0,0,0-4.68,1.82c2.54,4.05,5.77,3.27,8.61,3.26,18.81,0,37.61-.23,56.42-.27,8.16,0,16.32.23,24.48.26,2.41,0,5.14.17,5.79-4.13-2-.36-3.74-.78-5.55-1-5.11-.66-10.24-1.15-15.34-1.87-4-.57-6.62-3.16-8-6.76a29.87,29.87,0,0,1-2.09-8.66c-.74-13.75-1.62-27.51-1.68-41.27-.24-52-.18-103.93-.21-155.89,0-1.76.27-3.52.46-5.79,2.61,0,4.75,0,6.88,0,11,.33,22,.57,32.94,1.1A78.54,78.54,0,0,1,1291,29.61c16.24,3.59,20.1,10.6,20.2,21.8,0,1.47,1.18,2.93,1.81,4.4l2.06-.21c2.37-10.73,1.24-21.9,2.45-33.51a57.42,57.42,0,0,1,15.13,17.73q26.37,45.75,52.16,91.8a64.87,64.87,0,0,1,8.4,32.91c-.21,16.1,0,32.2-.11,48.3a148.53,148.53,0,0,1-.77,16.89c-1.67,13.67-5,16.56-18.85,17.36a28.37,28.37,0,0,0-5.17,1.3l-.12,1.63a17.77,17.77,0,0,0,3.93,2,21.62,21.62,0,0,0,5,.18c17.81-.09,35.61-.24,53.41-.26,8.66,0,17.32.32,26,.25,2.21,0,4.41-1,6.61-1.52,0-.71,0-1.43.05-2.14a29.81,29.81,0,0,0-5-1.45c-4.13-.48-8.31-.55-12.43-1.07-8-1-11.88-4.63-13.56-12.39a36.37,36.37,0,0,1-1-7.39c-.16-22.41-.17-44.82-.32-67.23a62.63,62.63,0,0,1,7.68-30.07c10.39-19.66,20.65-39.4,31.58-58.76,7.66-13.58,16.12-26.72,24.64-39.78,6.23-9.55,15.35-14.95,26.84-16.24,1.57-.18,3-1.12,4.56-1.71,0-.64,0-1.28,0-1.91C1524.17,10,1522.15,9.14,1520.15,9.16Z"/><path class="cls-1" d="M1020.17,193.51c-.91,3.1-1.77,6.24-2.76,9.34-4.1,12.84-11.09,23.65-23.78,29.23a74.25,74.25,0,0,1-20.56,5.43c-12.9,1.6-26,2.13-38.64-1.75-31.42-9.62-52.74-30.61-64.65-60.53-13.65-34.31-13.22-69.57-1.6-104.28,7.49-22.41,22.12-39.55,45.56-46.79,23.67-7.31,47.36-5.62,70.46,3.13,20,7.57,30.45,22.12,31.28,43.55.08,2,1.31,3.88,2,5.82l2.11-.06c.59-1.83,1.6-3.64,1.69-5.5.77-15.24,1.36-30.49,2-45.73.15-3.42.32-6.85.5-10.78a48.19,48.19,0,0,0-5-1.43C1002.53,10.59,986.33,7.6,970,5.68a187.06,187.06,0,0,0-54.22,1.46c-39.59,6.91-68.66,28.22-85.22,64.74-16.35,36.06-16.47,73.34-2,109.89,16,40.33,47.47,62.73,89.43,71.38a199,199,0,0,0,61.59,2.68c10.58-1.13,21.17-2.25,31.11-6.5,3.65-1.56,6.15-4,6.92-7.87,1.6-8.12,3.29-16.23,4.58-24.4,1-6.37,1.54-12.83,2.11-19.26C1024.55,195.39,1024.17,193.06,1020.17,193.51Z"/><path class="cls-1" d="M88.17,112c-8.64-7.54-17.61-14.71-26.23-22.28-7.78-6.82-14.91-14.26-19-24-6.12-14.52-2-32,9.65-40.58,12.23-9.08,33-9.91,45.89-1.75,11.8,7.47,17.64,18.56,19.44,32.09a52.83,52.83,0,0,0,1.35,5.59h1.42c.73-.79,2.06-1.54,2.1-2.37.79-15.84,1.44-31.7,2.12-47.85a38.28,38.28,0,0,0-5.7-2.55c-4.34-1.14-8.71-2.19-13.13-2.92C87.63,2.3,69.25,1.55,51.33,8c-18.77,6.78-32.28,19.07-38,38.55-5,16.91-3.09,33.51,3.94,49.54,6.9,15.71,18.27,28,30.79,39.37,11.2,10.15,22.87,19.81,33.85,30.2a55.59,55.59,0,0,1,16.85,32C101.52,214.56,93.9,231,79,238.89c-7.77,4.12-16.18,4.71-24.77,4.27-15.53-.8-27.28-7.77-34.88-21.34-4.8-8.58-6.53-18-7.43-27.67a42.7,42.7,0,0,0-1.32-5.7l-2.42-.11c-.72,1.86-2,3.69-2.07,5.59C5.3,209,4.78,224.09,4,239.17c-.31,6.12,2.17,9.88,8,12.19,19.24,7.64,39,9.19,59.32,6,16.87-2.63,31.83-9.37,42.68-22.64,20.46-25,21.31-52.8,8.72-81.34C115.26,136.51,101.89,124,88.17,112Z"/><path class="cls-1" d="M1118.61,247c-5.1-.65-10.24-1-15.33-1.79-5.89-.86-9.12-4.75-9.91-10.33a141.51,141.51,0,0,1-1.83-19.78q-.26-87.88-.09-175.77a75.65,75.65,0,0,1,2-15.24c1-4.58,4.14-7.5,8.88-8.36,3.27-.6,6.6-.87,9.84-1.57a19.9,19.9,0,0,0,4.23-2l-.21-1.85c-2.11-.41-4.23-1.21-6.34-1.18-10.14.15-20.29.78-30.43.74-14.65,0-29.29-.57-43.93-.73-2.21,0-4.43.86-6.64,1.32l-.09,1.82a14.61,14.61,0,0,0,3.49,1.7c2.44.48,5,.55,7.43.9,8.8,1.26,12.95,4.8,13.71,13.7,1,11,1.2,22.18,1.21,33.28q.11,73.44-.2,146.89a248.8,248.8,0,0,1-2.11,27.23c-.69,5.9-4.25,9.55-10.51,10.16-3.92.39-7.81,1-11.52,1.47-1.33,2.73-.12,3.86,2,4.22a33.21,33.21,0,0,0,5.47.32c16.8-.08,33.6-.27,50.41-.29,9.82,0,19.64.33,29.46.27,2.21,0,4.41-1,6.61-1.57l-.18-2.37C1122.2,247.82,1120.43,247.27,1118.61,247Z"/><path class="cls-1" d="M1560.48,19.29c-.16-1.8-.33-3.69-.59-6.64l-12.44-1c.52,6.77-.85,12.6.89,18.18h1.41c.33-2.46.65-4.91,1-7.65,5.26.3,4.17,8.25,10.11,7.63l-4-7.14Zm-10,.14v-5.7l7.47,2.15C1556.36,20.48,1553.55,19.78,1550.53,19.43Z"/></svg>