<svg width="567" height="80" viewBox="0 0 567 80" fill="none" xmlns="http://www.w3.org/2000/svg">
<path d="M463.577 57.4333C463.577 57.4333 463.471 57.473 463.419 57.4863C463.379 57.5128 463.34 57.5526 463.287 57.5791C463.103 57.6453 462.919 57.6983 462.722 57.7646C462.63 57.8441 462.537 57.9369 462.445 58.0164C462.077 58.1224 461.709 58.2152 461.34 58.3212C461.248 58.4007 461.156 58.4935 461.064 58.573C459.814 58.891 458.565 59.2223 457.302 59.5006C457.026 59.5669 456.71 59.4079 456.407 59.4079C442.2 59.4079 427.993 59.4079 413.799 59.4211C413.733 59.4211 413.667 59.4211 413.588 59.4079C413.549 59.3681 413.509 59.3284 413.483 59.2886C413.483 59.0633 413.47 58.8248 413.47 58.5995C413.47 39.7283 413.47 20.8703 413.47 1.9991V1.1377C413.759 1.1377 414.009 1.1377 414.246 1.1377C427.835 1.1377 441.424 1.1377 455.013 1.1377C455.381 1.1377 455.75 1.1377 456.118 1.17746C456.434 1.21722 456.552 1.1112 456.512 0.806396C456.565 0.806396 456.605 0.806396 456.657 0.806396C456.986 0.991928 457.315 1.30998 457.657 1.34974C461.182 1.7208 464.221 3.17855 466.826 5.5507C469.102 7.61806 470.799 10.0697 471.798 12.9985C471.838 13.1045 471.851 13.2238 471.877 13.3298C471.956 13.4756 472.048 13.6081 472.127 13.7539C472.285 14.708 472.456 15.6489 472.575 16.6031C472.68 17.4115 472.824 18.2331 472.824 19.0548C472.838 26.5158 472.825 33.99 472.838 41.4511C472.838 42.1004 472.917 42.7498 472.956 43.4124C472.653 43.4124 472.417 43.4654 472.706 43.8365C472.43 45.0159 472.154 46.2086 471.864 47.3881C471.785 47.7459 471.667 48.0904 471.575 48.435C471.522 48.5278 471.483 48.6073 471.43 48.7001C470.917 49.6807 470.404 50.6614 469.891 51.6288C469.812 51.7216 469.733 51.8143 469.667 51.9204C469.391 52.2914 469.102 52.6625 468.825 53.0335C468.786 53.0733 468.733 53.1131 468.694 53.1396C467.668 54.1202 466.629 55.1141 465.603 56.0948C465.524 56.1743 465.445 56.2538 465.379 56.3334C464.813 56.6779 464.248 57.0092 463.695 57.3538C463.656 57.3803 463.629 57.4068 463.59 57.4333H463.577ZM456.933 45.5328C457.17 45.4798 457.394 45.44 457.631 45.387C457.907 45.2545 458.183 45.1219 458.459 44.9762C458.696 44.7376 458.933 44.4858 459.17 44.2473C459.301 44.075 459.446 43.8895 459.578 43.7172C459.749 43.3329 459.92 42.9353 460.077 42.551C460.012 42.4715 459.959 42.392 459.893 42.3125C459.893 42.2727 459.88 42.2197 459.867 42.1799C460.156 42.1799 460.38 42.1269 460.143 41.7691C460.17 41.3848 460.209 40.9872 460.209 40.6029C460.183 33.3009 460.196 25.9989 460.104 18.6969C460.091 17.0404 459.262 15.5562 457.223 15.0261C456.499 14.8405 455.723 14.7743 454.973 14.7743C445.633 14.761 436.294 14.7743 426.954 14.7743H426.191V45.8111C436.32 45.8111 446.41 45.8111 456.512 45.8111C456.657 45.7315 456.802 45.6388 456.933 45.5593V45.5328Z" fill="black"/>
<path d="M532.232 50.0915C533.718 48.4748 535.205 46.8712 536.678 45.2412C538.323 43.4257 539.967 41.5968 541.598 39.7813C543.19 38.0055 544.755 36.2164 546.36 34.4539C547.465 33.2347 548.623 32.0552 549.728 30.8228C550.977 29.4445 552.175 28.0265 553.424 26.6616C554.687 25.2701 555.989 23.9051 557.252 22.5136C558.87 20.7245 560.462 18.909 562.08 17.1199C563.343 15.7284 564.619 14.3502 565.895 12.972C566.263 12.5744 566.632 12.1901 567 11.7925V79.1935H505.817C507.119 77.7755 508.435 76.3575 509.711 74.9263C510.803 73.7071 511.855 72.4481 512.934 71.2156C513.394 70.6855 513.868 70.1555 514.354 69.6519C515.63 68.2869 516.933 66.9352 518.209 65.5569C519.682 63.9667 521.129 62.3499 522.576 60.7463C522.958 60.3223 523.313 59.885 523.681 59.4609C523.721 59.4476 523.773 59.4344 523.813 59.4079C526.444 59.4079 529.061 59.4344 531.692 59.4344C531.784 59.4344 531.863 59.3416 531.956 59.3019C531.956 58.9838 531.982 58.6525 531.982 58.3344C531.982 55.684 531.995 53.0335 532.008 50.3698C532.087 50.2771 532.166 50.1976 532.245 50.1048L532.232 50.0915Z" fill="#2AA8E0"/>
<path d="M540.546 0.806396C540.73 0.991928 540.875 1.24372 541.085 1.36299C542.927 2.34366 543.887 3.82791 544.045 5.96152C544.137 7.16748 543.847 8.1879 543.242 9.14207C541.795 11.448 539.046 12.2166 536.625 10.9709C535.442 10.3613 534.586 9.36735 534.231 8.08188C533.955 7.07471 533.587 5.88201 533.876 4.96761C534.218 3.85442 534.863 2.72797 535.915 1.95934C536.836 1.28348 537.823 0.88591 538.967 0.938919C539.204 0.938919 539.454 0.859406 539.704 0.806396C539.98 0.806396 540.256 0.806396 540.532 0.806396H540.546ZM542.624 6.21332C542.624 6.05429 542.624 5.88201 542.624 5.72298C542.4 2.99302 540.098 1.4425 537.599 2.42317C535.178 3.37733 534.429 6.90243 536.349 9.15532C536.981 9.89744 537.809 10.3745 538.796 10.3878C541.085 10.4408 542.637 8.71799 542.624 6.20007V6.21332Z" fill="black"/>
<path d="M154.03 35.6201C155.03 32.5323 156.043 29.4445 157.029 26.3567C158.121 22.9244 159.187 19.4788 160.292 16.0597C161.344 12.7864 162.449 9.52638 163.515 6.26633C164.015 4.74232 164.488 3.21831 164.988 1.70755C165.08 1.40275 165.133 1.12445 165.606 1.12445C169.987 1.15096 174.367 1.12445 178.682 1.12445C178.774 1.57503 178.814 1.98585 178.932 2.38342C179.814 5.17964 180.695 7.96262 181.603 10.7456C182.616 13.8201 183.668 16.8946 184.681 19.9692C185.233 21.6522 185.733 23.3485 186.286 25.0315C187.312 28.1458 188.377 31.2601 189.417 34.3744C189.574 34.8382 189.693 35.3153 189.956 35.7791C190.298 34.7189 190.64 33.6455 190.995 32.5853C192.048 29.4578 193.1 26.3435 194.152 23.216C195.784 18.3524 197.415 13.4888 199.046 8.61198C199.835 6.27958 200.611 3.93393 201.427 1.61478C201.506 1.40275 201.822 1.15096 202.019 1.15096C206.242 1.12445 210.464 1.1377 214.687 1.1377C214.753 1.1377 214.805 1.16421 214.911 1.19071C208.425 20.6053 201.94 40.0066 195.455 59.4079H184.484C183.681 57.0092 182.879 54.584 182.076 52.1721C179.866 45.5195 177.656 38.8669 175.446 32.2142C174.802 30.2662 174.183 28.3181 173.526 26.3833C173.052 24.9918 172.526 23.6135 172.013 22.222C172.039 22.116 172.052 22.01 172.078 21.904C172.039 21.904 172 21.8907 171.96 21.8775C171.934 21.9968 171.894 22.1028 171.868 22.222C170.96 24.952 170.066 27.682 169.158 30.4119C168.119 33.5395 167.08 36.6803 166.027 39.8078C165.146 42.4052 164.225 44.9894 163.37 47.5869C162.068 51.5228 160.805 55.472 159.502 59.4344C156.99 59.4344 154.53 59.4344 152.057 59.4344C150.991 59.4344 149.939 59.4609 148.873 59.4211C148.663 59.4211 148.321 59.2356 148.255 59.0633C147.097 55.6177 145.979 52.1721 144.861 48.7133C144.782 48.6205 144.69 48.5278 144.611 48.435C143.967 46.4207 143.335 44.4063 142.677 42.392C141.625 39.1982 140.559 36.0176 139.494 32.8371C138.178 28.9012 136.85 24.9785 135.534 21.0558C133.732 15.6754 131.943 10.3083 130.154 4.92785C129.746 3.69539 129.338 2.44968 128.917 1.1377H130.562C134.232 1.1377 137.902 1.15096 141.572 1.12445C142.164 1.12445 142.427 1.25697 142.612 1.85332C144.598 7.93611 146.637 13.9924 148.637 20.0752C150.334 25.2303 152.017 30.3854 153.714 35.5406C153.727 35.5936 153.793 35.6466 153.846 35.6863C153.872 35.7393 153.912 35.7924 153.938 35.8321C153.951 35.7659 153.964 35.6996 153.977 35.6333L154.03 35.6201Z" fill="black"/>
<path d="M523.799 59.3946C523.799 59.3946 523.707 59.4211 523.668 59.4476C523.392 59.4476 523.115 59.4211 522.839 59.4211C507.908 59.4211 492.991 59.4211 478.06 59.4211H477.218V1.12445C477.494 1.12445 477.744 1.12445 477.994 1.12445C495.74 1.12445 513.473 1.12445 531.219 1.12445C531.469 1.12445 531.719 1.15096 531.969 1.17746C532.008 1.23047 532.048 1.29673 532.087 1.34974V14.5887C532.087 14.5887 532.008 14.6683 531.969 14.708C531.692 14.708 531.416 14.7345 531.14 14.7345C517.669 14.7345 504.199 14.7345 490.728 14.7345C490.478 14.7345 490.228 14.7345 489.926 14.7345V23.4545H529.127V37.0778H489.926V45.7846H490.662C504.107 45.7846 517.564 45.7846 531.008 45.7846C531.285 45.7846 531.561 45.7846 531.837 45.7978C531.877 45.8376 531.916 45.8773 531.956 45.9038C531.969 47.2953 531.995 48.6868 532.008 50.0783C532.008 50.1711 532.008 50.2506 532.008 50.3433C532.008 52.9938 531.995 55.6442 531.982 58.3079C531.982 58.626 531.969 58.9573 531.956 59.2754C529.482 59.2754 527.009 59.2754 524.536 59.2754C524.299 59.2754 524.049 59.3416 523.813 59.3814L523.799 59.3946Z" fill="black"/>
<path d="M216.476 59.2886C216.463 59.0766 216.437 58.8778 216.437 58.6657C216.437 39.7018 216.437 20.751 216.437 1.78706C216.437 1.60153 216.437 1.416 216.437 1.17746H271.279V14.7345H229.092V23.4678H268.346V37.0911H229.105V45.7713H271.2V59.3946C270.99 59.3946 270.779 59.4211 270.582 59.4211C252.731 59.4211 234.867 59.4211 217.015 59.4211C216.884 59.4211 216.739 59.4211 216.608 59.4079C216.568 59.3681 216.529 59.3284 216.489 59.3019L216.476 59.2886Z" fill="black"/>
<path d="M313.625 51.7613C313.454 51.5758 313.269 51.3903 313.098 51.2047C313.046 51.112 312.993 51.0192 312.927 50.9264C312.756 50.7409 312.572 50.5554 312.401 50.3698C312.349 50.2771 312.296 50.1843 312.23 50.0915C312.059 49.906 311.875 49.7205 311.704 49.5349C311.651 49.4422 311.599 49.3494 311.533 49.2566C311.362 49.0711 311.178 48.8856 311.007 48.7001C310.954 48.6073 310.902 48.5145 310.836 48.4218C310.665 48.2362 310.481 48.0507 310.31 47.8652C310.257 47.7724 310.204 47.6796 310.139 47.5869C309.968 47.4013 309.783 47.2158 309.612 47.0303C309.56 46.9375 309.507 46.8447 309.441 46.752C309.27 46.5664 309.086 46.3809 308.915 46.1954C308.863 46.1026 308.81 46.0098 308.744 45.9171C308.573 45.7315 308.389 45.546 308.218 45.3605C308.165 45.2677 308.113 45.175 308.047 45.0822C307.876 44.8967 307.692 44.7111 307.521 44.5256C307.468 44.4328 307.415 44.3401 307.35 44.2473C307.179 44.0618 306.995 43.8762 306.824 43.6907C306.771 43.5979 306.718 43.5052 306.653 43.4124C306.482 43.2269 306.297 43.0413 306.126 42.8558C306.074 42.763 306.021 42.6703 305.955 42.5775C305.784 42.392 305.6 42.2064 305.429 42.0209C305.376 41.9282 305.324 41.8354 305.258 41.7426C305.087 41.5571 304.903 41.3716 304.732 41.186C304.679 41.0933 304.627 41.0005 304.561 40.9077C304.39 40.7222 304.206 40.5367 304.035 40.3511C303.982 40.2584 303.916 40.1656 303.864 40.0596C303.811 40.0596 303.785 40.0331 303.772 39.9801C303.719 39.9271 303.68 39.8608 303.627 39.8078C300.272 35.7526 296.918 31.7107 293.563 27.6555C293.353 27.3904 293.064 27.1916 292.814 26.9531C292.814 26.9001 292.814 26.8471 292.814 26.7941C293.09 26.7808 293.366 26.7543 293.642 26.7543C303.995 26.7543 314.348 26.7013 324.701 26.7808C327.595 26.8073 328.292 25.1905 328.647 23.1099C328.832 22.0233 328.845 20.9101 328.792 19.8101C328.74 18.8692 328.555 17.9018 328.279 17.0007C327.845 15.5562 326.911 14.761 325.135 14.761C321.544 14.7478 317.939 14.761 314.348 14.761C306.232 14.761 298.115 14.761 289.999 14.761C289.749 14.761 289.499 14.761 289.196 14.761C289.196 15.0923 289.196 15.3706 289.196 15.6357C289.196 29.9216 289.196 44.2208 289.196 58.5067C289.196 58.7718 289.13 59.0368 289.104 59.3019C289.051 59.3416 289.012 59.3814 288.959 59.4079C284.855 59.4079 280.751 59.4079 276.646 59.4079C276.607 59.3681 276.581 59.3284 276.541 59.2886C276.541 59.1296 276.528 58.9706 276.528 58.7983C276.528 39.768 276.528 20.7378 276.528 1.70755C276.528 1.54852 276.528 1.3895 276.541 1.21722C276.581 1.19071 276.62 1.15096 276.646 1.12445C293.064 1.12445 309.494 1.12445 325.911 1.12445C327.74 1.12445 329.542 1.37624 331.265 2.05211C331.555 2.15813 331.884 2.19788 332.147 2.34366C332.489 2.51594 332.778 2.83399 333.12 2.96651C334.304 3.40384 334.988 4.45077 335.922 5.19289C336.869 5.94827 337.33 7.04821 338.093 7.90961C338.185 7.97587 338.277 8.04213 338.369 8.12164C338.382 8.28067 338.369 8.45295 338.421 8.58547C338.987 9.79143 339.513 11.0106 340.171 12.1636C340.658 13.0117 340.684 13.9526 340.868 14.8538C341.066 15.7814 341.131 16.7356 341.289 17.6765C341.329 17.8753 341.526 18.0608 341.605 18.1801C341.539 18.6174 341.434 19.0017 341.434 19.3993C341.408 20.645 341.5 21.904 341.408 23.1497C341.105 27.3242 339.908 31.2071 337.382 34.5864C336.803 35.3683 336.106 36.0574 335.462 36.7863C335.422 36.826 335.396 36.8525 335.356 36.8923C333.778 38.4163 331.91 39.3705 329.805 39.9668C327.7 40.5632 325.556 40.3246 323.425 40.3909C322.78 40.4041 322.136 40.4041 321.491 40.4174C321.452 40.4174 321.425 40.4174 321.386 40.4174L321.465 40.5234C321.978 41.1065 322.504 41.6764 322.991 42.2727C323.556 42.9618 324.07 43.6907 324.635 44.3798C325.661 45.6388 326.701 46.8712 327.727 48.117C327.832 48.2495 327.977 48.3555 328.108 48.4615C328.161 48.541 328.213 48.6338 328.266 48.7133C328.858 49.4157 329.463 50.118 330.055 50.8204C330.279 50.9927 330.489 51.1782 330.713 51.3505C330.726 51.3903 330.752 51.4433 330.765 51.483L331.186 52.1854C331.37 52.3842 331.542 52.583 331.726 52.7817C331.752 52.8083 331.791 52.848 331.818 52.8745C332.304 53.4444 332.818 53.9877 333.291 54.5708C334.067 55.525 334.804 56.4924 335.58 57.4333C335.988 57.9236 336.448 58.3742 336.882 58.8513C336.935 58.9175 336.922 59.0368 336.948 59.1428C336.922 59.1163 336.882 59.1031 336.856 59.0766C336.882 59.1031 336.922 59.1296 336.948 59.1428C336.988 59.1826 337.04 59.2223 337.08 59.2621C336.961 59.3019 336.843 59.3416 336.724 59.3814C331.239 59.3814 325.767 59.4079 320.281 59.3814C319.952 59.3814 319.623 58.944 319.281 58.7055C319.229 58.6127 319.176 58.52 319.123 58.4272L318.597 57.8706C318.545 57.7779 318.492 57.6851 318.439 57.5923C318.268 57.4068 318.084 57.2213 317.913 57.0357C317.86 56.943 317.808 56.8502 317.755 56.7574C317.584 56.5719 317.4 56.3864 317.229 56.2008C317.176 56.1081 317.124 56.0153 317.071 55.9225C316.9 55.737 316.716 55.5515 316.545 55.3659C316.492 55.2732 316.44 55.1804 316.387 55.0876C316.216 54.9021 316.032 54.7166 315.861 54.531C315.808 54.4383 315.756 54.3455 315.703 54.2528C315.532 54.0672 315.348 53.8817 315.177 53.6962C315.124 53.6034 315.072 53.5106 315.019 53.4179C314.848 53.2323 314.664 53.0468 314.493 52.8613C314.44 52.7685 314.388 52.6757 314.335 52.583C314.164 52.3974 313.98 52.2119 313.809 52.0264C313.756 51.9336 313.704 51.8408 313.638 51.7481L313.625 51.7613Z" fill="black"/>
<path d="M408.484 59.4079C404.38 59.4079 400.276 59.4079 396.171 59.4079C396.132 59.3681 396.092 59.3284 396.053 59.2886C396.053 53.6696 396.04 48.0639 396.026 42.445C396.026 41.9679 396.026 41.4776 396.026 40.9607H357.812V59.3946C353.563 59.3946 349.393 59.3946 345.223 59.3946C345.183 59.3549 345.157 59.3151 345.117 59.2754C345.117 57.5128 345.104 55.7503 345.104 53.9877C345.104 42.498 345.104 31.0215 345.104 19.5318C345.104 18.803 344.999 18.0741 344.959 17.3452C344.959 17.1994 345.025 17.0404 345.078 16.8946C345.117 16.7489 345.262 16.5766 345.223 16.4573C344.867 15.2911 345.617 14.3237 345.867 13.3033C346.393 11.2094 347.327 9.24808 348.59 7.48553C349.8 5.77599 351.208 4.21223 352.997 3.13879C355.26 1.78706 357.759 1.1112 360.43 1.12445C371.388 1.15096 382.345 1.09795 393.303 1.15096C399.934 1.17746 404.222 4.79533 406.945 10.5866C407.879 12.5877 408.326 14.7345 408.55 16.9476C408.695 18.3126 408.668 19.6644 408.668 21.0161C408.681 33.5262 408.668 46.0231 408.668 58.5332C408.668 58.785 408.642 59.0368 408.629 59.2886C408.589 59.3284 408.55 59.3681 408.497 59.3946L408.484 59.4079ZM357.799 27.2712H395.908C395.908 24.0906 396.013 20.9366 395.869 17.7958C395.777 15.9272 395.132 14.7345 392.567 14.7478C381.977 14.7743 371.387 14.7478 360.798 14.7478C359.206 14.7478 358.443 15.2646 358.088 16.8284C357.877 17.7428 357.825 18.7102 357.812 19.6511C357.772 22.169 357.812 24.7002 357.812 27.2579L357.799 27.2712Z" fill="black"/>
<path d="M97.4774 1.1377C102.503 1.1377 107.541 1.1112 112.566 1.1377C118.854 1.17746 123.774 3.86767 127.339 9.03605C128.839 11.2094 129.838 13.6346 130.062 16.2983C130.22 18.0873 130.351 19.8764 130.351 21.6654C130.391 28.0928 130.364 34.5201 130.351 40.9475C130.351 45.2942 129.246 49.2831 126.484 52.7022C124.603 55.0346 122.327 56.8502 119.578 58.0561C118.065 58.7188 116.499 59.1163 114.868 59.2754C113.96 59.3681 113.053 59.4079 112.132 59.4079C102.332 59.4079 92.518 59.4079 82.7177 59.3946C80.705 59.3946 78.8501 58.7453 76.9558 58.1224C75.5219 57.6453 74.2591 56.8502 73.1278 55.9225C71.2072 54.3588 69.6023 52.4902 68.3131 50.3301C67.1686 48.3952 66.7082 46.2881 66.2609 44.1678C66.0241 43.0811 66.1031 41.9149 66.1031 40.7885C66.1031 33.1552 66.0636 25.5219 66.1031 17.8886C66.1162 15.0261 67.1555 12.4154 68.5367 9.96371C70.089 7.23374 72.2859 5.12663 74.9431 3.4966C76.7585 2.38341 78.7186 1.70755 80.8102 1.3895C81.8626 1.23047 82.9544 1.16421 84.02 1.15096C88.4926 1.12445 92.9653 1.15096 97.4511 1.15096L97.4774 1.1377ZM98.293 45.7846C103.292 45.7846 108.304 45.8111 113.303 45.758C114.947 45.7448 116.434 45.1087 117.144 43.5052C117.539 42.604 117.71 41.5438 117.71 40.5632C117.71 33.2612 117.657 25.9592 117.604 18.6572C117.604 17.0537 116.631 15.6489 115.118 15.1718C114.237 14.8935 113.263 14.761 112.342 14.761C103.673 14.7345 95.0043 14.7345 86.3221 14.761C85.0987 14.761 83.8884 14.814 82.665 14.8803C80.3892 15.0128 78.6791 16.8946 78.7054 19.2005C78.7317 23.163 78.7317 27.1386 78.7317 31.1011C78.7317 34.5069 78.6528 37.926 78.7317 41.3318C78.7712 43.0281 79.3105 44.6979 81.4153 45.4135C82.0862 45.652 82.836 45.7846 83.5464 45.7846C88.4532 45.8111 93.3731 45.7978 98.2798 45.7978L98.293 45.7846Z" fill="black"/>
<path d="M28.3092 40.0861C28.0724 39.8608 27.8225 39.6488 27.5989 39.4102C26.0203 37.7404 24.4417 36.0839 22.8894 34.4009C21.4029 32.7841 19.9427 31.1408 18.4694 29.5108C17.6538 28.6096 16.825 27.735 15.9963 26.8471C15.9963 26.8073 15.9963 26.7808 15.9963 26.7411C16.2725 26.7411 16.5488 26.7146 16.825 26.7146C26.928 26.7146 37.0309 26.6881 47.1338 26.7411C48.9623 26.7411 49.7385 25.5219 49.8832 24.3292C50.0936 22.5666 50.1989 20.7643 50.1594 18.9885C50.1463 18.0476 49.9095 17.0404 49.4885 16.2055C49.0281 15.2779 48.2388 14.655 47.0023 14.6683C35.7417 14.708 24.4812 14.6948 13.2338 14.6948H12.5366V59.1693H0V1.08469H0.789291C16.1541 1.08469 31.519 1.1377 46.8839 1.05819C52.2379 1.03168 56.2633 3.21831 59.2099 7.64456C60.7228 9.9107 61.762 12.3756 62.3408 15.0261C62.6302 16.3513 62.7618 17.7428 62.7881 19.0945C62.8407 20.8968 62.8275 22.7256 62.6434 24.5147C62.3934 26.8736 61.7357 29.1397 60.657 31.2601C59.552 33.4335 58.1576 35.355 56.3685 37.0248C54.882 38.403 53.1719 39.344 51.2381 39.8343C50.1331 40.1126 48.9886 40.2981 47.8573 40.3114C41.4509 40.3511 35.0313 40.3114 28.6249 40.3114L28.3224 40.0728L28.3092 40.0861Z" fill="black"/>
<path d="M330.779 51.3505C330.555 51.1782 330.344 50.9927 330.121 50.8204C330.542 50.7409 330.844 50.8204 330.779 51.3505Z" fill="black"/>
<path d="M472.719 43.8365C472.443 43.4787 472.68 43.4257 472.969 43.4124C472.89 43.5582 472.798 43.6907 472.719 43.8365Z" fill="black"/>
<path d="M171.894 22.2088C171.921 22.0895 171.96 21.9835 171.986 21.8642C172.026 21.8642 172.065 21.8775 172.105 21.8907C172.078 21.9968 172.065 22.1028 172.039 22.2088C171.986 22.2088 171.947 22.2088 171.894 22.2088Z" fill="black"/>
<path d="M308.086 45.0689C308.139 45.1617 308.192 45.2545 308.257 45.3472C308.205 45.2545 308.152 45.1617 308.086 45.0689Z" fill="black"/>
<path d="M303.929 40.0596C303.982 40.1523 304.048 40.2451 304.1 40.3511C304.048 40.2584 303.982 40.1656 303.929 40.0596Z" fill="black"/>
<path d="M304.627 40.8945C304.679 40.9872 304.732 41.08 304.798 41.1728C304.745 41.08 304.692 40.9872 304.627 40.8945Z" fill="black"/>
<path d="M305.324 41.7294C305.377 41.8221 305.429 41.9149 305.495 42.0077C305.442 41.9149 305.39 41.8221 305.324 41.7294Z" fill="black"/>
<path d="M306.008 42.5643C306.061 42.657 306.113 42.7498 306.179 42.8426C306.126 42.7498 306.074 42.657 306.008 42.5643Z" fill="black"/>
<path d="M306.705 43.3991C306.758 43.4919 306.81 43.5847 306.876 43.6774C306.824 43.5847 306.771 43.4919 306.705 43.3991Z" fill="black"/>
<path d="M307.402 44.234C307.455 44.3268 307.508 44.4196 307.573 44.5123C307.521 44.4196 307.468 44.3268 307.402 44.234Z" fill="black"/>
<path d="M465.379 56.3201C465.458 56.2406 465.537 56.1611 465.603 56.0816C465.524 56.1611 465.445 56.2406 465.379 56.3201Z" fill="black"/>
<path d="M308.784 45.9038C308.836 45.9966 308.889 46.0894 308.955 46.1821C308.902 46.0894 308.849 45.9966 308.784 45.9038Z" fill="black"/>
<path d="M309.481 46.7387C309.533 46.8315 309.586 46.9242 309.652 47.017C309.599 46.9242 309.547 46.8315 309.481 46.7387Z" fill="black"/>
<path d="M310.165 47.5736C310.217 47.6664 310.27 47.7591 310.336 47.8519C310.283 47.7591 310.231 47.6664 310.165 47.5736Z" fill="black"/>
<path d="M310.862 48.4085C310.915 48.5013 310.967 48.594 311.033 48.6868C310.98 48.594 310.928 48.5013 310.862 48.4085Z" fill="black"/>
<path d="M311.546 49.2434C311.599 49.3362 311.651 49.4289 311.717 49.5217C311.665 49.4289 311.612 49.3362 311.546 49.2434Z" fill="black"/>
<path d="M312.243 50.0783C312.296 50.1711 312.349 50.2638 312.414 50.3566C312.362 50.2638 312.309 50.1711 312.243 50.0783Z" fill="black"/>
<path d="M312.941 50.9132C312.993 51.0059 313.046 51.0987 313.112 51.1915C313.059 51.0987 313.006 51.0059 312.941 50.9132Z" fill="black"/>
<path d="M338.421 8.12164C338.329 8.05538 338.237 7.98912 338.145 7.90961C338.237 7.97587 338.329 8.04213 338.421 8.12164Z" fill="black"/>
<path d="M469.667 51.9204C469.746 51.8276 469.825 51.7348 469.891 51.6288C469.812 51.7216 469.733 51.8143 469.667 51.9204Z" fill="black"/>
<path d="M531.995 50.3566C531.995 50.2638 531.995 50.1843 531.995 50.0915C532.074 50.0915 532.153 50.0915 532.232 50.0915C532.153 50.1843 532.074 50.2638 531.995 50.3566Z" fill="black"/>
<path d="M292.893 26.7941C292.893 26.7941 292.893 26.9001 292.893 26.9531C292.853 26.9266 292.814 26.9001 292.774 26.8603C292.814 26.8338 292.853 26.8073 292.893 26.7941Z" fill="black"/>
<path d="M303.706 39.7945C303.706 39.7945 303.798 39.9138 303.851 39.9668C303.798 39.9138 303.758 39.8475 303.706 39.7945Z" fill="black"/>
<path d="M154.03 35.6201C154.03 35.6201 154.004 35.7526 153.991 35.8189C153.964 35.7659 153.925 35.7128 153.898 35.6731C153.951 35.6598 153.991 35.6466 154.043 35.6333L154.03 35.6201Z" fill="black"/>
<path d="M276.699 1.1377C276.699 1.1377 276.62 1.20396 276.594 1.23047C276.633 1.20396 276.673 1.16421 276.699 1.1377Z" fill="black"/>
<path d="M463.577 57.4333C463.577 57.4333 463.642 57.3803 463.682 57.3538C463.642 57.3803 463.616 57.4068 463.577 57.4333Z" fill="black"/>
<path d="M463.3 57.5791C463.3 57.5791 463.379 57.5128 463.432 57.4863C463.392 57.5128 463.353 57.5526 463.3 57.5791Z" fill="black"/>
<path d="M16.0094 26.7411C16.0094 26.7411 16.0094 26.8073 16.0094 26.8471C15.97 26.8206 15.9437 26.7808 15.9042 26.7543C15.9437 26.7543 15.97 26.7543 16.0094 26.7543V26.7411Z" fill="black"/>
<path d="M321.531 40.5102C321.531 40.5102 321.478 40.4439 321.452 40.4041C321.491 40.4041 321.518 40.4041 321.557 40.4041C321.57 40.4439 321.557 40.4837 321.544 40.5102H321.531Z" fill="black"/>
<path d="M337.001 59.1561C337.001 59.1561 336.935 59.1031 336.909 59.0898C336.935 59.1163 336.974 59.1296 337.001 59.1561Z" fill="black"/>
<path d="M216.476 59.2886C216.476 59.2886 216.555 59.3681 216.594 59.3946C216.555 59.3549 216.516 59.3151 216.476 59.2886Z" fill="black"/>
<path d="M276.581 59.2886C276.581 59.2886 276.646 59.3681 276.686 59.4079C276.646 59.3681 276.62 59.3284 276.581 59.2886Z" fill="black"/>
<path d="M289.012 59.4079C289.012 59.4079 289.104 59.3284 289.157 59.3019C289.104 59.3416 289.065 59.3814 289.012 59.4079Z" fill="black"/>
<path d="M468.707 53.1263C468.707 53.1263 468.799 53.0468 468.839 53.0203C468.799 53.06 468.746 53.0998 468.707 53.1263Z" fill="black"/>
<path d="M345.117 59.2886C345.117 59.2886 345.183 59.3681 345.223 59.4079C345.183 59.3681 345.157 59.3284 345.117 59.2886Z" fill="black"/>
<path d="M396.04 59.2886C396.04 59.2886 396.119 59.3681 396.158 59.4079C396.119 59.3681 396.079 59.3284 396.04 59.2886Z" fill="black"/>
<path d="M408.484 59.4079C408.484 59.4079 408.563 59.3284 408.616 59.3019C408.576 59.3416 408.537 59.3814 408.484 59.4079Z" fill="black"/>
<path d="M413.496 59.2886C413.496 59.2886 413.575 59.3681 413.601 59.4079C413.562 59.3681 413.522 59.3284 413.496 59.2886Z" fill="black"/>
<path d="M531.969 14.7213C531.969 14.7213 532.048 14.6418 532.087 14.602C532.048 14.6418 532.008 14.6815 531.969 14.7213Z" fill="black"/>
<path d="M457.631 45.387C457.907 45.2545 458.183 45.1219 458.459 44.9762C458.183 45.1087 457.907 45.2412 457.631 45.387Z" fill="black"/>
<path d="M459.867 42.1667C459.959 42.0342 460.051 41.8884 460.143 41.7559C460.38 42.1137 460.143 42.1667 459.867 42.1667Z" fill="black"/>
<path d="M456.512 45.7846C456.657 45.705 456.802 45.6123 456.933 45.5328C456.789 45.6123 456.644 45.705 456.512 45.7846Z" fill="black"/>
<path d="M523.799 59.3946C524.036 59.3549 524.286 59.2886 524.523 59.2886C526.996 59.2886 529.469 59.2886 531.942 59.2886C531.85 59.3284 531.771 59.4211 531.679 59.4211C529.048 59.4211 526.43 59.4079 523.799 59.3946Z" fill="black"/>
<path d="M538.073 9.12881H537.073V3.32433C538.046 3.32433 539.02 3.27132 539.967 3.33758C540.809 3.40384 541.243 3.97369 541.243 4.84833C541.243 6.04104 540.98 6.3856 539.848 6.58438C540.322 7.41927 540.796 8.25416 541.269 9.08906C540.454 9.30109 539.94 9.08906 539.677 8.30717C539.546 7.92286 539.27 7.5783 539.112 7.20724C538.914 6.73015 538.625 6.51812 538.059 6.6904V9.11556L538.073 9.12881ZM538.073 5.66997C538.612 5.66997 539.085 5.69648 539.559 5.66997C539.993 5.63022 540.256 5.31216 540.125 4.9146C540.046 4.6628 539.73 4.37125 539.48 4.31824C539.033 4.22548 538.546 4.29174 538.073 4.29174V5.68323V5.66997Z" fill="black"/>
</svg>
