<svg width="372" height="186" viewBox="0 0 372 186" fill="none" xmlns="http://www.w3.org/2000/svg">
<path d="M16.679 88.4754C59.137 88.4754 101.602 88.4622 144.06 88.5215C145.374 88.5215 146.826 89.0159 147.982 89.675C172.295 103.497 196.693 117.175 220.828 131.294C250.013 148.366 278.968 165.821 308.022 183.117C309.072 183.743 310.075 184.448 310.907 185.516C306.061 183.466 301.227 181.377 296.361 179.366C262.493 165.372 228.811 150.917 194.706 137.536C149.501 119.798 102.883 106.556 55.327 96.6621C42.8603 94.065 30.3408 91.7118 17.8477 89.2334C17.3921 89.1411 16.9695 88.917 16.5271 88.7588C16.5733 88.6665 16.6262 88.5676 16.6724 88.4754H16.679Z" fill="black"/>
<path d="M29.2711 182.405C32.467 178.832 35.1875 175.596 38.1061 172.551C53.3659 156.606 71.8546 145.341 91.7828 136.323C100.908 132.197 110.311 128.684 119.608 124.953C120.473 124.604 121.603 124.333 122.441 124.59C133.917 128.058 145.367 131.617 157.53 135.374C156.091 136.014 155.325 136.37 154.545 136.693C132.333 145.822 112.008 157.884 95.0184 175.069C93.1167 176.993 91.4725 179.182 89.5774 181.12C88.9237 181.792 87.8738 182.491 87.0088 182.497C68.3748 182.576 49.7474 182.557 31.1134 182.55C30.7304 182.55 30.3408 182.491 29.2579 182.405H29.2711Z" fill="black"/>
<path d="M15.6885 62.0696H0.290039V0.214525C0.86451 0.155202 1.49181 0.0365536 2.1191 0.0365536C14.3151 0.0233706 26.5176 -0.0491365 38.7136 0.0563283C45.6204 0.115652 51.801 2.33041 56.9118 7.10269C66.8165 16.3506 65.093 32.9679 53.498 40.0011C52.1707 40.8053 50.7445 41.4578 49.1861 42.2686C49.9785 42.6311 50.6916 42.9739 51.4114 43.2837C56.9646 45.6896 60.7746 49.7105 61.1774 55.834C61.6 62.3662 61.2698 68.9446 61.2698 75.6746H45.0262C45.0262 71.6076 45.0724 67.679 45.0064 63.7505C44.9733 61.8653 44.9139 59.9537 44.5771 58.1147C43.5206 52.3669 39.2286 49.0381 32.6189 48.8404C28.7693 48.7283 24.9197 48.8206 20.9248 48.8206V35.565C25.8969 35.565 30.7436 35.3672 35.5771 35.6111C42.4972 35.9605 46.5383 30.5291 46.6901 25.559C46.8948 18.5852 43.1377 14.1425 36.244 13.8524C30.1559 13.5954 24.0481 13.7931 17.9468 13.7865C17.2931 13.7865 16.6394 13.7865 15.6819 13.7865V62.063L15.6885 62.0696Z" fill="black"/>
<path d="M197.809 105.159C255.236 94.711 312.651 90.4594 370.17 86.8143C365.66 87.9546 361.164 89.1411 356.647 90.2353C316.982 99.8194 278.143 111.948 240.445 127.596C238.511 128.4 237.065 128.341 235.222 127.24C223.502 120.247 211.702 113.391 199.929 106.49C199.44 106.207 198.971 105.89 197.809 105.152V105.159Z" fill="black"/>
<path d="M195.736 0.168385H211.517V48.7679C216.436 48.7679 221.151 49.2095 225.747 48.6558C231.247 47.9901 234.793 42.3938 234.179 36.534C233.611 31.1421 229.147 27.1278 223.634 27.0751C221.501 27.0553 219.375 27.0751 217.07 27.0751V14.1688C228.632 11.2554 240.492 15.2301 246.289 23.9836C256.207 38.9531 247.92 58.0488 229.907 61.6214C227.741 62.0498 225.496 62.2476 223.291 62.2608C214.548 62.3333 205.805 62.2937 197.07 62.2805C196.673 62.2805 196.271 62.208 195.736 62.1553V0.168385Z" fill="black"/>
<path d="M336.983 29.4349C350.599 30.8586 353.346 28.4725 355.175 13.859H370.533C372.495 24.2671 368.335 31.7353 357.644 36.4219C371.002 40.5021 372.118 50.6465 370.989 62.0367H355.267C355.267 59.7494 355.267 57.5544 355.267 55.3594C355.247 47.8451 351.285 43.5012 343.817 42.9607C341.691 42.8091 339.552 42.9343 337.128 42.9343V62.0037H320.977V0.247483H336.983V29.4349Z" fill="black"/>
<path d="M110.839 181.864C114.266 178.239 117.535 174.449 121.16 171.028C134.921 158.01 150.742 148.056 167.976 140.278C168.722 139.942 169.792 139.738 170.518 140.001C179.327 143.179 188.103 146.448 196.885 149.704C197.017 149.757 197.103 149.935 197.353 150.212C193.755 152.908 190.136 155.544 186.604 158.293C178.422 164.66 171.357 172.096 165.592 180.711C164.648 182.121 163.651 182.596 161.987 182.589C145.823 182.53 129.665 182.557 113.5 182.557H111.315C111.156 182.326 111.005 182.095 110.846 181.871L110.839 181.864Z" fill="black"/>
<path d="M123.181 13.8656C123.181 18.4863 123.2 22.8301 123.154 27.174C123.154 27.6947 122.831 28.2616 122.534 28.7296C119.582 33.3766 116.637 38.0302 113.593 42.618C113.184 43.231 112.226 43.8242 111.506 43.844C106.977 43.956 102.44 43.9033 97.4219 43.9033C100.789 38.2675 103.999 32.902 107.386 27.2201C102.295 27.2201 97.5143 26.7719 92.8591 27.3387C87.537 27.9847 83.8525 33.4491 84.2487 38.9003C84.6449 44.3252 89.0954 48.8074 94.642 48.9129C103.299 49.0777 111.955 49.0381 120.612 48.9458C122.679 48.9261 123.333 49.5325 123.24 51.5825C123.082 55.0167 123.2 58.4574 123.2 62.0301C122.553 62.1421 122.091 62.2871 121.629 62.2871C111.572 62.2608 101.509 62.3662 91.4593 62.1289C79.2963 61.8389 69.5171 52.0307 68.5795 39.5331C67.7079 27.9122 76.1268 16.7066 87.5238 14.3468C88.4086 14.1622 89.3067 13.8986 90.1981 13.892C101.073 13.859 111.955 13.8722 123.187 13.8722L123.181 13.8656Z" fill="black"/>
<path d="M184.999 48.9854V62.1026C184.438 62.1751 183.969 62.2805 183.494 62.2805C173.107 62.241 162.72 62.3465 152.333 62.1026C142.099 61.8653 132.174 52.38 130.801 41.8995C128.991 28.1165 137.325 16.5879 150.953 14.0634C151.997 13.8722 153.08 13.8129 154.149 13.8129C163.711 13.7931 173.279 13.7997 182.84 13.8129C183.48 13.8129 184.121 13.892 185.006 13.9447C185.006 18.5456 185.025 23.0476 184.979 27.5497C184.979 27.9979 184.656 28.4725 184.392 28.8746C181.433 33.5216 178.475 38.1687 175.471 42.7761C175.154 43.2573 174.5 43.8308 173.998 43.8374C169.257 43.9165 164.51 43.8835 159.339 43.8835C162.747 38.195 165.936 32.8691 169.191 27.431C164.061 27.431 159.036 26.8576 154.202 27.5892C149.071 28.3604 145.605 33.9171 146.146 38.8014C146.78 44.5295 151.085 48.8206 156.738 48.9195C165.143 49.0711 173.556 48.9722 181.968 48.9788C182.932 48.9788 183.903 48.9788 185.006 48.9788L184.999 48.9854Z" fill="black"/>
<path d="M284.369 12.7978C294.934 13.2328 303.862 15.5728 309.811 24.0496C318.448 36.356 315.213 58.1872 293.449 63.0583C284.171 65.1347 275.171 64.1262 267.228 58.5959C258.208 52.3141 254.84 43.4155 257.059 32.757C259.251 22.1973 266.488 16.3836 276.637 13.9052C279.417 13.2262 282.322 13.0812 284.369 12.8044V12.7978ZM298.091 38.2543C298.064 31.1355 292.366 25.559 285.135 25.592C278.182 25.6249 272.332 31.386 272.279 38.2412C272.226 45.1623 278.479 51.4045 285.373 51.3056C292.372 51.2067 298.117 45.3073 298.091 38.2478V38.2543Z" fill="black"/>
</svg>
