<svg width="150" height="150" viewBox="0 0 150 150" fill="none" xmlns="http://www.w3.org/2000/svg">
<path d="M74.9997 65.8421C54.7892 65.8421 38.3682 79.4211 38.3682 96.1579C38.3682 112.895 54.7892 126.632 74.9997 126.632C95.2103 126.632 111.631 112.895 111.631 96.1579C111.631 79.4211 95.2103 65.8421 74.9997 65.8421ZM74.9997 118.105C65.3682 118.105 56.9997 114.316 51.9471 108.632C58.105 103.895 66.1576 101.053 74.9997 101.053C83.8418 101.053 91.8945 103.895 98.0524 108.632C92.9997 114.316 84.6313 118.105 74.9997 118.105Z" fill="#333333"/>
<path d="M75 0C33.6316 0 0 33.6316 0 75C0 116.368 33.6316 150 75 150C116.368 150 150 116.368 150 75C150 33.6316 116.368 0 75 0ZM75 139.105C39.6316 139.105 10.8947 110.368 10.8947 75C10.8947 39.6316 39.6316 10.8947 75 10.8947C110.368 10.8947 139.105 39.6316 139.105 75C139.105 110.368 110.368 139.105 75 139.105Z" fill="#333333"/>
<path d="M42.4741 52.2632C42.4741 57.6316 46.8951 61.8948 52.1057 61.8948C57.4741 61.8948 61.7372 57.4737 61.7372 52.2632C61.7372 48.4737 59.5267 45.1579 56.2109 43.579C58.5793 42 60.632 40.4211 62.5267 38.8421C64.1057 37.4211 64.2636 34.8948 62.8425 33.3158C61.4214 31.7369 58.8951 31.579 57.3162 33C55.2636 34.7369 52.7372 36.7895 49.7372 38.5263C48.7899 39.1579 47.8425 39.6316 46.8951 40.1053C45.0004 41.3684 43.4214 42.1579 41.8425 42.7895C39.0004 44.0526 36.1583 45.1579 33.632 45.7895C31.5793 46.2632 30.3162 48.3158 30.7899 50.5263C31.2636 52.2632 32.8425 53.5263 34.5793 53.5263C34.8951 53.5263 35.2109 53.5263 35.5267 53.3684C37.7372 52.8948 40.2636 51.9474 42.7899 50.8421C42.632 51.3158 42.4741 51.7895 42.4741 52.2632Z" fill="#333333"/>
<path d="M116.368 45.7895C113.841 45.1579 110.999 44.2105 108.157 42.7895C106.736 42.1579 104.999 41.3684 102.789 40.1053C101.841 39.6316 100.894 39 99.9466 38.5263C96.9466 36.7895 94.4202 34.8948 92.3676 33C90.7887 31.579 88.2623 31.7369 86.8413 33.3158C85.4202 34.8948 85.5781 37.4211 87.1571 38.8421C88.8939 40.4211 91.1045 42 93.4729 43.579C90.315 45.1579 87.9466 48.4737 87.9466 52.2632C87.9466 57.6316 92.3676 61.8948 97.5781 61.8948C102.947 61.8948 107.21 57.4737 107.21 52.2632C107.21 51.7895 107.21 51.3158 107.052 50.8421C109.578 51.9474 112.104 52.7369 114.315 53.3684C114.631 53.3684 114.947 53.5263 115.262 53.5263C116.999 53.5263 118.578 52.2632 119.052 50.5263C119.683 48.3158 118.42 46.2632 116.368 45.7895Z" fill="#333333"/>
</svg>
