<svg width="150" height="150" viewBox="0 0 150 150" fill="none" xmlns="http://www.w3.org/2000/svg">
<path d="M77.5 95C51.3075 95 30 73.6925 30 47.5C30 21.3075 51.3075 0 77.5 0C103.693 0 125 21.3075 125 47.5C125 73.6925 103.693 95 77.5 95ZM77.5 5C54.065 5 35 24.065 35 47.5C35 70.935 54.065 90 77.5 90C100.935 90 120 70.935 120 47.5C120 24.065 100.935 5 77.5 5Z" fill="#333333"/>
<path d="M77.5 95C64.8825 95 55 74.135 55 47.5C55 20.865 64.8825 0 77.5 0C90.1175 0 100 20.865 100 47.5C100 74.135 90.1175 95 77.5 95ZM77.5 5C69.0475 5 60 22.0775 60 47.5C60 72.9225 69.0475 90 77.5 90C85.9525 90 95 72.9225 95 47.5C95 22.0775 85.9525 5 77.5 5Z" fill="#333333"/>
<path d="M122.5 45H32.5V50H122.5V45Z" fill="#333333"/>
<path d="M67.5021 130C66.5846 130 65.7021 129.495 65.2646 128.617L37.7646 73.6174C37.1471 72.3824 37.6471 70.8799 38.8821 70.2624C40.1146 69.6399 41.6171 70.1424 42.2371 71.3799L69.7371 126.38C70.3546 127.615 69.8546 129.117 68.6196 129.735C68.2596 129.915 67.8771 130 67.5021 130Z" fill="#333333"/>
<path d="M77.5 130C76.5075 130 75.57 129.405 75.1775 128.427L60.1775 90.9274C59.665 89.6449 60.2875 88.1899 61.57 87.6774C62.85 87.1699 64.305 87.7899 64.82 89.0699L79.82 126.57C80.3325 127.852 79.71 129.307 78.4275 129.82C78.125 129.942 77.81 130 77.5 130Z" fill="#333333"/>
<path d="M45 62.5C36.73 62.5 30 55.7725 30 47.5C30 46.12 31.12 45 32.5 45H57.5C58.88 45 60 46.12 60 47.5C60 55.7725 53.27 62.5 45 62.5ZM35.315 50C36.4275 54.3075 40.3475 57.5 45 57.5C49.6525 57.5 53.57 54.3075 54.685 50H35.315Z" fill="#333333"/>
<path d="M110 62.5C101.73 62.5 95 55.7725 95 47.5C95 46.12 96.12 45 97.5 45H122.5C123.88 45 125 46.12 125 47.5C125 55.7725 118.27 62.5 110 62.5ZM100.315 50C101.427 54.3075 105.348 57.5 110 57.5C114.652 57.5 118.57 54.3075 119.685 50H100.315Z" fill="#333333"/>
<path d="M77.5 70C65.0925 70 55 59.905 55 47.5C55 46.12 56.12 45 57.5 45H97.5C98.88 45 100 46.12 100 47.5C100 59.905 89.9075 70 77.5 70ZM60.1775 50C61.395 58.47 68.6975 65 77.5 65C86.3025 65 93.605 58.47 94.8225 50H60.1775Z" fill="#333333"/>
<path d="M95 150H60C58.62 150 57.5 148.88 57.5 147.5V127.5C57.5 126.12 58.62 125 60 125H95C96.38 125 97.5 126.12 97.5 127.5V147.5C97.5 148.88 96.38 150 95 150ZM62.5 145H92.5V130H62.5V145Z" fill="#333333"/>
<path d="M87.4977 130C87.1227 130 86.7402 129.915 86.3802 129.737C85.1452 129.12 84.6452 127.617 85.2627 126.382L112.763 71.3824C113.38 70.1449 114.883 69.6449 116.118 70.2649C117.353 70.8824 117.853 72.3849 117.235 73.6199L89.7352 128.62C89.2977 129.495 88.4152 130 87.4977 130Z" fill="#333333"/>
<path d="M77.4995 130C77.1895 130 76.877 129.943 76.572 129.82C75.2895 129.305 74.667 127.853 75.1795 126.57L90.1795 89.07C90.692 87.7875 92.147 87.1675 93.4295 87.6775C94.712 88.1925 95.3345 89.645 94.822 90.9275L79.822 128.428C79.4295 129.405 78.4895 130 77.4995 130Z" fill="#333333"/>
<path d="M100 130H55C53.62 130 52.5 128.88 52.5 127.5C52.5 126.12 53.62 125 55 125H100C101.38 125 102.5 126.12 102.5 127.5C102.5 128.88 101.38 130 100 130Z" fill="#333333"/>
<path d="M100 140H55C53.62 140 52.5 138.88 52.5 137.5C52.5 136.12 53.62 135 55 135H100C101.38 135 102.5 136.12 102.5 137.5C102.5 138.88 101.38 140 100 140Z" fill="#333333"/>
<path d="M97.5 110H57.5C56.12 110 55 108.88 55 107.5C55 106.12 56.12 105 57.5 105H97.5C98.88 105 100 106.12 100 107.5C100 108.88 98.88 110 97.5 110Z" fill="#333333"/>
<path d="M10 30C8.62 30 7.5 28.88 7.5 27.5C7.5 24.7425 5.2575 22.5 2.5 22.5C1.12 22.5 0 21.38 0 20C0 18.62 1.12 17.5 2.5 17.5C5.16 17.5 7.58 18.545 9.375 20.245C11.935 15.63 16.86 12.5 22.5 12.5C23.88 12.5 25 13.62 25 15C25 16.38 23.88 17.5 22.5 17.5C16.985 17.5 12.5 21.985 12.5 27.5C12.5 28.88 11.38 30 10 30Z" fill="#333333"/>
<path d="M135 82.5C133.62 82.5 132.5 81.38 132.5 80C132.5 77.2425 130.258 75 127.5 75C126.12 75 125 73.88 125 72.5C125 71.12 126.12 70 127.5 70C130.16 70 132.58 71.045 134.375 72.745C136.935 68.13 141.86 65 147.5 65C148.88 65 150 66.12 150 67.5C150 68.88 148.88 70 147.5 70C141.985 70 137.5 74.485 137.5 80C137.5 81.38 136.38 82.5 135 82.5Z" fill="#333333"/>
<path d="M35 110H10C4.485 110 0 105.515 0 100C0 94.1475 5.16 89.435 11.02 90.055C12.9625 85.56 17.4475 82.5 22.5 82.5C27.5525 82.5 32.0375 85.56 33.98 90.055C39.8525 89.435 45 94.1475 45 100C45 105.515 40.515 110 35 110ZM10 95C7.2425 95 5 97.2425 5 100C5 102.758 7.2425 105 10 105H35C37.7575 105 40 102.758 40 100C40 96.655 36.655 94.02 33.2025 95.3525C32.515 95.615 31.745 95.565 31.0975 95.2125C30.45 94.86 29.995 94.235 29.8475 93.5125C29.15 90.03 26.06 87.5 22.5 87.5C18.94 87.5 15.85 90.03 15.15 93.5125C15.005 94.235 14.5475 94.8575 13.9 95.2125C13.2525 95.5675 12.4825 95.6175 11.795 95.3525C11.1925 95.1175 10.5875 95 10 95Z" fill="#333333"/>
<path d="M140 125H115C109.485 125 105 120.515 105 115C105 109.147 110.163 104.442 116.02 105.055C117.963 100.56 122.448 97.5 127.5 97.5C132.552 97.5 137.037 100.56 138.98 105.055C144.845 104.445 150 109.147 150 115C150 120.515 145.515 125 140 125ZM115 110C112.242 110 110 112.242 110 115C110 117.758 112.242 120 115 120H140C142.758 120 145 117.758 145 115C145 111.655 141.652 109.022 138.202 110.352C137.515 110.617 136.745 110.567 136.097 110.212C135.45 109.857 134.995 109.235 134.847 108.512C134.15 105.03 131.06 102.5 127.5 102.5C123.94 102.5 120.85 105.03 120.15 108.512C120.005 109.235 119.548 109.857 118.9 110.212C118.253 110.567 117.482 110.617 116.795 110.352C116.192 110.117 115.587 110 115 110Z" fill="#333333"/>
<path d="M122.5 50H97.5C96.12 50 95 48.88 95 47.5C95 39.2275 101.73 32.5 110 32.5C118.27 32.5 125 39.2275 125 47.5C125 48.88 123.88 50 122.5 50ZM100.315 45H119.683C118.57 40.6925 114.65 37.5 109.998 37.5C105.345 37.5 101.43 40.6925 100.315 45Z" fill="#333333"/>
<path d="M57.5 50H32.5C31.12 50 30 48.88 30 47.5C30 39.2275 36.73 32.5 45 32.5C53.27 32.5 60 39.2275 60 47.5C60 48.88 58.88 50 57.5 50ZM35.315 45H54.6825C53.57 40.6925 49.65 37.5 44.9975 37.5C40.345 37.5 36.43 40.6925 35.315 45Z" fill="#333333"/>
<path d="M97.5 50H57.5C56.12 50 55 48.88 55 47.5C55 35.095 65.0925 25 77.5 25C89.9075 25 100 35.095 100 47.5C100 48.88 98.88 50 97.5 50ZM60.1775 45H94.82C93.6025 36.53 86.3 30 77.4975 30C68.695 30 61.395 36.53 60.1775 45Z" fill="#333333"/>
</svg>
