<svg width="149" height="150" viewBox="0 0 149 150" fill="none" xmlns="http://www.w3.org/2000/svg">
<path d="M145.728 134.231L133.554 121.403C128.523 116.071 121.835 112.599 114.58 111.552C107.324 110.505 99.9277 111.944 93.5942 115.636C89.3387 118.098 84.4602 119.274 79.55 119.02C74.6399 118.765 69.9088 117.092 65.9304 114.203L63.1781 112.205C56.8919 107.595 49.1528 105.408 41.3832 106.046C33.6135 106.685 26.3354 110.106 20.8862 115.681L2.69667 134.097C1.40136 135.408 0.522717 137.072 0.171352 138.881C-0.180013 140.69 0.0116064 142.562 0.722086 144.262C1.43257 145.963 2.63015 147.414 4.16406 148.435C5.69798 149.456 7.49966 150.001 9.34229 150H138.961C140.787 150 142.574 149.465 144.1 148.461C145.625 147.456 146.823 146.027 147.545 144.349C148.266 142.67 148.48 140.818 148.159 139.019C147.838 137.221 146.997 135.556 145.74 134.231H145.728ZM140.954 141.521C140.793 141.918 140.516 142.257 140.158 142.492C139.8 142.728 139.379 142.849 138.951 142.839H9.34229C8.9115 142.841 8.48982 142.715 8.13054 142.477C7.77126 142.239 7.49048 141.9 7.32368 141.503C7.15689 141.106 7.11155 140.668 7.19339 140.245C7.27524 139.822 7.4806 139.433 7.78353 139.127L25.9731 120.711C30.2269 116.364 35.9058 113.698 41.9671 113.202C48.0284 112.705 54.0654 114.412 58.9697 118.008L61.7196 120.006C66.8209 123.709 72.8865 125.852 79.1813 126.176C85.4762 126.5 91.7299 124.991 97.1844 121.832C102.124 118.949 107.894 117.825 113.555 118.642C119.216 119.459 124.433 122.17 128.355 126.332L140.529 139.16C140.831 139.464 141.033 139.853 141.108 140.275C141.184 140.697 141.129 141.131 140.952 141.521H140.954Z" fill="#333333"/>
<path d="M61.3584 95.8491C62.1079 99.0198 63.903 101.846 66.4544 103.872C69.0058 105.898 72.1651 107.006 75.4231 107.018C75.8337 107.018 76.249 106.999 76.6644 106.961L89.6358 105.849C92.6541 105.574 95.5888 104.707 98.272 103.298C100.955 101.888 103.334 99.964 105.274 97.6347L119.14 80.9084C119.188 80.8535 119.216 80.7891 119.259 80.7318C119.346 80.6194 119.425 80.5022 119.498 80.3809C119.548 80.2894 119.594 80.1954 119.634 80.0992C119.684 79.9846 119.737 79.8724 119.777 79.7531C119.811 79.6465 119.839 79.5381 119.861 79.4284C119.887 79.3138 119.913 79.2017 119.93 79.0847C119.947 78.9677 119.947 78.8627 119.952 78.7505C119.958 78.6328 119.958 78.5149 119.952 78.3972C119.943 78.2875 119.929 78.1783 119.909 78.0702C119.894 77.952 119.871 77.8348 119.842 77.7193C119.814 77.6057 119.779 77.4941 119.737 77.3851C119.701 77.2778 119.66 77.1726 119.613 77.07C119.555 76.953 119.484 76.8313 119.415 76.7286C119.372 76.6618 119.343 76.5902 119.298 76.5257C116.148 72.5567 112.425 69.0795 108.25 66.2088L131.465 34.2219C133.456 34.6359 135.524 34.4641 137.42 33.7274C139.316 32.9907 140.957 31.7207 142.147 30.0708L146.054 24.6856C146.874 23.5576 147.462 22.2793 147.787 20.9236C148.112 19.568 148.167 18.1616 147.948 16.7849C147.729 15.4081 147.24 14.0881 146.511 12.9002C145.781 11.7123 144.825 10.6798 143.696 9.8618L132.892 2.02502C131.764 1.20593 130.486 0.61712 129.13 0.292228C127.774 -0.0326642 126.368 -0.087274 124.991 0.131518C123.614 0.350311 122.294 0.838218 121.106 1.56737C119.917 2.29652 118.885 3.25262 118.066 4.38106L114.158 9.76631C112.97 11.4127 112.28 13.3653 112.168 15.3925C112.057 17.4198 112.53 19.4363 113.53 21.2028L98.086 42.486L90.3233 53.1849C86.297 50.1077 81.8352 47.6467 77.0845 45.8828C76.3291 45.6414 75.5148 45.6576 74.7696 45.9289C74.0243 46.2002 73.3902 46.7113 72.9668 47.3819L61.3561 65.76C59.7429 68.3281 58.6514 71.1887 58.1439 74.1787C57.6365 77.1686 57.7229 80.2292 58.3985 83.1857L61.3584 95.8491ZM94.7203 59.3149L101.772 49.5947L108.112 54.197L101.06 63.9148C98.789 64.4981 96.5812 65.3058 94.4696 66.3258C94.7854 64.0029 94.8694 61.6544 94.7203 59.3149V59.3149ZM118.744 26.2085L125.084 30.8084L112.318 48.4012L105.978 43.8013L118.744 26.2085ZM119.954 13.97L123.862 8.5871C124.128 8.2201 124.464 7.90916 124.85 7.67202C125.237 7.43489 125.666 7.27621 126.114 7.20505C126.562 7.13389 127.019 7.15165 127.46 7.25731C127.901 7.36297 128.317 7.55446 128.684 7.82084L139.483 15.6576C139.85 15.9239 140.161 16.2598 140.398 16.6462C140.635 17.0327 140.794 17.4621 140.865 17.9098C140.936 18.3576 140.918 18.815 140.813 19.2559C140.707 19.6969 140.515 20.1126 140.249 20.4795L136.341 25.8648C135.803 26.6049 134.993 27.1012 134.089 27.2449C133.185 27.3885 132.261 27.1678 131.519 26.631L120.72 18.7942C119.979 18.2561 119.482 17.4455 119.338 16.5408C119.194 15.6361 119.416 14.7113 119.954 13.97V13.97ZM67.4073 69.5889L77.402 53.753C81.0274 55.4881 84.4457 57.6261 87.5924 60.1265C87.8533 64.5464 86.9859 68.9599 85.0717 72.9523C84.8566 73.3705 84.726 73.8269 84.6874 74.2955C84.6487 74.7642 84.7028 75.2359 84.8464 75.6836C84.99 76.1314 85.2205 76.5464 85.5245 76.9052C85.8286 77.2639 86.2003 77.5591 86.6185 77.7742C86.6639 77.7981 86.714 77.8052 86.7594 77.8267C87.426 78.258 88.2226 78.4423 89.0109 78.3477C89.7992 78.2531 90.5296 77.8855 91.0752 77.3087C94.271 74.2563 98.1898 72.0657 102.464 70.9424C105.823 73.1571 108.924 75.7418 111.707 78.6479L99.757 93.0706C97.0661 96.3013 93.2023 98.3311 89.0151 98.7136L76.0533 99.8236C74.3087 99.9728 72.5688 99.4886 71.152 98.4598C69.7352 97.4309 68.7364 95.9262 68.3383 94.2212L65.3831 81.5696C64.917 79.5372 64.8559 77.4328 65.2032 75.3767C65.5505 73.3206 66.2995 71.3531 67.4073 69.5865V69.5889Z" fill="#333333"/>
</svg>
