<svg width="164" height="150" viewBox="0 0 164 150" fill="none" xmlns="http://www.w3.org/2000/svg">
<path d="M99.3084 1.14632e-09C72.0033 -0.000174417 59.4643 19.8985 59.2471 38.2631C59.2264 47.3288 61.1062 57.1277 67.4774 65.407C55.5027 66.086 46.7041 70.1381 39.5163 73.2014C29.5569 77.4452 23.0492 80.2089 7.68524 72.1113C6.09773 71.2692 4.07036 71.3247 2.53135 72.2526C0.992329 73.1803 -0.00340983 74.9472 8.77482e-06 76.7442C8.77482e-06 95.4052 6.41026 113.369 16.4606 126.944C26.5109 140.52 40.4835 150 55.7588 150C73.2707 149.688 92.6267 150.131 108.356 149.946C121.733 148.989 131.978 143.515 138.552 135.665C145.126 127.815 148.036 117.906 148.036 108.14C148.036 89.9389 136.78 77.2498 128.36 67.4239L130.158 64.4262C154.435 64.557 165.918 47.4645 163.679 34.0119C163.27 31.5924 160.955 29.6429 158.501 29.6515C149.536 29.6515 146.237 33.7046 137.189 28.0709C135.763 9.18627 116.439 0.0212791 99.3084 1.14632e-09V1.14632e-09ZM99.3084 10.4651C112.536 10.9106 127.202 17.5981 127.27 32.3765C127.027 39.2243 124.311 44.6782 119.639 50.9084C118.348 52.6292 118.279 55.1705 119.475 56.9585L121.056 59.3023L117.459 65.298C116.338 67.1409 116.522 69.6849 117.895 71.348C126.859 82.1208 137.571 93.136 137.571 108.14C137.571 115.815 135.287 123.293 130.54 128.961C125.793 134.628 118.655 138.748 107.648 139.535H55.7589C44.9083 139.535 33.5822 132.391 24.909 120.676C17.6482 110.868 12.626 98.0323 11.1191 84.593C24.5013 89.0756 34.9218 86.572 43.6587 82.8488C54.1647 78.3719 63.1077 73.3884 80.9403 76.6352C83.3426 77.0531 85.9366 75.5447 86.7616 73.2501C87.5866 70.9556 86.547 68.1406 84.4286 66.9331C71.2176 59.4916 69.8983 46.5928 69.7122 38.4265C69.929 16.3224 84.5361 10.9906 99.3084 10.4651V10.4651ZM109.882 27.907C106.993 27.907 104.65 30.2496 104.65 33.1395C104.65 36.0295 106.993 38.3721 109.882 38.3721C112.772 38.3721 115.115 36.0295 115.115 33.1395C115.115 30.2496 112.772 27.907 109.882 27.907ZM136.753 39.7892C143.454 42.45 148.782 41.6065 152.941 40.8247C151.494 47.1889 145.547 54.4652 130.213 54.1788C132.456 49.3481 135.512 44.4584 136.753 39.7892V39.7892ZM42.1325 93.1503C41.1733 93.9635 40.0068 95.7666 40.0068 97.7288C40.0068 101.435 41.7455 101.984 42.5685 102.635C45.071 104.428 48.1592 105.706 50.7443 106.668C50.5894 107.176 50.4718 107.683 50.4718 108.194C50.4718 111.028 51.6865 111.886 52.3795 112.609C54.0059 114.247 56.1454 115.342 57.9935 116.315C57.664 117.063 57.4484 117.879 57.4484 118.659C57.4732 121.615 59.4351 123.274 61.4273 124.764C66.5914 127.97 73.2119 130.801 78.6509 130.814C81.4076 130.814 83.9079 128.283 83.8792 125.526C83.8504 122.77 81.2981 120.294 78.5419 120.349C78.0521 120.349 76.2369 119.661 74.8356 119.259C76.3007 118.11 77.0712 116.137 76.7724 114.3C76.4735 112.462 75.1175 110.836 73.3639 110.211C71.5508 109.822 69.6118 109.344 67.8592 108.793C69.3243 107.644 70.0948 105.672 69.796 103.834C69.4971 101.997 68.1411 100.37 66.3876 99.7448C64.4879 99.2372 62.3197 98.8282 60.6103 98.3812C62.3376 97.0968 63.1245 94.6773 62.4831 92.6226C61.8417 90.5678 59.8182 89.0256 57.667 88.9518C53.5884 89.7267 46.3287 90.4988 42.1325 93.1503V93.1503Z" fill="#333333"/>
</svg>
