<svg width="116" height="150" viewBox="0 0 116 150" fill="none" xmlns="http://www.w3.org/2000/svg">
<path d="M8.59739 131.281C6.4338 128.601 4.98594 125.416 4.38946 122.024C4.25744 121.199 3.11882 120.555 1.8812 120.671C1.38922 120.675 0.918065 120.87 0.567106 121.215C0.216148 121.56 0.0128175 122.027 0 122.519C0.275082 126.823 1.70598 130.973 4.14193 134.532C7.32047 139.266 12.0048 142.786 17.4353 144.524C22.8657 146.261 28.7238 146.113 34.0595 144.103C40.492 141.706 45.7289 136.884 48.6471 130.671C49.0251 129.864 49.3611 129.038 49.6537 128.196L50.0827 126.908L50.3962 125.852C50.8253 124.466 51.2873 123.13 51.8154 121.809C52.3332 120.512 52.934 119.25 53.6141 118.031C54.3401 116.76 55.0992 115.522 55.9408 114.301C59.4132 109.292 63.7359 104.931 68.7131 101.413C69.9838 100.522 71.2874 99.6476 72.6406 98.8555L74.8848 97.4694C75.6769 96.9908 76.436 96.4628 77.1785 95.9182C86.4503 89.3789 93.3887 80.0468 96.9806 69.2845C99.2931 62.1667 100.083 54.6421 99.2981 47.1993C98.5134 39.7565 96.1721 32.562 92.4261 26.083C88.9187 20.0569 84.2466 14.7896 78.6822 10.588C73.1179 6.38641 66.7727 3.33474 60.0167 1.61092C53.933 0.111996 47.6393 -0.345523 41.4028 0.257775C35.7876 0.861647 30.3085 2.37772 25.1816 4.74624C20.723 6.80977 16.5919 9.51749 12.9208 12.7826C9.89777 15.4991 7.23078 18.5875 4.98352 21.974C4.86077 22.2204 4.78858 22.4889 4.77121 22.7636C4.75384 23.0384 4.79163 23.3138 4.88236 23.5737C4.97309 23.8336 5.11493 24.0727 5.29952 24.2769C5.4841 24.4811 5.70769 24.6464 5.95712 24.7628V24.7628C6.34379 25.0597 6.82124 25.2136 7.30848 25.1986C7.79572 25.1835 8.26277 25.0004 8.6304 24.6803C10.9719 21.8671 13.6172 19.3213 16.5182 17.0895C23.8993 11.4571 32.781 8.13296 42.0464 7.53503C47.4022 7.25055 52.7688 7.83569 57.9375 9.26771C69.3009 12.5477 78.9235 20.1557 84.7363 30.4559C87.7702 35.835 89.6527 41.786 90.2644 47.9312L90.4789 50.258C90.5241 51.0384 90.5241 51.8208 90.4789 52.6012C90.4949 54.1662 90.4233 55.7308 90.2644 57.2877C89.9332 60.3956 89.275 63.4599 88.3007 66.4297C85.3215 75.378 79.607 83.1647 71.964 88.6905C71.3369 89.1525 70.7264 89.5981 70.0663 90.0106L68.0366 91.3142C66.5019 92.2383 65.0168 93.278 63.5646 94.3176C57.824 98.5202 52.8833 103.718 48.9771 109.664C48.02 111.116 47.1454 112.601 46.3368 114.103C45.5238 115.65 44.8127 117.249 44.2081 118.889C43.614 120.539 43.119 122.09 42.6899 123.658L42.3764 124.813L42.1124 125.72C41.928 126.314 41.7131 126.898 41.4688 127.47C39.5183 131.935 35.9263 135.479 31.4358 137.371C27.2877 139.1 22.6676 139.333 18.3664 138.031C14.515 136.795 11.1158 134.447 8.59739 131.281V131.281Z" fill="#333333"/>
<path d="M30.6926 71.2482C30.365 71.6093 30.0061 71.9406 29.62 72.2383L28.9929 72.7004L28.0523 73.3109C25.544 74.9611 23.1018 76.6113 20.9566 78.1129C17.3182 80.5888 13.8807 83.3476 10.676 86.3638C10.511 86.5288 10.94 87.5519 11.6166 88.6245C12.2932 89.6971 12.8377 90.2747 13.0192 90.2747C17.1752 88.8076 21.2086 87.0143 25.082 84.9116C27.4747 83.674 30.0325 82.3044 32.6233 80.8357L33.5969 80.2746L34.851 79.4826C35.6996 78.8939 36.4898 78.2253 37.2108 77.4859C39.3938 75.2374 40.8914 72.4139 41.5284 69.3454C42.1655 66.277 41.9157 63.0907 40.8081 60.159C39.4107 56.5599 36.7706 53.5802 33.3659 51.7597C30.5159 50.2584 27.2602 49.7091 24.0754 50.192C22.818 50.4002 21.596 50.7834 20.445 51.3306C20.445 51.1161 20.445 50.9016 20.577 50.6871C21.2363 48.0948 22.354 45.6414 23.8774 43.4428C25.5043 40.9283 27.5336 38.6983 29.884 36.8421C34.9594 32.8321 41.354 30.8713 47.8049 31.3471C51.1096 31.6318 54.3032 32.679 57.1349 34.4063C59.9666 36.1336 62.3591 38.4941 64.1246 41.3021C65.89 44.1102 66.9802 47.2894 67.3096 50.59C67.639 53.8905 67.1985 57.2225 66.0228 60.3241C64.9054 63.323 63.1486 66.0428 60.8742 68.2944C59.7583 69.3882 58.5304 70.3617 57.2108 71.1987L54.7851 72.8489C54.0095 73.4429 53.1349 74.004 52.4583 74.5981C47.0524 78.9873 42.5995 84.4341 39.3725 90.6047C36.9796 95.1637 35.1298 99.9877 33.8609 104.978C33.7124 105.539 34.587 106.298 35.7751 106.628C36.9632 106.958 37.7718 106.859 37.9698 106.364C39.9555 102.016 42.2553 97.8193 44.8511 93.8061C48.1378 88.7602 52.3146 84.3541 57.1778 80.8027C57.8379 80.3406 58.531 79.8951 59.2075 79.4496L61.3693 78.1624C65.8868 75.5636 69.6439 71.8255 72.2656 67.3212C74.8872 62.8169 76.2819 57.7038 76.3102 52.4921C76.3386 47.2805 74.9998 42.1525 72.4274 37.6198C69.8549 33.0872 66.1388 29.3084 61.6498 26.6606C57.6259 24.2945 53.1058 22.8989 48.4484 22.5846C42.2255 22.2444 36.0323 23.6607 30.5759 26.672C25.1195 29.6833 20.6197 34.1681 17.5902 39.6144C15.8325 42.6676 14.6731 46.0279 14.1744 49.5154C13.7522 52.5382 13.8752 55.6121 14.5374 58.5914C15.1053 60.9571 15.9703 63.2415 17.1117 65.3901C17.3592 65.9016 18.5473 65.9346 19.7189 65.3901C20.8906 64.8455 21.4846 64.2515 21.3691 63.7399C20.7337 61.7481 20.3024 59.6968 20.082 57.6178C20.082 57.3538 20.082 57.0897 20.082 56.8257C21.5306 56.4892 23.0249 56.3944 24.5044 56.5452C26.293 56.7419 27.9993 57.4017 29.4549 58.4594C31.0051 59.6013 32.1592 61.1996 32.7553 63.0304C33.3144 64.9168 33.2096 66.938 32.4583 68.7564C32.0263 69.6876 31.4279 70.532 30.6926 71.2482V71.2482Z" fill="#333333"/>
<path d="M80.0493 129.978C83.7088 129.099 87.053 127.223 89.7098 124.557C92.3667 121.891 94.2322 118.541 95.0988 114.879C95.7824 112.243 95.6676 109.463 94.7688 106.892C94.001 106.682 93.2021 106.609 92.4091 106.677C91.7226 106.636 91.0338 106.691 90.3628 106.842C89.5543 108.278 88.7127 110.225 87.6566 112.238C85.3331 116.602 81.7512 120.167 77.376 122.469C75.3628 123.592 73.4156 124.351 71.9799 125.143C71.8147 125.946 71.7592 126.767 71.8149 127.585C71.7554 128.291 71.8282 129.002 72.0294 129.681C74.6142 130.572 77.4056 130.676 80.0493 129.978Z" fill="#333333"/>
<path d="M88.0356 148.79C94.2042 147.036 99.8216 143.733 104.353 139.196C108.885 134.658 112.181 129.036 113.927 122.866C115.247 118.409 115.484 113.703 114.62 109.136C114.62 108.922 113.514 108.74 112.26 108.773C111.555 108.696 110.843 108.81 110.197 109.103C109.235 112.902 107.994 116.625 106.484 120.242C102.387 129.686 94.846 137.215 85.3953 141.298C81.7838 142.797 78.0663 144.027 74.2731 144.978C73.9484 145.748 73.829 146.59 73.9266 147.42C73.9266 148.575 74.1081 149.466 74.3061 149.499C78.8741 150.355 83.5801 150.111 88.0356 148.79V148.79Z" fill="#333333"/>
</svg>
