<svg width="162" height="150" viewBox="0 0 162 150" fill="none" xmlns="http://www.w3.org/2000/svg">
<path d="M19.6168 138.123L57.3312 77.9067C57.97 78.5962 58.7629 79.1248 59.645 79.4493C61.9781 80.3169 64.7932 79.7963 69.2857 77.6368C72.6407 76.0364 75.9378 74.4939 78.6565 73.2214C76.015 76.8463 72.8721 81.1653 71.426 82.8621C71.4297 82.9134 71.4297 82.965 71.426 83.0163C69.4978 85.6193 70.0956 91.7894 74.029 108.506V108.738C74.5688 111.013 75.1666 113.462 75.8221 116.142C76.4006 118.417 76.9405 120.577 77.114 121.502C76.3627 122.459 75.5306 123.349 74.6267 124.163C71.8116 126.901 67.9553 130.641 67.9553 135.616C67.8605 136.677 68.0271 137.745 68.4405 138.726C68.854 139.708 69.5017 140.573 70.3269 141.246C71.1682 141.796 72.1564 142.079 73.1613 142.056C75.6486 142.056 78.83 140.668 83.4769 138.643C85.0387 137.968 86.774 137.216 88.6828 136.426C99.1527 132.088 98.4585 127.653 96.3954 121.868C95.639 119.962 95.0707 117.986 94.6987 115.968C93.6722 108.68 93.0286 101.343 92.7705 93.9875C95.2031 91.6449 97.8644 89.552 100.714 87.7403C101.91 88.8393 104.301 92.657 106.229 99.0199C108.774 107.427 113.942 109.046 119.726 110.917L122.194 111.707C128.962 113.867 133.763 115.737 133.339 120.249C132.818 126.187 134.958 133.36 139.316 134.594C140.588 134.941 143.808 135.269 146.257 130.372C149.324 123.951 151.74 117.24 153.468 110.338C153.97 108.217 154.625 105.344 127.014 90.6132C127.458 77.9646 126.648 69.9242 124.469 64.7182C124.751 63.8659 124.797 62.9533 124.604 62.0767C123.891 59.2423 119.591 49.7944 113.594 36.7795C112.613 34.3937 110.916 32.3709 108.737 30.9896C106.558 29.6084 104.004 28.9366 101.428 29.0669C104.436 24.4779 104.86 16.6882 102.199 10.441C100.852 7.15192 98.4973 4.37433 95.473 2.5071C92.4487 0.639874 88.9105 -0.220922 85.3664 0.0483246C81.1354 0.144101 77.019 1.44248 73.4987 3.79164C69.9783 6.1408 67.1996 9.44364 65.4873 13.3139C63.5591 17.498 63.5592 21.2193 65.333 23.3017C65.9573 24.0128 66.7969 24.5004 67.7239 24.69C67.4591 28.3794 68.241 32.0686 69.9799 35.3333C65.7004 39.0214 61.7281 43.0517 58.1025 47.3842C55.7116 50.8356 55.326 59.6858 55.2681 63.8506C54.698 64.4087 54.2284 65.061 53.8799 65.7787C53.4831 66.8599 53.3175 68.0123 53.3939 69.1615C53.4703 70.3106 53.7869 71.431 54.3233 72.4501C53.8929 72.6766 53.5328 73.0167 53.2822 73.4335L20.0988 126.438C16.8981 126.438 9.47474 126.245 6.11977 126.245C5.25877 126.271 4.41207 126.472 3.63194 126.837C2.8518 127.202 2.15477 127.724 1.58385 128.369C1.01292 129.014 0.580219 129.769 0.312429 130.587C0.0446395 131.406 -0.0525557 132.271 0.0268419 133.129C0.0268419 136.812 2.10924 139.472 4.98217 139.472H17.168C17.657 139.473 18.1381 139.349 18.5663 139.113C18.9946 138.877 19.356 138.536 19.6168 138.123V138.123ZM66.8948 72.4115C62.865 74.3397 61.8045 74.089 61.631 74.0312C60.9964 73.2227 60.4952 72.3179 60.1463 71.3511L59.9342 70.8883C59.028 68.9602 59.0859 68.3239 59.163 68.1696C59.3289 67.8859 59.5688 67.6526 59.8571 67.4948L59.9728 67.3984C62.0381 66.2312 64.2401 65.3245 66.5285 64.699L74.2411 62.2695L77.6153 67.3984L66.8948 72.4115ZM86.9475 94.643C86.9475 96.8025 87.2367 100.775 87.5838 105.171H79.1771C77.8679 99.9114 76.8636 94.5808 76.1692 89.2057L86.9475 94.643ZM86.4269 131.143C84.4988 131.953 82.7249 132.724 81.1438 133.399C78.7471 134.546 76.2652 135.507 73.7205 136.272C73.7091 136.073 73.7091 135.873 73.7205 135.674C73.7205 133.148 76.3235 130.603 78.6372 128.366C80.951 126.13 83.2841 123.874 82.8791 121.059C82.7635 120.21 82.32 118.436 81.433 114.811C81.1824 113.809 80.8546 112.478 80.4882 110.955H88.0851C88.3165 113.038 88.5864 115.101 88.8949 116.99C89.3039 119.363 89.9499 121.688 90.8231 123.932C92.5199 128.231 92.6548 128.598 86.4269 131.143ZM141.09 127.846C140.897 128.193 140.743 128.463 140.608 128.655C139.342 126.253 138.819 123.528 139.104 120.827C139.644 114.773 135.903 111.341 131.488 109.123L136.732 102.799C140.554 104.918 144.186 107.363 147.588 110.107C145.956 116.202 143.782 122.139 141.09 127.846V127.846ZM131.661 99.8683L125.877 106.867L123.949 106.25L121.481 105.46C117.046 104.052 114.443 103.185 112.746 99.8876L123.871 95.5493C126.455 96.9375 129.097 98.4029 131.661 99.8683ZM121.23 90.4397L110.722 94.4502C109.102 90.0348 105.824 82.7464 101.621 81.898C100.56 81.6859 98.15 81.2231 89.2806 89.3406L78.1745 83.7297C80.7389 80.3362 84.2867 75.4387 86.2148 72.7586C90.6496 74.6867 100.348 78.543 106.73 77.9067C111.936 77.4247 116.969 74.0505 120.227 70.7533C121.301 77.2568 121.637 83.8607 121.23 90.4397ZM108.35 39.2475C112.399 48.0784 117.991 60.0521 118.897 63.2143C118.126 65.316 111.801 71.621 106.19 72.1416C101.544 72.5658 93.0983 69.4229 88.49 67.4369L105.246 52.3588C105.768 51.8356 106.071 51.132 106.09 50.3926C106.11 49.6533 105.846 48.9345 105.352 48.3839C104.859 47.8333 104.173 47.4928 103.436 47.4324C102.698 47.372 101.966 47.5962 101.389 48.0591L82.7635 64.8146L79.8327 60.3606C80.4621 60.0007 80.9308 59.4147 81.1438 58.7217C83.7468 50.1415 87.5645 40.038 89.2613 38.1484C89.6662 38.0135 90.129 37.8206 90.6881 37.5893C98.1115 34.5235 105.361 32.7496 108.35 39.2475ZM73.6433 23.8223C75.7318 23.2449 77.8579 22.8132 80.0062 22.5305C80.4126 23.7429 81.033 24.8726 81.8379 25.8662C82.2912 26.4315 82.8016 26.9484 83.3612 27.4087C83.7468 29.3368 83.554 32.0362 80.5075 35.3912C79.2523 35.4221 77.9991 35.2727 76.7862 34.9477C74.0868 32.0555 73.1613 28.8933 73.5662 23.7452L73.6433 23.8223ZM90.0904 31.7084C89.6932 31.6671 89.2918 31.7132 88.9142 31.8434C89.2356 30.5259 89.3462 29.1657 89.242 27.8136L89.994 27.3894C90.3989 27.158 90.7845 26.9266 91.228 26.7145L91.3823 27.5629C91.5074 28.6821 91.7864 29.7786 92.2114 30.8215C91.4208 31.0914 90.6881 31.3614 90.0133 31.6313L90.0904 31.7084ZM72.2936 13.1597C73.7746 10.9815 75.7588 9.19229 78.0781 7.94371C80.3973 6.69513 82.9834 6.02394 85.6171 5.98701C87.9964 5.75896 90.3856 6.30593 92.4287 7.54637C94.4718 8.78682 96.0593 10.6543 96.9546 12.8705C97.8326 14.8837 98.2857 17.0563 98.2857 19.2526C98.2857 21.4489 97.8326 23.6216 96.9546 25.6348C96.8745 24.7233 96.5988 23.8398 96.1463 23.0445C95.6938 22.2492 95.075 21.5609 94.3323 21.0265C93.699 20.6196 92.964 20.3991 92.2114 20.3902C91.7477 20.4003 91.2874 20.4716 90.8424 20.6023C89.4844 20.9949 88.1868 21.5724 86.9861 22.3184L86.5812 22.5498L86.2148 22.1448C85.8139 21.6194 85.5132 21.0246 85.3279 20.3902C83.5154 15.3385 79.717 16.129 69.9027 18.7127C70.2352 16.6843 71.0266 14.7586 72.2165 13.0826L72.2936 13.1597ZM68.5916 19.0984L68.7266 19.5804L68.5916 19.0984ZM62.8072 50.7199C66.1013 46.8414 69.6921 43.2248 73.5469 39.903C73.8688 40.1507 74.2354 40.334 74.6267 40.4429C76.3526 40.8949 78.126 41.1408 79.9098 41.1756C80.334 41.1756 80.7582 41.1756 81.1631 41.1756C79.1834 45.9264 77.4585 50.7793 75.9957 55.7138L67.2612 58.4903L69.5557 55.6174C69.8013 55.325 69.9869 54.987 70.1019 54.6228C70.2169 54.2586 70.259 53.8753 70.2259 53.4949C70.1928 53.1144 70.085 52.7442 69.9088 52.4054C69.7326 52.0665 69.4914 51.7657 69.199 51.5201C68.9065 51.2745 68.5685 51.0889 68.2044 50.9739C67.8402 50.8589 67.4569 50.8168 67.0764 50.8499C66.308 50.9168 65.5977 51.2862 65.1017 51.8768L61.5346 56.3115C61.6296 54.363 62.0805 52.4483 62.865 50.6621L62.8072 50.7199ZM15.5677 133.688H5.92696C5.85713 133.409 5.84333 133.118 5.88636 132.834C5.92938 132.549 6.02837 132.276 6.17762 132.03C8.52995 132.03 13.0418 132.03 16.5703 132.165L15.5677 133.688Z" fill="#333333"/>
<path d="M24.1475 149.846C24.9146 149.846 25.6502 149.541 26.1926 148.999C26.735 148.456 27.0397 147.721 27.0397 146.954C27.0397 146.186 26.735 145.451 26.1926 144.908C25.6502 144.366 24.9146 144.061 24.1475 144.061H14.0055C13.2384 144.061 12.5028 144.366 11.9604 144.908C11.418 145.451 11.1133 146.186 11.1133 146.954C11.1133 147.721 11.418 148.456 11.9604 148.999C12.5028 149.541 13.2384 149.846 14.0055 149.846H24.1475Z" fill="#333333"/>
<path d="M159.426 110.569C159.067 110.416 158.681 110.337 158.291 110.335C157.901 110.334 157.515 110.411 157.155 110.563C156.795 110.714 156.47 110.935 156.197 111.215C155.925 111.494 155.712 111.826 155.57 112.189L146.662 134.922C146.509 135.281 146.429 135.667 146.428 136.057C146.427 136.447 146.504 136.833 146.655 137.193C146.806 137.553 147.028 137.878 147.307 138.151C147.587 138.423 147.918 138.636 148.281 138.778C148.626 138.909 148.992 138.974 149.361 138.971C149.94 138.954 150.5 138.763 150.967 138.422C151.435 138.081 151.79 137.607 151.983 137.062L161.046 114.329C161.187 113.976 161.256 113.599 161.251 113.218C161.246 112.838 161.166 112.463 161.016 112.114C160.865 111.764 160.647 111.448 160.375 111.183C160.102 110.918 159.78 110.71 159.426 110.569V110.569Z" fill="#333333"/>
<path d="M74.9552 149.904C75.326 149.91 75.6941 149.838 76.0349 149.692L98.7099 140.571C99.0619 140.428 99.3822 140.217 99.6526 139.95C99.923 139.684 100.138 139.366 100.286 139.016C100.434 138.666 100.511 138.29 100.513 137.91C100.516 137.531 100.444 137.154 100.301 136.802C100.158 136.45 99.9466 136.13 99.6797 135.859C99.4129 135.589 99.0953 135.374 98.7453 135.226C98.3953 135.078 98.0196 135.001 97.6397 134.998C97.2597 134.996 96.8831 135.068 96.5311 135.211L73.8754 144.428C73.2542 144.68 72.7399 145.14 72.4203 145.729C72.1006 146.318 71.9956 147 72.1231 147.658C72.2507 148.316 72.6028 148.909 73.1194 149.337C73.6359 149.764 74.2849 149.998 74.9552 150V149.904Z" fill="#333333"/>
</svg>
