<svg width="119" height="150" viewBox="0 0 119 150" fill="none" xmlns="http://www.w3.org/2000/svg">
<path d="M118.75 93.75C118.75 83.6187 115.541 73.8469 109.516 65.35C111.416 60.5313 112.5 55.3813 112.5 50C112.5 36.5187 105.787 23.6656 94.3594 14.8094L107.984 5.725C109.131 4.95938 109.641 3.5375 109.241 2.21875C108.844 0.903125 107.628 0 106.25 0C91.9844 0 81.6781 1.95937 73.5719 4.8625C64.2875 2.59062 54.4625 2.59062 45.1781 4.8625C37.075 1.95937 26.7656 0 12.5 0C11.125 0 9.90625 0.903125 9.50938 2.21875C9.10938 3.5375 9.62187 4.95938 10.7656 5.725L24.3906 14.8094C12.9625 23.6656 6.25 36.5187 6.25 50C6.25 55.3813 7.33437 60.5313 9.23437 65.35C3.20937 73.8469 0 83.6187 0 93.75C0 106.659 5.19375 118.863 14.6031 128.531C13.3094 130.141 12.5 132.156 12.5 134.375V140.625C12.5 145.794 16.7062 150 21.875 150C24.2812 150 26.4656 149.075 28.125 147.581C29.7875 149.075 31.9719 150 34.375 150C36.7781 150 38.9656 149.081 40.625 147.588C42.2875 149.081 44.4719 150 46.875 150C49.7594 150 52.3125 148.663 54.0344 146.606C55.9281 146.769 57.7219 146.875 59.375 146.875C61.0281 146.875 62.825 146.769 64.7156 146.606C66.4375 148.663 68.9906 150 71.875 150C74.2781 150 76.4562 149.078 78.1187 147.588C79.7812 149.081 81.9688 150 84.375 150C86.7812 150 88.9625 149.075 90.625 147.581C92.2875 149.075 94.4688 150 96.875 150C102.044 150 106.25 145.794 106.25 140.625V134.375C106.25 132.156 105.444 130.141 104.147 128.531C113.556 118.863 118.75 106.659 118.75 93.75ZM112.5 93.75C112.5 104.963 107.975 115.6 99.7719 124.081C99.2469 109.153 97.5 96.3406 94.4594 85.1031C99.2563 81.3656 103.3 76.9031 106.322 71.8719C110.356 78.5938 112.5 86.0563 112.5 93.75ZM15.6719 64.5781C20.8344 70.9281 28.6969 75 37.5 75C41.9 75 46.1938 73.9094 50.125 71.9063L56.6969 82.8562C57.2594 83.8 58.2781 84.375 59.375 84.375C60.4719 84.375 61.4906 83.8 62.0531 82.8594L68.625 71.9094C72.5562 73.9094 76.85 75 81.25 75C90.0531 75 97.9156 70.9281 103.078 64.5781C96.2969 79.7875 79.2906 90.625 59.375 90.625C39.4594 90.625 22.4531 79.7875 15.6719 64.5781ZM39.9688 25.1938L57.6437 36.975C58.1656 37.325 58.7719 37.5 59.375 37.5C59.9781 37.5 60.5844 37.325 61.1094 36.975L78.7844 25.1938C79.6438 25.0875 80.4844 25 81.25 25C93.3125 25 103.125 34.8156 103.125 46.875C103.125 58.9344 93.3125 68.75 81.25 68.75C77.95 68.75 74.7156 67.9688 71.7406 66.5094C71.825 66.2219 71.875 65.925 71.875 65.625C71.875 58.7312 66.2688 53.125 59.375 53.125C52.4812 53.125 46.875 58.7312 46.875 65.625C46.875 65.925 46.925 66.2219 47.0094 66.5094C44.0344 67.9688 40.8 68.75 37.5 68.75C25.4375 68.75 15.625 58.9375 15.625 46.875C15.625 34.8125 25.4375 25 37.5 25C38.2688 25 39.1063 25.0875 39.9688 25.1938ZM65.575 64.8406L59.375 75.175L53.175 64.8406C53.5625 61.7625 56.1937 59.375 59.375 59.375C62.5563 59.375 65.1875 61.7625 65.575 64.8406ZM91.925 20.8656C90.475 20.2688 88.9594 19.7969 87.4 19.4469L88.7906 18.5188C89.8719 19.2781 90.9375 20.0438 91.925 20.8656ZM63.3 9.5375C61.9344 10.3063 60.6313 11.0937 59.375 11.8937C58.1187 11.0937 56.8156 10.3063 55.45 9.5375C58.0625 9.35 60.6875 9.35 63.3 9.5375ZM57.6406 18.225C58.6906 18.925 60.0563 18.925 61.1063 18.225C68.8781 13.0437 78.4531 8.18437 95.2406 6.70625L59.375 30.6188L23.5063 6.70625C40.2969 8.18437 49.8687 13.0437 57.6406 18.225ZM31.35 19.4469C29.7906 19.7969 28.275 20.2688 26.825 20.8656C27.8125 20.0406 28.8781 19.275 29.9594 18.5188L31.35 19.4469ZM6.25 93.75C6.25 86.0563 8.39375 78.5938 12.425 71.875C15.4469 76.9031 19.4906 81.3656 24.2875 85.1031C21.25 96.3406 19.5031 109.15 18.975 124.078C10.775 115.597 6.25 104.959 6.25 93.75ZM25 140.625C25 142.347 23.5969 143.75 21.875 143.75C20.1531 143.75 18.75 142.347 18.75 140.625V134.375C18.75 132.653 20.1531 131.25 21.875 131.25C23.5969 131.25 25 132.653 25 134.375V140.625ZM37.5 140.625C37.5 142.347 36.0969 143.75 34.375 143.75C32.6531 143.75 31.25 142.347 31.25 140.625V134.375C31.25 132.653 32.6531 131.25 34.375 131.25C36.0969 131.25 37.5 132.653 37.5 134.375V140.625ZM50 140.625C50 142.347 48.5969 143.75 46.875 143.75C45.1531 143.75 43.75 142.347 43.75 140.625V134.375C43.75 132.653 45.1531 131.25 46.875 131.25C48.5969 131.25 50 132.653 50 134.375V140.625ZM56.25 140.528V134.375C56.25 129.206 52.0438 125 46.875 125C44.4719 125 42.275 125.909 40.6125 127.403C38.9531 125.916 36.775 125 34.375 125C31.9688 125 29.7844 125.922 28.1219 127.416C27.2656 126.647 26.275 126.038 25.1812 125.622C25.6031 111.575 27.0969 99.475 29.7469 88.8875C38.2188 93.9281 48.4125 96.875 59.375 96.875C70.3375 96.875 80.5344 93.9281 89.0031 88.8875C91.6531 99.475 93.1469 111.575 93.5688 125.625C92.475 126.041 91.475 126.644 90.6188 127.412C88.9594 125.922 86.7781 125 84.375 125C81.975 125 79.7969 125.916 78.1375 127.403C76.475 125.909 74.2812 125 71.875 125C66.7062 125 62.5 129.206 62.5 134.375V140.528C60.3563 140.659 58.3937 140.659 56.25 140.528ZM75 140.625C75 142.347 73.5969 143.75 71.875 143.75C70.1531 143.75 68.75 142.347 68.75 140.625V134.375C68.75 132.653 70.1531 131.25 71.875 131.25C73.5969 131.25 75 132.653 75 134.375V140.625ZM87.5 140.625C87.5 142.347 86.0969 143.75 84.375 143.75C82.6531 143.75 81.25 142.347 81.25 140.625V134.375C81.25 132.653 82.6531 131.25 84.375 131.25C86.0969 131.25 87.5 132.653 87.5 134.375V140.625ZM100 140.625C100 142.347 98.5969 143.75 96.875 143.75C95.1531 143.75 93.75 142.347 93.75 140.625V134.375C93.75 132.653 95.1531 131.25 96.875 131.25C98.5969 131.25 100 132.653 100 134.375V140.625ZM81.25 62.5C89.8656 62.5 96.875 55.4906 96.875 46.875C96.875 38.2594 89.8656 31.25 81.25 31.25C72.6344 31.25 65.625 38.2594 65.625 46.875C65.625 55.4906 72.6344 62.5 81.25 62.5ZM81.25 37.5C86.4188 37.5 90.625 41.7062 90.625 46.875C90.625 52.0438 86.4188 56.25 81.25 56.25C76.0812 56.25 71.875 52.0438 71.875 46.875C71.875 41.7062 76.0812 37.5 81.25 37.5ZM37.5 62.5C46.1156 62.5 53.125 55.4906 53.125 46.875C53.125 38.2594 46.1156 31.25 37.5 31.25C28.8844 31.25 21.875 38.2594 21.875 46.875C21.875 55.4906 28.8844 62.5 37.5 62.5ZM37.5 37.5C42.6688 37.5 46.875 41.7062 46.875 46.875C46.875 52.0438 42.6688 56.25 37.5 56.25C32.3312 56.25 28.125 52.0438 28.125 46.875C28.125 41.7062 32.3312 37.5 37.5 37.5ZM34.375 46.875C34.375 45.15 35.775 43.75 37.5 43.75C39.225 43.75 40.625 45.15 40.625 46.875C40.625 48.6 39.225 50 37.5 50C35.775 50 34.375 48.6 34.375 46.875ZM78.125 46.875C78.125 45.15 79.525 43.75 81.25 43.75C82.975 43.75 84.375 45.15 84.375 46.875C84.375 48.6 82.975 50 81.25 50C79.525 50 78.125 48.6 78.125 46.875Z" fill="#333333"/>
</svg>
