<svg width="192" height="150" viewBox="0 0 192 150" fill="none" xmlns="http://www.w3.org/2000/svg">
<path d="M190.556 13.7007L188.277 11.422L188.191 6.11133C188.18 5.44146 187.958 4.79217 187.557 4.25544C187.156 3.71872 186.596 3.32179 185.957 3.1209L176.491 0.14642C176.064 0.0123449 175.613 -0.0303224 175.169 0.0211858C174.724 0.0726941 174.295 0.217227 173.909 0.445391C173.524 0.673556 173.191 0.980245 172.932 1.34552C172.673 1.7108 172.494 2.12649 172.406 2.56558L169.575 16.7071L161.759 19.3114C161.25 19.4811 160.792 19.7765 160.427 20.1704C160.062 20.5642 159.802 21.0437 159.672 21.5646L156.618 33.7848L150.688 42.5614L146.287 46.1327L144.104 41.7252L149.466 33.6859C149.814 33.1609 150.001 32.5448 150.002 31.9146V22.3401C150.002 21.4937 149.666 20.6819 149.067 20.0834C148.469 19.4848 147.657 19.1486 146.81 19.1486H143.619C143.124 19.1481 142.635 19.2629 142.192 19.4837L136.99 22.0848L128.67 19.3114C128.471 19.2465 128.267 19.2005 128.06 19.1741L116.395 17.7092L111.034 10.806C110.761 10.4557 110.419 10.1661 110.028 9.95557C109.637 9.74508 109.207 9.61837 108.765 9.58353C108.322 9.54869 107.878 9.60649 107.459 9.75324C107.04 9.89999 106.656 10.1325 106.333 10.4358L101.226 15.2231L100.824 15.2869C85.5901 17.7227 70.0858 17.9634 54.7835 16.0018C54.3674 15.949 53.9449 15.9787 53.5401 16.0891C53.1354 16.1996 52.7564 16.3887 52.4248 16.6457C52.0932 16.9026 51.8154 17.2223 51.6074 17.5866C51.3993 17.9509 51.2651 18.3526 51.2122 18.7688C51.1594 19.185 51.1891 19.6075 51.2996 20.0122C51.4101 20.4169 51.5992 20.7959 51.8561 21.1275C52.1131 21.4591 52.4328 21.7369 52.7971 21.945C53.1614 22.153 53.5631 22.2873 53.9793 22.3401C66.7786 23.9621 79.7217 24.1109 92.5549 22.7837V82.9785H25.5335C24.687 82.9785 23.8753 83.3148 23.2767 83.9133C22.6782 84.5118 22.342 85.3236 22.342 86.17C22.342 87.0165 22.6782 87.8282 23.2767 88.4268C23.8753 89.0253 24.687 89.3615 25.5335 89.3615H156.385C157.231 89.3615 158.043 89.0253 158.642 88.4268C159.24 87.8282 159.576 87.0165 159.576 86.17C159.576 85.3236 159.24 84.5118 158.642 83.9133C158.043 83.3148 157.231 82.9785 156.385 82.9785H98.9379V76.5955H172.342V81.6573L166.894 87.1051C166.296 87.7035 165.96 88.5152 165.959 89.3615V94.2126L164.044 95.7445H86.1719C85.3255 95.7445 84.5137 96.0808 83.9152 96.6793C83.3167 97.2778 82.9804 98.0896 82.9804 98.936C82.9804 99.7825 83.3167 100.594 83.9152 101.193C84.5137 101.791 85.3255 102.128 86.1719 102.128H156.066L151.202 106.018C150.851 106.298 150.563 106.65 150.358 107.049C150.152 107.448 150.033 107.887 150.008 108.335C150.008 108.396 150.037 108.45 150.037 108.511H135.356L133.1 106.254C132.501 105.656 131.69 105.32 130.843 105.32C129.997 105.32 129.185 105.656 128.587 106.254L126.34 108.511H30.892C29.3409 106.139 27.7835 103.851 26.4781 102.128H73.4059C74.2524 102.128 75.0641 101.791 75.6627 101.193C76.2612 100.594 76.5974 99.7825 76.5974 98.936C76.5974 98.0896 76.2612 97.2778 75.6627 96.6793C75.0641 96.0808 74.2524 95.7445 73.4059 95.7445H21.6749C19.6739 92.486 17.3537 88.1775 15.8122 85.1232L12.7036 69.5742C12.6492 69.2964 12.5579 69.027 12.4324 68.7732L6.76108 57.4466L12.4483 46.1072C12.7617 45.4667 12.8516 44.7398 12.7036 44.0423L9.6813 28.9146L12.6047 20.1443C12.7114 19.8232 12.7664 19.487 12.7675 19.1486V12.7656H15.3685C23.7474 15.9182 32.364 18.3984 41.1367 20.1826C41.9568 20.3296 42.8018 20.1501 43.4913 19.6824C44.1807 19.2147 44.66 18.496 44.8267 17.6797C44.9934 16.8634 44.8342 16.0143 44.3833 15.3137C43.9323 14.6132 43.2253 14.1168 42.4133 13.9305C33.787 12.1774 25.3184 9.72238 17.092 6.59005C16.73 6.45276 16.3461 6.38247 15.959 6.38261H9.57598C8.72954 6.38261 7.91777 6.71885 7.31925 7.31738C6.72073 7.9159 6.38448 8.72767 6.38448 9.5741V18.6316L3.35575 27.7146C3.17964 28.2411 3.14551 28.8047 3.25681 29.3486L6.23129 44.2338L0.336594 56.02C0.115237 56.4629 0 56.9514 0 57.4466C0 57.9418 0.115237 58.4302 0.336594 58.8732L6.53129 71.2594L9.63981 86.8083C9.6943 87.0862 9.78552 87.3556 9.91109 87.6094C12.7345 93.5303 16.1429 99.1541 20.0856 104.397C24.565 110.312 28.6688 116.503 32.3728 122.933C32.7647 123.586 33.3771 124.077 34.0994 124.318L43.6739 127.509C44.2004 127.686 44.7641 127.72 45.308 127.608L58.6612 124.94L64.058 138.434C64.344 139.152 64.8807 139.742 65.5686 140.094C66.2565 140.446 67.0488 140.537 67.7985 140.349L78.8091 137.595L90.2985 149.084C90.9004 149.665 91.7066 149.987 92.5434 149.98C93.3802 149.973 94.1807 149.637 94.7724 149.045C95.3641 148.453 95.6998 147.653 95.7071 146.816C95.7143 145.979 95.3927 145.173 94.8113 144.571L82.0453 131.805C81.6555 131.415 81.1713 131.133 80.64 130.986C80.1086 130.839 79.5482 130.832 79.0134 130.966L68.9506 133.481L66.6304 127.659H94.039L93.0815 129.08C92.6713 129.694 92.4868 130.431 92.5596 131.167C92.6323 131.902 92.9578 132.589 93.4804 133.111L100.751 140.362L102.193 147.447C102.34 148.168 102.732 148.816 103.302 149.281C103.872 149.746 104.585 150 105.321 150C105.535 150.001 105.749 149.979 105.959 149.936C106.37 149.852 106.76 149.689 107.108 149.454C107.455 149.219 107.753 148.919 107.984 148.569C108.215 148.219 108.375 147.827 108.455 147.416C108.535 147.004 108.532 146.581 108.449 146.17L106.824 138.147C106.7 137.53 106.397 136.964 105.953 136.519L99.8539 130.436L103.837 124.468H118.087C118.933 124.468 119.745 124.131 120.343 123.533L130.853 113.023L134.979 117.15C135.128 117.298 135.29 117.432 135.465 117.549L144.015 123.249L146.906 134.818C147.099 135.587 147.571 136.258 148.231 136.698L157.805 143.081C158.109 143.284 158.446 143.433 158.801 143.521L171.567 146.713C172.037 146.831 172.529 146.84 173.003 146.739C173.478 146.639 173.923 146.431 174.306 146.133C174.688 145.834 174.998 145.453 175.21 145.017C175.423 144.581 175.534 144.102 175.534 143.617V134.042C175.534 133.196 175.197 132.384 174.599 131.786L168.749 125.936L165.797 117.076C165.638 116.607 165.374 116.18 165.024 115.829L157.971 108.775L171.146 98.2435C171.52 97.9437 171.822 97.5633 172.029 97.1306C172.236 96.698 172.343 96.2242 172.342 95.7445V90.6828L177.79 85.2349C178.389 84.6365 178.725 83.8249 178.725 82.9785V77.9168L180.982 75.6604C181.58 75.0621 181.917 74.2504 181.917 73.404V67.021C181.922 66.5272 181.813 66.0389 181.598 65.5945L176.223 54.8934L186.484 45.555C186.841 45.2361 187.121 44.8411 187.304 44.3991C187.488 43.9572 187.57 43.4796 187.543 43.0018L187.109 35.0518L191.172 26.9582C191.388 26.5138 191.497 26.0254 191.491 25.5316V15.9571C191.491 15.1107 191.155 14.2991 190.556 13.7007ZM116.766 118.085H102.129C101.604 118.085 101.087 118.215 100.624 118.462C100.161 118.71 99.7656 119.068 99.4741 119.505L98.2996 121.276H64.0772L63.6048 120.089C63.3268 119.395 62.8138 118.82 62.1552 118.465C61.4966 118.111 60.7344 117.999 60.0016 118.149L44.8739 121.171L37.2143 118.618C36.6846 117.74 35.8771 116.422 34.9292 114.89H119.957L116.766 118.085ZM169.151 135.364V139.513L160.888 137.448L152.798 132.054L151.697 127.659H162.596L162.931 128.668C163.089 129.138 163.353 129.565 163.703 129.916L169.151 135.364ZM159.978 119.808L160.467 121.276H150.101L149.906 120.501C149.714 119.732 149.241 119.061 148.582 118.621L142.981 114.894H155.054L159.978 119.808ZM137.555 42.9061L138.433 44.6806H98.9379V38.2976H138.72L137.762 39.7178C137.451 40.1841 137.267 40.7244 137.231 41.2841C137.195 41.8439 137.306 42.4033 137.555 42.9061V42.9061ZM101.839 21.5805L103.199 21.3603C103.825 21.2602 104.407 20.9757 104.871 20.5433L108.139 17.4858L112.167 22.6592C112.686 23.3267 113.45 23.7607 114.289 23.8656L126.95 25.4614L136.227 28.5539C137.03 28.8215 137.906 28.7595 138.662 28.3816L143.619 25.9082V30.9571L142.981 31.9146H98.9379V21.9954C99.8954 21.8582 100.875 21.7369 101.839 21.5805ZM98.9379 70.2125V63.8296H124.47C125.316 63.8296 126.128 63.4933 126.727 62.8948C127.325 62.2963 127.661 61.4845 127.661 60.6381C127.661 59.7916 127.325 58.9798 126.727 58.3813C126.128 57.7828 125.316 57.4466 124.47 57.4466H98.9379V51.0636H141.605L142.339 52.5412C142.551 52.9702 142.858 53.3459 143.235 53.6406C143.612 53.9352 144.051 54.1411 144.519 54.2432C144.986 54.3453 145.471 54.3408 145.937 54.2302C146.403 54.1195 146.837 53.9055 147.209 53.604L150.343 51.0508H171.021L170.086 51.9859C169.612 52.4592 169.299 53.0696 169.192 53.7306C169.084 54.3916 169.187 55.0697 169.486 55.6689L170.37 57.4338H137.236C136.389 57.4338 135.578 57.77 134.979 58.3686C134.381 58.9671 134.044 59.7789 134.044 60.6253C134.044 61.4717 134.381 62.2835 134.979 62.882C135.578 63.4805 136.389 63.8168 137.236 63.8168H173.561L175.534 67.7742V70.2125H98.9379ZM177.883 44.6806H156.963L161.271 38.2976H180.896L181.087 41.8082L177.883 44.6806ZM185.108 24.7784L181.54 31.9146H163.668L165.442 24.8135L173.354 22.1773C173.888 21.9991 174.365 21.683 174.737 21.2609C175.109 20.8389 175.363 20.326 175.473 19.7741L177.969 7.30176L181.85 8.51772L181.917 12.8199C181.931 13.6474 182.266 14.437 182.852 15.022L185.108 17.2784V24.7784Z" fill="#333333"/>
<path d="M25.5325 28.7231C25.5325 27.8767 25.1963 27.0649 24.5977 26.4664C23.9992 25.8679 23.1874 25.5316 22.341 25.5316C21.4946 25.5316 20.6828 25.8679 20.0843 26.4664C19.4858 27.0649 19.1495 27.8767 19.1495 28.7231C18.3031 28.7231 17.4913 29.0594 16.8928 29.6579C16.2943 30.2564 15.958 31.0682 15.958 31.9146C15.958 32.761 16.2943 33.5728 16.8928 34.1713C17.4913 34.7699 18.3031 35.1061 19.1495 35.1061C19.1495 35.9525 19.4858 36.7643 20.0843 37.3628C20.6828 37.9614 21.4946 38.2976 22.341 38.2976C23.1874 38.2976 23.9992 37.9614 24.5977 37.3628C25.1963 36.7643 25.5325 35.9525 25.5325 35.1061C26.3789 35.1061 27.1907 34.7699 27.7892 34.1713C28.3877 33.5728 28.724 32.761 28.724 31.9146C28.724 31.0682 28.3877 30.2564 27.7892 29.6579C27.1907 29.0594 26.3789 28.7231 25.5325 28.7231Z" fill="#333333"/>
<path d="M41.4904 25.5316C40.644 25.5316 39.8322 25.8679 39.2337 26.4664C38.6352 27.0649 38.2989 27.8767 38.2989 28.7231C37.4525 28.7231 36.6407 29.0594 36.0422 29.6579C35.4437 30.2564 35.1074 31.0682 35.1074 31.9146C35.1074 32.761 35.4437 33.5728 36.0422 34.1713C36.6407 34.7699 37.4525 35.1061 38.2989 35.1061C38.2989 35.9525 38.6352 36.7643 39.2337 37.3628C39.8322 37.9614 40.644 38.2976 41.4904 38.2976C42.3369 38.2976 43.1486 37.9614 43.7471 37.3628C44.3457 36.7643 44.6819 35.9525 44.6819 35.1061C45.5284 35.1061 46.3401 34.7699 46.9386 34.1713C47.5372 33.5728 47.8734 32.761 47.8734 31.9146C47.8734 31.0682 47.5372 30.2564 46.9386 29.6579C46.3401 29.0594 45.5284 28.7231 44.6819 28.7231C44.6819 27.8767 44.3457 27.0649 43.7471 26.4664C43.1486 25.8679 42.3369 25.5316 41.4904 25.5316Z" fill="#333333"/>
<path d="M57.4474 35.1061C57.4474 35.9525 57.7836 36.7643 58.3821 37.3628C58.9806 37.9614 59.7924 38.2976 60.6389 38.2976C61.4853 38.2976 62.2971 37.9614 62.8956 37.3628C63.4941 36.7643 63.8304 35.9525 63.8304 35.1061C64.6768 35.1061 65.4886 34.7699 66.0871 34.1713C66.6856 33.5728 67.0218 32.761 67.0218 31.9146C67.0218 31.0682 66.6856 30.2564 66.0871 29.6579C65.4886 29.0594 64.6768 28.7231 63.8304 28.7231C63.8304 27.8767 63.4941 27.0649 62.8956 26.4664C62.2971 25.8679 61.4853 25.5316 60.6389 25.5316C59.7924 25.5316 58.9806 25.8679 58.3821 26.4664C57.7836 27.0649 57.4474 27.8767 57.4474 28.7231C56.6009 28.7231 55.7891 29.0594 55.1906 29.6579C54.5921 30.2564 54.2559 31.0682 54.2559 31.9146C54.2559 32.761 54.5921 33.5728 55.1906 34.1713C55.7891 34.7699 56.6009 35.1061 57.4474 35.1061Z" fill="#333333"/>
<path d="M76.5968 35.1061C76.5968 35.9525 76.933 36.7643 77.5315 37.3628C78.1301 37.9614 78.9418 38.2976 79.7883 38.2976C80.6347 38.2976 81.4465 37.9614 82.045 37.3628C82.6435 36.7643 82.9798 35.9525 82.9798 35.1061C83.8262 35.1061 84.638 34.7699 85.2365 34.1713C85.835 33.5728 86.1713 32.761 86.1713 31.9146C86.1713 31.0682 85.835 30.2564 85.2365 29.6579C84.638 29.0594 83.8262 28.7231 82.9798 28.7231C82.9798 27.8767 82.6435 27.0649 82.045 26.4664C81.4465 25.8679 80.6347 25.5316 79.7883 25.5316C78.9418 25.5316 78.1301 25.8679 77.5315 26.4664C76.933 27.0649 76.5968 27.8767 76.5968 28.7231C75.7503 28.7231 74.9386 29.0594 74.34 29.6579C73.7415 30.2564 73.4053 31.0682 73.4053 31.9146C73.4053 32.761 73.7415 33.5728 74.34 34.1713C74.9386 34.7699 75.7503 35.1061 76.5968 35.1061Z" fill="#333333"/>
<path d="M25.5325 47.8721C25.5325 47.0256 25.1963 46.2139 24.5977 45.6153C23.9992 45.0168 23.1874 44.6806 22.341 44.6806C21.4946 44.6806 20.6828 45.0168 20.0843 45.6153C19.4858 46.2139 19.1495 47.0256 19.1495 47.8721C18.3031 47.8721 17.4913 48.2083 16.8928 48.8068C16.2943 49.4054 15.958 50.2171 15.958 51.0636C15.958 51.91 16.2943 52.7218 16.8928 53.3203C17.4913 53.9188 18.3031 54.2551 19.1495 54.2551C19.1495 55.1015 19.4858 55.9133 20.0843 56.5118C20.6828 57.1103 21.4946 57.4466 22.341 57.4466C23.1874 57.4466 23.9992 57.1103 24.5977 56.5118C25.1963 55.9133 25.5325 55.1015 25.5325 54.2551C26.3789 54.2551 27.1907 53.9188 27.7892 53.3203C28.3877 52.7218 28.724 51.91 28.724 51.0636C28.724 50.2171 28.3877 49.4054 27.7892 48.8068C27.1907 48.2083 26.3789 47.8721 25.5325 47.8721Z" fill="#333333"/>
<path d="M44.6819 47.8721C44.6819 47.0256 44.3457 46.2139 43.7471 45.6153C43.1486 45.0168 42.3369 44.6806 41.4904 44.6806C40.644 44.6806 39.8322 45.0168 39.2337 45.6153C38.6352 46.2139 38.2989 47.0256 38.2989 47.8721C37.4525 47.8721 36.6407 48.2083 36.0422 48.8068C35.4437 49.4054 35.1074 50.2171 35.1074 51.0636C35.1074 51.91 35.4437 52.7218 36.0422 53.3203C36.6407 53.9188 37.4525 54.2551 38.2989 54.2551C38.2989 55.1015 38.6352 55.9133 39.2337 56.5118C39.8322 57.1103 40.644 57.4466 41.4904 57.4466C42.3369 57.4466 43.1486 57.1103 43.7471 56.5118C44.3457 55.9133 44.6819 55.1015 44.6819 54.2551C45.5284 54.2551 46.3401 53.9188 46.9386 53.3203C47.5372 52.7218 47.8734 51.91 47.8734 51.0636C47.8734 50.2171 47.5372 49.4054 46.9386 48.8068C46.3401 48.2083 45.5284 47.8721 44.6819 47.8721Z" fill="#333333"/>
<path d="M57.4474 54.2551C57.4474 55.1015 57.7836 55.9133 58.3821 56.5118C58.9806 57.1103 59.7924 57.4466 60.6389 57.4466C61.4853 57.4466 62.2971 57.1103 62.8956 56.5118C63.4941 55.9133 63.8304 55.1015 63.8304 54.2551C64.6768 54.2551 65.4886 53.9188 66.0871 53.3203C66.6856 52.7218 67.0218 51.91 67.0218 51.0636C67.0218 50.2171 66.6856 49.4054 66.0871 48.8068C65.4886 48.2083 64.6768 47.8721 63.8304 47.8721C63.8304 47.0256 63.4941 46.2139 62.8956 45.6153C62.2971 45.0168 61.4853 44.6806 60.6389 44.6806C59.7924 44.6806 58.9806 45.0168 58.3821 45.6153C57.7836 46.2139 57.4474 47.0256 57.4474 47.8721C56.6009 47.8721 55.7891 48.2083 55.1906 48.8068C54.5921 49.4054 54.2559 50.2171 54.2559 51.0636C54.2559 51.91 54.5921 52.7218 55.1906 53.3203C55.7891 53.9188 56.6009 54.2551 57.4474 54.2551Z" fill="#333333"/>
<path d="M76.5968 54.2551C76.5968 55.1015 76.933 55.9133 77.5315 56.5118C78.1301 57.1103 78.9418 57.4466 79.7883 57.4466C80.6347 57.4466 81.4465 57.1103 82.045 56.5118C82.6435 55.9133 82.9798 55.1015 82.9798 54.2551C83.8262 54.2551 84.638 53.9188 85.2365 53.3203C85.835 52.7218 86.1713 51.91 86.1713 51.0636C86.1713 50.2171 85.835 49.4054 85.2365 48.8068C84.638 48.2083 83.8262 47.8721 82.9798 47.8721C82.9798 47.0256 82.6435 46.2139 82.045 45.6153C81.4465 45.0168 80.6347 44.6806 79.7883 44.6806C78.9418 44.6806 78.1301 45.0168 77.5315 45.6153C76.933 46.2139 76.5968 47.0256 76.5968 47.8721C75.7503 47.8721 74.9386 48.2083 74.34 48.8068C73.7415 49.4054 73.4053 50.2171 73.4053 51.0636C73.4053 51.91 73.7415 52.7218 74.34 53.3203C74.9386 53.9188 75.7503 54.2551 76.5968 54.2551Z" fill="#333333"/>
<path d="M25.5325 67.021C25.5325 66.1746 25.1963 65.3628 24.5977 64.7643C23.9992 64.1658 23.1874 63.8295 22.341 63.8295C21.4946 63.8295 20.6828 64.1658 20.0843 64.7643C19.4858 65.3628 19.1495 66.1746 19.1495 67.021C18.3031 67.021 17.4913 67.3573 16.8928 67.9558C16.2943 68.5543 15.958 69.3661 15.958 70.2125C15.958 71.059 16.2943 71.8707 16.8928 72.4693C17.4913 73.0678 18.3031 73.404 19.1495 73.404C19.1495 74.2505 19.4858 75.0622 20.0843 75.6608C20.6828 76.2593 21.4946 76.5955 22.341 76.5955C23.1874 76.5955 23.9992 76.2593 24.5977 75.6608C25.1963 75.0622 25.5325 74.2505 25.5325 73.404C26.3789 73.404 27.1907 73.0678 27.7892 72.4693C28.3877 71.8707 28.724 71.059 28.724 70.2125C28.724 69.3661 28.3877 68.5543 27.7892 67.9558C27.1907 67.3573 26.3789 67.021 25.5325 67.021Z" fill="#333333"/>
<path d="M44.6819 67.021C44.6819 66.1746 44.3457 65.3628 43.7471 64.7643C43.1486 64.1658 42.3369 63.8295 41.4904 63.8295C40.644 63.8295 39.8322 64.1658 39.2337 64.7643C38.6352 65.3628 38.2989 66.1746 38.2989 67.021C37.4525 67.021 36.6407 67.3573 36.0422 67.9558C35.4437 68.5543 35.1074 69.3661 35.1074 70.2125C35.1074 71.059 35.4437 71.8707 36.0422 72.4693C36.6407 73.0678 37.4525 73.404 38.2989 73.404C38.2989 74.2505 38.6352 75.0622 39.2337 75.6608C39.8322 76.2593 40.644 76.5955 41.4904 76.5955C42.3369 76.5955 43.1486 76.2593 43.7471 75.6608C44.3457 75.0622 44.6819 74.2505 44.6819 73.404C45.5284 73.404 46.3401 73.0678 46.9386 72.4693C47.5372 71.8707 47.8734 71.059 47.8734 70.2125C47.8734 69.3661 47.5372 68.5543 46.9386 67.9558C46.3401 67.3573 45.5284 67.021 44.6819 67.021Z" fill="#333333"/>
<path d="M57.4474 73.404C57.4474 74.2505 57.7836 75.0622 58.3821 75.6608C58.9806 76.2593 59.7924 76.5955 60.6389 76.5955C61.4853 76.5955 62.2971 76.2593 62.8956 75.6608C63.4941 75.0622 63.8304 74.2505 63.8304 73.404C64.6768 73.404 65.4886 73.0678 66.0871 72.4693C66.6856 71.8707 67.0218 71.059 67.0218 70.2125C67.0218 69.3661 66.6856 68.5543 66.0871 67.9558C65.4886 67.3573 64.6768 67.021 63.8304 67.021C63.8304 66.1746 63.4941 65.3628 62.8956 64.7643C62.2971 64.1658 61.4853 63.8295 60.6389 63.8295C59.7924 63.8295 58.9806 64.1658 58.3821 64.7643C57.7836 65.3628 57.4474 66.1746 57.4474 67.021C56.6009 67.021 55.7891 67.3573 55.1906 67.9558C54.5921 68.5543 54.2559 69.3661 54.2559 70.2125C54.2559 71.059 54.5921 71.8707 55.1906 72.4693C55.7891 73.0678 56.6009 73.404 57.4474 73.404Z" fill="#333333"/>
<path d="M76.5968 73.404C76.5968 74.2505 76.933 75.0622 77.5315 75.6608C78.1301 76.2593 78.9418 76.5955 79.7883 76.5955C80.6347 76.5955 81.4465 76.2593 82.045 75.6608C82.6435 75.0622 82.9798 74.2505 82.9798 73.404C83.8262 73.404 84.638 73.0678 85.2365 72.4693C85.835 71.8707 86.1713 71.059 86.1713 70.2125C86.1713 69.3661 85.835 68.5543 85.2365 67.9558C84.638 67.3573 83.8262 67.021 82.9798 67.021C82.9798 66.1746 82.6435 65.3628 82.045 64.7643C81.4465 64.1658 80.6347 63.8295 79.7883 63.8295C78.9418 63.8295 78.1301 64.1658 77.5315 64.7643C76.933 65.3628 76.5968 66.1746 76.5968 67.021C75.7503 67.021 74.9386 67.3573 74.34 67.9558C73.7415 68.5543 73.4053 69.3661 73.4053 70.2125C73.4053 71.059 73.7415 71.8707 74.34 72.4693C74.9386 73.0678 75.7503 73.404 76.5968 73.404Z" fill="#333333"/>
</svg>
